<mxfile host="65bd71144e">
    <diagram id="kjkqxFBtK9u7glvPCsGU" name="Page-1">
        <mxGraphModel dx="-366" dy="-289" grid="0" gridSize="10" guides="1" tooltips="1" connect="1" arrows="1" fold="1" page="0" pageScale="1" pageWidth="850" pageHeight="1100" math="0" shadow="0">
            <root>
                <mxCell id="0"/>
                <mxCell id="1" parent="0"/>
                <UserObject label="" tags="" id="80">
                    <mxCell style="rounded=0;whiteSpace=wrap;html=1;" parent="1" vertex="1">
                        <mxGeometry x="3135" y="1942" width="120" height="514" as="geometry"/>
                    </mxCell>
                </UserObject>
                <UserObject label="&lt;font style=&quot;&quot; color=&quot;#3f497b&quot;&gt;&lt;b&gt;Source System&lt;/b&gt;&lt;/font&gt;" tags="" id="81">
                    <mxCell style="text;html=1;align=center;verticalAlign=middle;resizable=0;points=[];autosize=1;strokeColor=none;fillColor=none;" parent="1" vertex="1">
                        <mxGeometry x="3143" y="2182" width="105" height="26" as="geometry"/>
                    </mxCell>
                </UserObject>
                <UserObject label="Azure SQL DB" tags="demo" id="82">
                    <mxCell style="verticalLabelPosition=bottom;html=1;verticalAlign=top;align=center;strokeColor=none;fillColor=#00BEF2;shape=mxgraph.azure.sql_database;strokeWidth=0;fontSize=10;fontColor=#3F497B;" parent="1" vertex="1">
                        <mxGeometry x="3179.2499999999995" y="1980" width="37.5" height="50" as="geometry"/>
                    </mxCell>
                </UserObject>
                <UserObject label="Azure SQL DB" tags="demo" id="83">
                    <mxCell style="verticalLabelPosition=bottom;html=1;verticalAlign=top;align=center;strokeColor=none;fillColor=#00BEF2;shape=mxgraph.azure.sql_database;strokeWidth=0;fontSize=10;fontColor=#3F497B;" parent="1" vertex="1">
                        <mxGeometry x="3179.25" y="2080" width="37.5" height="50" as="geometry"/>
                    </mxCell>
                </UserObject>
                <UserObject label="Data Lake Gen 2" tags="demo" id="84">
                    <mxCell style="sketch=0;aspect=fixed;html=1;points=[];align=center;image;fontSize=12;image=img/lib/mscae/Data_Lake.svg;strokeWidth=0;fontColor=#3F497B;" parent="1" vertex="1">
                        <mxGeometry x="3176" y="2240" width="38" height="50" as="geometry"/>
                    </mxCell>
                </UserObject>
                <UserObject label="Snowflake DB" tags="demo" id="85">
                    <mxCell style="shape=image;verticalLabelPosition=bottom;labelBackgroundColor=default;verticalAlign=top;aspect=fixed;imageAspect=0;image=data:image/png,iVBORw0KGgoAAAANSUhEUgAAACAAAAAoCAMAAACo9wirAAAAAXNSR0IArs4c6QAAAARnQU1BAACxjwv8YQUAAABjUExURQAAACC/3zCv7yu16ii35yaz5iu16im26Ciz5yu15im26Sm06Ci15yq15im06Ci16Cq15yq16Cm26im16Sq16Sm26Cm16Si16Sm26Cm16Cm16Sq16Cm16Cm16Cm16Sm16Cm16BLF4PUAAAAgdFJOUwAIEBggKDA4QEhQWGBocHiAh4+Xn6evt7/Hz9ff5+/3v+H4wgAAAAlwSFlzAAAXEQAAFxEByibzPwAAAg5JREFUOE+NVNmWqzAMC0tL2AMJJWVp/P9feWWH9pZp55zRw0zqyMaWBeqFVBvjPDAZU+VH8IWs9XTC0l+OK0Z1P8InrO1xnUvyYzJaS+VM695tHFuuco9zcJqPFz+nqvOdnO0DWQgnC9GMzMq7diDKlaelGrxF1w6MTPVEA2ekjZRlAoU5tlgHGtVME46ONtfkuS6avtBFUg532jOF7FU9qGHy9Yb0KV1nS2WJ4xajRIrISYXHrbumumwxyyWr7Uo7GuuEEEsk1Yh20cNKtE+tDFyESCCb8hS3XqbYaGksT5H0uI8E2k3MYB2sN3zOWtGKCXENy1BqFBJASomttRC0aiIZCN7vx5H2PskPAnIchD1hqhGOBJEeMzcjzBAIf2xbxJgWAkv2HQlsAAJtstVPZGwTJmBdX4okvbQFwsz/p+bESSvHKsVH6ALqAoufjakrY26eRUdz1XPMpPlhWcbapseY4ra8u73UQu5sxDEnHfjNgMZYt361E3XYniv4BJ4MAi2yyk+k7DImUOiTI/aOVtYGAusVXHXmaMvXhw466nD3o+m0bs3g49R78ycdApVc8ncdlvhiMT51qOmhLAWR8hvynWaVBQovLc8osW9YBc6lOxvwBzTbQN6Akje/u/pN8bQapeXjG5NZ/gHA9BbOfRp8/v+ZylqW/YR79/4VA5LKeC91d+/H5nieUv8A4G9K0d+qFlUAAAAASUVORK5CYII=;container=0;fontSize=10;" parent="1" vertex="1">
                        <mxGeometry x="3165.7999999999997" y="2340.54" width="58.4" height="73" as="geometry"/>
                    </mxCell>
                </UserObject>
                <UserObject label="" tags="" id="86">
                    <mxCell style="rounded=0;whiteSpace=wrap;html=1;fontStyle=1" parent="1" vertex="1">
                        <mxGeometry x="4057" y="2156" width="90" height="237" as="geometry"/>
                    </mxCell>
                </UserObject>
                <UserObject label="&lt;span&gt;&lt;font color=&quot;#3f497b&quot;&gt;Consumption&lt;/font&gt;&lt;/span&gt;" tags="" id="87">
                    <mxCell style="text;html=1;align=center;verticalAlign=middle;resizable=0;points=[];autosize=1;strokeColor=none;fillColor=none;fontStyle=1" parent="1" vertex="1">
                        <mxGeometry x="4052" y="2280" width="95" height="26" as="geometry"/>
                    </mxCell>
                </UserObject>
                <UserObject label="" tags="" id="88">
                    <mxCell style="rounded=0;whiteSpace=wrap;html=1;rotation=90;opacity=10;textOpacity=10;" parent="1" vertex="1">
                        <mxGeometry x="3680.64" y="2108.23" width="78.12" height="858.29" as="geometry"/>
                    </mxCell>
                </UserObject>
                <UserObject label="" tags="" id="89">
                    <mxCell style="rounded=0;whiteSpace=wrap;html=1;rotation=90;opacity=10;textOpacity=10;" parent="1" vertex="1">
                        <mxGeometry x="3686.96" y="2020" width="65" height="854.6" as="geometry"/>
                    </mxCell>
                </UserObject>
                <UserObject label="&lt;b&gt;&lt;font color=&quot;#3f497b&quot;&gt;Governance, Monitoring&lt;br&gt;&amp;nbsp;And&lt;br&gt;Operation&lt;/font&gt;&lt;/b&gt;" tags="" id="90">
                    <mxCell style="text;html=1;align=center;verticalAlign=middle;resizable=0;points=[];autosize=1;strokeColor=none;fillColor=none;opacity=10;textOpacity=10;" parent="1" vertex="1">
                        <mxGeometry x="3660" y="2507.39" width="156" height="55" as="geometry"/>
                    </mxCell>
                </UserObject>
                <UserObject label="Private Link" tags="Icons" id="91">
                    <mxCell style="aspect=fixed;html=1;points=[];align=center;image;fontSize=12;image=img/lib/azure2/networking/Private_Link.svg;strokeWidth=0;opacity=10;textOpacity=10;" parent="1" vertex="1">
                        <mxGeometry x="3486.83" y="2426.77" width="20.83" height="19.09" as="geometry"/>
                    </mxCell>
                </UserObject>
                <UserObject label="" tags="Icons" id="92">
                    <mxCell style="shape=image;verticalLabelPosition=bottom;labelBackgroundColor=default;verticalAlign=top;aspect=fixed;imageAspect=0;image=data:image/png,iVBORw0KGgoAAAANSUhEUgAAAJEAAABXCAYAAAAEaaeKAAASRklEQVR4Ae2deWxd1Z3H/QfQKahkcxKno07/GKnSSCNApdDiLkyZMMOQaWegacpSWolUpmpVqdAKqhmqGQSCmQ4kTshGQnAgGLI4cRbHW5zEDpA0i4mdfaOJEzuxHe+7Y/t+R99z7rn33O3tIbnP70pH973z7jnnt3zu7/zOuddJFjKHwwL9wwZOXB4RpfzYEDYeGsTWw4NWXdfAmOP6zBcga7wb4VLXqADlheIe/GxVZ8zluaJuFO4fQEP76Hg34fiEiOAQAIIQBM6L6z5BYfkbKK76L6yrfBWvbiwLvPY3a7uxau8AzraOjEugxlUkutI7hgU7+wJhIFC/XN2A3bvnAicm2OX4BOD4BJzd9328sKY2YvvXynvHXXQaFxAxj2GkCIo6qn5R+V4Mn/iKDY8CiRAdY5mI0SM5+HDn1qh9LanpB6EdD0faQ7Tj5BDmru4KdPorpb2obbiKwZ564PTfeAEiSAqioxMBUXIw0rVdJNuvVwVHNo7LxDzdj7SGqCBC9Kk5PYwRFSgGD/sDdOZrQMMs4LN7ZCQiQEdUyQF6qgQfo2MQIP7yA39Y83f2gau+dD3SEiI67NXyXjy1qlMUNV3xXPTpIIZHNYcGAdQ2z+nz3irgxFclRIcnAqLYIPFiwwAIpz6ekuHFLT1pO72lHUTMQ54v7rEAohPpVE47nmgQBFDzs06A1LfOQhui+olA3STgcA7QLSOSuoyQcvXHcRVEPD/zQReOX06/FVxaQURIni3qdjiOznt//wC02CN9HQQQc6CB/YoH53m0ywvRoUlAnRckNtzzl6seWZ5e3YXzaba3lDYQXR11TmEqAtCRniMSQISIv/sdxpA5jU0E6gnPJIAQfRoMUmPnqAckgp5OO99pA1HBnn48VdDhcBgd6DmiAUSI3PmQ6oSJNHMhNZXpENUSphlAl3NqY9OeQUNMZQpsyvlSSQ8IfjocaQFR+bFBCRAhMkGqb/LJPWIBiBCdnO6d0kZagJN3mBC5ohAjUe1k4OBkoNYfpLa+MQm4krGgA4ur+9KBofA/9mB+IcDRnMMVmOeIFSBCZO5Qo3Eu0PIacOk54PhXI0chBdEBwjQD6PRGJILtlvVgw7BH1LBVhD4S5e/oczjm/7b3epPo4VP++0AExl0UQNyhVpuL3BtSy3o9F1L5kA7Q/snAvsnA/i8D3R97eOAbATpIL27u9lwTtopQQ+QXhRx7QMob3DB0w+L3PSpA5rLenQt5IJoC/HkKcODvgJEuJYU4Mwv6j03dDpA4HYf5CDVEf6rsdTij8viQ1xddhckBpKIQk2k9CjEP0nMhTmMqChGgvVOAPVOAc//pkel8u3Na+/WarlAn2aGFiLnETws6ROH08Exhl9gx9nis8YnoEFkRSD0bU482zGnMDZA1jU2SyTQTajdEBOiTKcDBr3tEYoWKRkqHshBHo9BCtKi6zwHRwQaf/SB6i8+9Ik1d1bcChTcBqwPKezcBfuXdm4B3bwY+uAXYM9E/ChGij7OB4RYPSM3dckGgIHp+Y3hzo1BCxP2VvMJOCyI6gs+tfI9z37EhUhFHnZk8l/xV/AARKgKkSs0EEyIzF1JRiAB9lO3Ji5ScL5f2OHRo6vLZ11IX38DnUEJU33jVYfz39w0Em7jxaXvJLt4Jst8NslZf+tN5axWm5UB6Ii3yoAjTmMqFGIUIUO19gbIxeqpIxPOGQxH0COzl+v8QSoiWf9TvMP65dp+NRWXbnhLxMhlfKBNFLdvVee+XgO23ApVaqbgVqLjNLuW3AWVaKb0NUGXbbcDeSXI1pgOkotC5l5UknjOf9ekQ/XdJj+eaMFSEEiKuZnTj832eiMfFufaejx51uPIq/oI9nfnlPnqdyoPUNKbO2ydIiNzT2MH7gDGfFaMm7G/XO3UJ49uQoYOIeYMO0Nsf92suCfjIRxan7rBfKFNTFs8HbwfckYdRiNEnWgRiFKr4klzKu6PQ3r8Feo8ECGRXV5+2V5nUa89fwreDHTqI+D7Ok+bSnkanE2I6hhvsZ1+ERyzbzbxH7f+o3Ect4d17QfpSXuwJmYl0ggBRbk7F6qagXmVHw7fxGDqIak4P4cl3OiyQ4nrJiyCduENuGurg6PDoAPHJvNqNvgYAESI+mCVEBIh6rTkYvuQ6dBBtrh/EE4TIBMn3dY9IoYkgHb9TvgsUEZ4EAPrkr2OawnTxmFwrgKjXso9imJ71Dm6Az6GD6L19AwIiBVJnIn/WTJCO3Wm/UGZNWwTHBx59N3pfwBRGgDp2xO1SLgp4Q1AflpfLeuPu43o3CB1ES3f34XHN6J73pmO1KEE6eqf5/MsER5+6PNPXZLkC05+LqR3pBAFSoiqAqNdzRc4HtuqaG/kcSogeW9lugZQwRPQKQTpyl/38i+AoeCJFH30pnyRA3GgnRASIev1hU/gef4QOovWfDghjK5Audyf5qECBRGhU4cpLfyLvjj4pikDkmH/7pgCiTq9VhG/DMXQQVZ4YxE9WtlsgnW6JsFsd6xww1ADU3yXBCYJHjz7cjU4yAinReocMSxfqtWR3+F6ZDR1E+88PY87KdgESjX7gfIz7RMprQeeObYBKmlXk0fd/VPTh87AUAURRGEmpBwv1WlebWeIHuShl9Yw8c96WBqfhy45FfqwQ18CR4FHPwnZnA43L4uo20sUnm0csgKhX5fHMZmMke6XkNy7pf0yIzPJsKlcznLLUtKUij4KHEYgA1WQDR+ZEfSYWq7Lv/rnf0oV67UtVZI1VgBRcF7rpjDr/fmO3AEnB1JeqfyyB4LDsmASs+6IERoeHAFVnA7umAvU/SRokrsy40Ug9WJhgh/Fv0UIJ0ZrafvxoRRtmm8avvRDwVmO8d5mKOttuBwpuBnZOliApeKqnSoB2TgVYjubFO4LjeuZDhId6UJ95O8O30UiFQgkRH3U8urzNAumPJSnaW1FRp+R24J2bgR2TZeRR8DACEZ4dZjmSHETFdYMWQNRnx6nw5UOhhYiC533YgUeWt+HRFRKmwatB78c6bv7IXxhxWBREVVNk5FHwKICqpgKHkpvOxgzgqXc7hPzUY87KNqRsWo6sZcp/DWUkohXe29ePf19+BY8svyKi0hs7UjAVMN9h1NkyQUaiyinOyEN4qqbCqPn7pPMhJtCMPpSferxUmqJomnJEoncYWog6+scw++0r+Le3pBN4N7MuqYMRh2WzCVEFk2wJjoBn+zQYLFVfAQYuJDzU8IiBJ1d1CHgo/w/fasXhphTldQlLlXjD0EJElVfs6cMPlrXih29JmF6vSvKRgZquCNHKm4HyKTLyKHgqp8FgqZgGo+buhEHaUDcg4KfclP+VivBGIfoh1BD1DRn46XttJkgSppPNSdzRKupsIkS3wCjLltDo8JRPg8FSNg3G3ofjvn0pM+Fh9CFAs5a14rMrKXh0E7ckqWsQaohohuL6fsxa2oJ/XSad8nhBG+ioRA4xVTHqFE+UEJVmy6jDyKPDUzYdRul0GBfXxDUM3x2aWyihp7yU+3+3hzsK0QChh4j/gMPPV7fh4aUtwim8s58ubEPUvwDxcb+Yqhh1Nk4E3r4FBiGy4JkOQ8GzLX6AONyfqroF7ISH8s5e2Zp8Huejx+ddFXqIaLALHSP40cpWPLREOodO+p+q+O9wkesw6mwwISrJtsFh5CE8LBVfi9tP6w/JiEl4KOc/L2nG/oYUPveLW6LUNUgLiGgOOuTBxc3COQ8taca/LG3Bguqe4D+v9rGhlesUTZKRaOtUOW0peEqmw2DZOh3Ghdinsm1HB0TkUfBQzg114Xvlw8dkoiptIKI2RXV9mLnoMh5cfBn/ZAL1u+IOcEkdyyHyHEYcQrTiFhhbpsrIo8OzNQfGlhwYm3NgNEQGiRuK83f1CLApD+WifPOr44+Ssch/va5JK4hoxPm7uvHAosv4x0WXMXMxgWrGY6uu4Epf9D0ka7pab0K0eaqMOow8OjwEaFMOjN2zAv02OGLgN0XtYnzKQXko1wtb2p3/GHtgD+H5Ie0goukLD/TiH968hO+/eckBVPHhfvu/YvDxEXMdMV0VZwMFX4SxZbqMOiryKHgIUMU9QL93w1H8q/pnB/HwsmYLHMpBeV4q70w7gGjGtISIiu0+O4iZiy/h/oXSgQooRoOaM4PgVOM5jv3RhkYHR4enOAdGuRcgdlfXOIzZ77QKcBU4HP97C5uw+kCSG6EeYW+cirSFiCY+3XoVPy5oxncWNAlHfm+hDdUP3mrGtmMDaOvTXvS/2g2jeqbMd9zgEJ6NBOheRwTqHRoTT98fW9Uioo2ERoLDcR9YdAk1Z8P3yms8iKY1RDREW/8oXqnsRG5+I769oEkARed+d6EN1qxlzSiq70dj1wj6ejsxtmsmDEKjwNk4AwZL2b3o7zwvwCs5NoA5BS0gmIw07I/9snAcjvfspjac7wj3bnQsMKU9RMoIp1qv4vktbfjW/Ebcl98onJy7QIKlw0UIHnrzFE6tuV+Cs2EGjA0zcGnt3Zi9+IAFioJFALNA9sd+2f/cNS2ovZgee0DKfpHO4wYiZYSDF4fwzPpW3DPvIu6dfxHfnH/RAosQqPLgwpM49eH9MIpmoGnt3Xj0zf3Wb+oaAsP27If9PbG6GbvOpPfUpeyon8cdREr5pu4RrK/rRd66Vnz9jQu4e94FfGPeRUf59vzP8Lsl7+OB/BOOel7H69nu8dXNeL+2B+fak3jwq4QK6XncQqT7q2doDJuP9mLpJ1341YZW/GJtCx555xLuer3BKg+vaBL1c9e2iOvW1fXgip6U6x2Os88ZiMaZw6+FuhmIroVVx1mfGYjGmcOVuqV5WcjKzccZVZHEOQmISpGXlYWsrDyUJiHAdWtamucruzBuVhZy81Nh3mDt5DiRbGfaN+/aWPfGgIhOyM1FblYWrpGewR5IxS9+EIm6z0mfaGNF+z1JG3ghktAm4ssEI9EZ5OfKu9UrTJLafV7N3RCdyRc3xLWOQLZ6kSNN9Ehl95TIJ4/fTP0/P4jEgLkQEV84w/yciDbXq40DItOhKcoRYlUpGJTIgMXaf6TrrjtEZ/JztaTMjkoOoU2ys0TexNzJLvJul+2yPOh76y2FzRDvSAjd48QKggZRsDNNjSKMYcnmUJ5fTD0iyWPq4zGBqHffmGZ/mh2dtvPaTYrkX6/LLfW3/SN85RHKo6BVkcB0Ju8SPewLqKIm2G6j+itnGV9TwlJSqxMamM61ZQnq09LX/mBClM8bIsvtMPsyRBsjCASznVtkrWcA/hFHd7B1fWmeK9l3+yFId/96zxgxyWtJ4/gQP0R+d0kMAkjQdGf5KxcMkXslE9DeTz6HyuYX0/mR77pYxvC/xhmt/QSQdd4b0A1HcFsnCP5y+NmTPTrbMnDKnDAy9P6yxA2RZ3DRb5AC5qCmgHbEYH1QG2+975hBSgfVu/UXEOWh1Fc2p9wew7rGSAYEj/Mi3gSmbfQpzZouvXaTWvjXe2zq0sltrkjf44TIDL+6Eo7PeqRRw5pKWMq66r0eEis/fb73KMwuTKX1XEv/7OlWDavOCiLRFac0n6V9zGNIu1hjan2r4YLPTif76qoih2v/ynmtsx97PP96Z1vbnpYOdgdRP8UFkfeO0/o3De6MNvR1UM7hr5xfhPIozGGTuHOE1C5HizHcuVEcY+gyis9xeMO2a8BUFiCHPqaf3aR3/O3sbJucPeOAyF8YGyPzdz3iBCiv2ngUkd6VO+GaE/yviyaPGiXg7ILISnIdC4Q4xhD95SK/lLmFX0QOkIPVyk553EX3aat+d2xee+3tbydz9tDsySE91/qOEUFm7afYIYplEGVI8cQgBgeI6/VpxGzDKVJT2qOwUsDTXpgHeTrI6lr3WbR1Jeumjo4thJjH0GSPZXyHPNHaekEQNqGd9LE8smr9avYUVvI8OwuIgg45/b/EDJEU2mV0T5+2spaSjpxJ7kXoU54M5fYeRV6pqbimdCBE0hqOPSjf3MYjp7gVfZ+dWfL4OCdazqXa6vr5De1XF7WtAty0J8fws4vqR8nqZ09pNheAstK2pWZ/P3n1upgh0htlPvtbQDow2o3m3zbMtRmIUuY9bwRNWdc3eEcZiFLkoPEahWi+DERJQmTnIONvGlOmy0CkLJE5J2yBDEQJmy7TUFkgA5GyROacsAUyECVsukxDZYEMRMoSmXPCFshAlLDpMg2VBTIQKUtkzglbIANRwqbLNFQWyECkLJE5J2yBDEQJmy7TUFng/wHTR1wGrv89oAAAAABJRU5ErkJggg==;opacity=10;textOpacity=10;" parent="1" vertex="1">
                        <mxGeometry x="4038.8" y="2426.7699999999995" width="83.33" height="50" as="geometry"/>
                    </mxCell>
                </UserObject>
                <UserObject label="Purview" tags="Icons" id="93">
                    <mxCell style="aspect=fixed;html=1;points=[];align=center;image;fontSize=12;image=img/lib/azure2/databases/Azure_Purview_Accounts.svg;strokeWidth=0;opacity=10;textOpacity=10;" parent="1" vertex="1">
                        <mxGeometry x="3340" y="2515.4700000000003" width="50.87" height="31.42" as="geometry"/>
                    </mxCell>
                </UserObject>
                <UserObject label="" tags="Icons" id="94">
                    <mxCell style="shape=image;verticalLabelPosition=bottom;labelBackgroundColor=default;verticalAlign=top;aspect=fixed;imageAspect=0;image=data:image/png,iVBORw0KGgoAAAANSUhEUgAAAIcAAABXCAYAAAAu2VYlAAAPzUlEQVR4Ae2c+XsURRrH8zftT/vkeVbdXV1lPdaDQwRRZAkuqyI8CovgCoKRFdTIFUByAEkEDSgRksilCXKIUe6AhABRcswkM5PJ5GBy+O7zrZ7qrurqnpkMTdLdmXqefvqqrnrrrU+/9VZ1V+XQBA6N7YN07nacvr02QLvOxNhW9mMvHb7aTxda43ShdXACa4coZyKV/uztOG06HqUZO4P04KZ2emhTBz28uYMe2dxBkwoD9PfCAD1aGKDHtgTZ9viWID2xNUjTSzrpk+9idPrmHRoc/n3CqMz3cPx8+w69f7ibninqoL9sbKe/bgQU7fS3TSYotqhQPLG1k/6R2J7c1klPbeukqUUh+uhojI5fv+N7SHwLx6X2OC3Y10UPbGijP29oY1DAWgAKWItJmw1L8ajJUnAoAIQGRRc9va2Lnv60i54RtgWV3XTmVty3kPgOjlvhIXrrQIjuW9/GwLCyFlOKg/TxsSiVN/RSRUMf8y0utg6SvrUN0u6f+mj3T/20oS5GL5WFdSgmbw/RFNO2rCpKl9v855/4Co7CEz30p/WtdP96zVoADO5bzNrVSRvqeqjh18ze9F8CQ1R6qo9er+xmcEzdHiJ9Kwqx5mbdkZivfBJfwBG7M0JLD4Q0MEzNyJyKLjp5w1n/AFZiRXUPA2JaUYjEbclXUQrGRnzR1HgejrboMM2uCCpgTCsJ0IFL/WlVUs/QCMVHjF5I68BQWs/B31hY2U3PFoWk7eWKCF0LpJdGWhmNUyRPw3EtOEiPbGmn+9a3So5n4fc9FE/S5WyI9FP+L52Ud7aN/vjdDfrDsWYSgcA5thcaWmnp5QDVdsQkeMx1VX1pQIdjenGYsM3aEaGTzZk1Yeb0x+vcs3DAYohgwL+YVNhBX1/qs9RlV3yYAfHQ97dYxXMA+N4KDn4Pe0AEUK7GrJuoy+1DNKcswsB4rjhMfDv3m3cdVU/CAR9jxs6AbjEAxpTiADV2qBUBKNY1dekWQqxw8TgVHGJcQCLG5zTC13hjb1QHA4DMLYtQa/cwj+KpvSfhWPSV5nxiDANgzNgRpI4etQJOdPXR/fU3LS2FWNk4FivbfM/qHJak/NdupbL74r/TW/ujNKMkrG+vf9FNuO614Dk4PqmPSs4nmpLrnbLzB+cS1sKqUu2ujRYOns4r59sJDq0YYEH+vbubZpaE9e29Gu91cz0FBxxQNo4hdFfx0cwqvHMlOGZwiD0dLktTcIhm74zocACUmsvWsvJn3Lb3FBwvfRak+wUwik71JNXnaADJxHLAaliBwYU6dSMuwQFr4qUPd56Bo/76ABsS599JXt7TxeuA7Qd/J1oeIvrZ1JlIF5DRwmEGA70Y8zUI9vHRmARI1QXvWA/PwAGrwR1QDImfMI16FkWJnmwjmtqeGSCjgcMMAcDgju+WG2EJWvRUxOYFx939so8iPeCiE0/AUd88IIGxoDIkqRDWAmDwLV1A0ONARRffikjNAwbJNjSH2CAYdzz5PhkYPA6eF0PZD32S9Sj7Qb4vxnXTsSfgWLAvpH92xw86zabeycJOA4x0AMFbbgbCrlJgFTBSiopPBwzEm37mtpQcLIVoPeB7eCG4Hg4MeD282fhJ582vZLN9ekAFIxkgX9yOEgbGRhu+DfZK1kVsSrjFEPeIL4bik7L1aGyXu99iXLccux6OmsY+NtAFPwM/6ez5WR4et7IaHA7srZqYu1V+KjCsrAdgeL4krG9eaFpcD8fb1RH2Fxf/rU8cCQ0M21sNMyCI60RA15U7n9xSzNx5hPa8vpLqXnyNplbU6eMrou+BLuy88ogOx8Iv3N+0uBoOfFnFCCj++YTVyPtM7r7ujaUHxxL5sbtmBKOv91VfohVrd9DFybOp+4FJ+gZAODRwasWw7XivDgesCAbK3BxcDQemDfD/PvHPZ/mPcjuOcQ3RQtgd31C/x2VcJyMtv1Ik/0PqfPAJHQgRjrWrCnU4HjvZIuWDQTGxaTl61TQoI8Ue/xNXw3HsWj+bPoCpA5g2cPiqPIAEf8IOCH79XfnltdX40NAQ3WppIeyVEI9TvOYQ9c5faAkEQEGzguaFWw2+F53fltCwBMe+s+7u0roajr3nerU/xRPzScRJRpGR1GAAkCrZ2Cj1PjQ0TIePHKU1H6yjd1fn07K336FPtxdTNBolWImBjzZQ9LHJllA0PDuXNS1oYjgM5v2FqAE0urSi5dh2XHauFeHG+YKr4Sg6FWMTjmA1MNHot4jhVV6MpwdHKke09ptD9L+1H1L+mg9o5ar3aOmy5bTojTdpzfxXLYEAKADmzs0WxTE1g4Hzqjb5+48Ix9pDsXGu/uTZuxqOdcei2iy0xISjXuGfCFgOAJJqS1b8QCDALAbAgNV4+52VtPg/S2nBwkU071/zqX7SkzogaFLQtFDc+PUPXVr0SJJt4rA8ZFlYGaXnSyNsW14lg5NM1vG452o4Fu8PMzhgNR7fGnRcP+fPX6DV+WuYxQAYS5YuY1Zj/iuv0uw5/6TPn57GrASaF6fCyoMxHQ6A4ubgajhW1XbTowmrgTmrTofGK1eYj/HW8v8yi4Hm5JXXFtCcuXk0c9YL9M3BaqezpMVf9mThcEKrG+t7hAnNnRQQfgXEBLOD3am3mOGmKCL19w/QindXM2uBpgQWY+68l2nWCy/SczNmEpodp8O8im4djvzarM+RsX4xroEmBVYDE5ox64yHriGi7Z2pt3MpOgRoWriPgaYEFmPK1GlUVfU1z8qxPUZJub+B/aa6FMI5lnNmCbm6WTlydYC0ZRC0Cc2nbxrOIKalpAMHrEuq0NbWRns+/5xWrV5NZeXldPXqL6keyeh+Z2xEgqPsTHacIyNF4iHMa+VWA8sf1DYaYwa4XxlODxChk5OxLE48yD6+JXoqsBxfu/yvMFdbjuauIcJyCHwZhI+OyW30id704KiXH3OinjNKY9+5AclyYDjdzcHVcEBxcyvCDA6sj/FscUj6QTcwmB4caH6aXfAZA93YWaURfXP7XBbXw7Hzhz62og5fOOWsaXrhnjSblp1dRMl6Lvf6DYa/IYLxvst7KtCH6+G42DZIT23TVtTBwimb6uSPJRf707MeX0aIxtP3wBdYEQ63f5H1BBwQkq+sgxV18sojUtOCXkt5KDkg4w0GyoChchEOWBK3B9dbDihw6/e9NPlTbbklrKZz8JLca2lMYj3cAEZDy6AEBnwPLwRPwHGza4iml4T15ZZmloYpYpr7AQjM4x5uAAMQmK0GYPFC8AQcUGTp6T59DS4ss7TjtDy6CGcTTicHxC1goLsqNidu/xIrQusZOGApsKwB1gEFHM+XhpW1t9C1LekicgsY6Kq+uicqwXH+tjesBiDxDBy69UjAgXW4FlWq6178Fh/fXon45q093CuB8ckxuaclxnXjsafggPV4aVeYWQ7AgbW31nzjTueu/Ey/BMacXd2Ef0i9FDwFBxSLVfrgkHI4AAgGytwUai/LYxrwObwwrmHWoefgQAFONN/R4eALs+1ucMcXTvNgF8CAFfFi8CQcUPRnP/ZLK/fBWd34Xa80QDbWFWJuSgDGusPe8jNEnXkWDhTiw6O9bOW+GcXa4mxYWmnZ/uiYr3+Bn3jgbIpdVhyj2+r2j2siDOZjT8OBSik62UciHAAESxzUN43N5/ALtwdpyZfy0DjAwIc1L4MBUDwNBye95tIAGwMRV+/jVuRejSug54F/QM3WAuelp7zpY3B98r0v4EBhAAE+ypkBwfl7NT2EkUpYmrsNGPq2akI4JF7sldjpxDdwoIBYf+uDQ/ICbSIsmG1WcDTGmpx01+VC0wCwNtf1EcYqOATmPfyLKx5YkMUOBKvrvoKDFxD/aq440KNYEXEqIj9evC9K+TU9hNFM/MaHPZoLcX4J/vc0w8DPF1VGGTw8bz/tfQkHr6CGljih8rn14EBY7oUff8XpA/yYw8D3+GaCwS4/B1/DwSsOzc3es/20fH9UmuUuQZIGHLASGMu47vJFV3i573Y/IeAQlYQ/sGovDxCWP8ivibGNQWKCAz/koHnBxCNMIfDadxGxzJkeTzg4MlXURHwuC8dErPU0y5yFI01FTcRodwFHNeXl5FBOTh45v1DBGFRFdR7lQP7cAmpKkV11HsqZQ3n3tKBNVJCbnjwpxHXsduZwQLm5uZR7z5XmWFnlhDgcqeRvKmBlHB84tBfw3kIpq0U8yxAOjfLcgiZib1Uab5+YqSuOGRy5lIu3NYn2mwpyx+8lSICZRLx7qsrM4GBC51IB7HFCyez4norqcOJc7gI0L4myKFlob25uQQFrQse8krwIh/Y28bbasCKSbgVzzNp25p9obTcsDlGijVU0rl7XrRNvCkRLZc5HvCcJZDrhcDRxACw8DxYHPpW9eef+iFFG2QfTZTfJqelAlkmPy945TVdGuqqFS5U3UtfTtNKdnL1yloHlUJXJYEnpmCYqXa88FQJNOvW6rgQzSAmFG4pWn1VKzC/ocBBZyy+mZQWHds3s0GqyGpZIl10vN7e2qoOrVySXMVE+c7EpAWuqvJGMnr+aCM/Fdj96OASl6qnaFkKPkagAQ2mjthwKfGLlGfmk3cyJ5bCSn13j8qpwKBWpiyDLpVUOT4dHkuPwq0qaVnLxChdh4wlYWGMtf9ma6dFTHIwaDqUALAPrwup5JwppvOG4Y/eMet0yTxvFkd11XZjEgQiHhcJZnvrbZoZDO5fLY2QgWiJL2S3yw9NKXMuypJ+3ZZqGmCmPRgmHJpjUDgq+hLVjl6hshXQVAk1a9bqiNERMKM5OFr1e7VRggkNLL/GGK5UyOjg066W9rZayW4FgdU2RA4VJDoeYN4uNMRpF93ZKka+PCg7xjZCTMSrL/DZpz5jNKp5WIdDSVK9bKthScYpU9hfMcAjyMJklhY4ODlFPlrJbgWB1zbKMyeEQ80bh7fK3V4xxZxRwqJVmJIOjxH1RqZaFM56yFlwrvDj2YB0vlTxGPpZHChxMk6xbi7EPGXIzHMmULstlLbv180pcG/0p8fQCynnjsn1c/SHbg/ThsBFUSllSuCqoFBcnLL7otSeeQVMltAu2BVSeZ4lSngiokmnigiQrj5QAU3F+VTj0Zs2UF5NVeN5Odqvr6jUtXxlUw0qbmwtz3kwbY9GsWGXMVWrsE8rNqza6UJJPIo5zaE9pZtDo0+dVq1CpSjNy5ICJvofAlRDRdGgJR6JbqyRgAQdLToCZl9MKFtM1PGpVJqtrUvkkuVLnbZePSRO2p+lbDtsksjf8qoEsHH6tWQfKlYXDASX6NYksHH6tWQfKlYXDASX6NYksHH6tWQfKlYXDASX6NYksHH6tWQfKlYXDASX6NYksHH6tWQfKlYXDASX6NYksHH6tWQfKlYXDASX6NYksHH6tWQfK9X/i99wiPKQ3BQAAAABJRU5ErkJggg==;opacity=10;textOpacity=10;" parent="1" vertex="1">
                        <mxGeometry x="3940" y="2508.4799999999996" width="75" height="48.33" as="geometry"/>
                    </mxCell>
                </UserObject>
                <UserObject label="" tags="Icons" id="95">
                    <mxCell style="shape=image;verticalLabelPosition=bottom;labelBackgroundColor=default;verticalAlign=top;aspect=fixed;imageAspect=0;image=data:image/png,iVBORw0KGgoAAAANSUhEUgAAAI0AAABuCAYAAAAajpCJAAASGklEQVR4Ae2da2wVxxWA/bO/qvzsz/ZHJT+u2jyktLXaiFSNogo1atpGStUqSVXJgoQQAo5CQtKGtCEkioibZ2ksCFAczCtgm2vsGDAQY2NsbIxjE+xQAyYhOI7BwTwc0KnO7Jzd2dnZvbO717C7d6+02t25s/M48+05Zx67WwTpL5WATwkU+YyfyOhHjx6Frq4u+PTTT9l28uRJOHPmDJw7dw6uXr2ayDqHqVQKDQAQNAiOauvv74fR0VGYmpoKI+vEXJtCowGNCNKRI0cANVEha6CChebC5TE4fu4g2zoPH1BqGBEW1fHp06dheno6MRpEtyIFA83piUHYfnQF/KNpNszbXGJtm0qgtWNnIGgQpJ6eHub/XL9+XVfmsY+XaGj+N94LG3pegCU7fgGPbymxtq0l8DhuPGzvweDQkAZCszU+Ph57IHQqkEhoUKu81z7PAGNrCcz/sNRzywc0BA86zEn/JQoa9FP+2/2sBci2UngCt+3eWz6hQXiGh4fh2rVriWUnMdDsGVoDi+pug/kqUOpK4Ym6UljgsuUbGgQHu+lJ7WHFHprpa1dgPWoXUaPIkNSXwgKPbSagQXDQSU7i2E6soUFztGLfHy3zI2oSE5IyeLLBe9vbGd4RJp9G3uPAYdK65bGFZvT8IDy38y4DGAcsLpDsKIMnFdtMQoMQDQ4OQpK65LGEBjXM0uZ77MAwzSLBwgFZuKMM2JYtg4XytqMMZhoaBGdkZCQxjnHsoEEf5s22RxgwzLF1gcUVksYyWChu2RsDDYJz9uzZRIATO2g2HlnqDoxCoyxqLINFjRnPbWX9C1DXtAna2trg4MGDcOjQocAjxLJPI58nwTGOFTStw2tcgbFpFgaKAMvODCziW+XODIgbhv99632wcuVK29bQ0ADt7e1w+PDhvAI0NDQUe20TG2guXBmDyvrbjLEW0SRJ2sXULCIkTRmoFLb3uufAvpG1MDJxxGxA7B7X19fDunXrbPCsXr0a9uzZk1d4JiYmzHzjeBAbaLb2L/cGhsyQByzbj70Ck1fGcrbT5OQk9PX1webNm02AEKYDB4LNhssmamBgIGcZohwhFtCc/eYEVDaQluE9JFHDCMAw0yNoFdQw7x76C3x96Uygdjh16hTU1NSY8LS0tOTFXH311VeByhOFi2IBTXXn46aWoYE604fJAUxt/3Pw7fUroWSN80ioZcjvQX+nu7s7FDw4Kx7XsZvIQ4ODeGzeSPZj+HgL6xmRcytpmOzQ66FgkS/Gicjq6moGT11dXSho0GSdP39eziIW55GHpvHYW1zLOM2SFzDv987XboBz30zCn9euhL3Dx3Jeg2MtBE5ra2socHDZaBx/kYdm2e7ZfLJRgAa1DDdLKh/m1bbf+DJJoxNfww9ffBq29HZpteEnn3ximioc25EdXd1zNFFx/EUamvGpUbsvIzi/ppaRTFJlcwZGzus3xuqO/TC3di2D5t53XoOXmuqhob8XECSvHzrE6OPU1tYGhgbhunjxolc2kfwv0tDgYJ4xVWDXMjQW49AyzRnQNUtokh5Y9TaDBbWMvL3R+pFng+HILpkpHATU1S5yPHy+Km6/SEPz5oFHmGmSe0wMGnR+FVrmpKaW+ev6VSYo5Sv+aWqaWW8sZ8e5oMGGph7Vxo0bA0MTxzGbSEPzYss9FjS5TFNzBpbtv1frpkUtQ5rlvv/8i5ki0afpOX1SyynGQUDqhnd0dAQGR6vQEYoUaWhUpsnVAW7OwJaBF7VEi1AQNNhr8usIi5ng1AOCg1MNsunRPY/bstDIQoNzTSpoTNMkm6fmDPR8kRXb0/UYNU1m2RIGDu7R+RU1jeuFij9wugGhwSkHXUjkeHFzhiMLDQ7qidDQCLAJjejPNGcAe03DX3cqmlUdRKCQxsH9a7sa1ZE9QnGaAaFZtWpVYGjiNoEZWWgGvtzvGxq/80s1Xe1ATjDBgz2qgS/0ezSiXyNrEN3zuC3Oiiw0B09+OOPQoAK5cPmSaZ4IHNzr9J5IAR3Ytx2q33uHLeLSBUWMF7cH7CILzdBYp29ozkwOUjv62pMjjE4x+ToIDjrMWr+x1TDV9l2YOHgnTHbeobeNHwfUUrhdvnxZK5uoRIosNLgcQvRp8CkCXBSu9GnQv2nOwLGx/YHkStDgNAKOEJPG+ffHe/TS+/xlgM4if9v1eIEiCiKy0FyannSHppEv2ZSc4fbTtWLdPI9Rq3SMfMbiiNAgOAQNAqT1O7XAHzDdt2glG9VIkYUGBfYULryqLzUeduOaxtA2xppf24iwjykETJvAQHNE0wm4F82TtkN85Pv+oOkrjioPWuWKNDRLxRHhBuvZJbfJysUtd2jPbhM0bnvt7vc37f6AQTN2bJZW40Q1UqShWd/zrLuJUi288jHAh70m7HIv2FJjahqc5X56+0Z9Bxhb1a9pQmjwmhj/Ig2NPFZDzrCriWrKwNK9s7S1DbWb6NNQmNb+8iBA13f8a5pJTQdbqxA3PlKkoZm+fsXu19hMlPFck2N5RFOGPZ7iR5SBoRn6rX9ger7np2iRjBtpaFBia7oqnSbK7H5zh1iah1r80R0QdMxGu5W+fNc/MGiaRuZoZxHViJGHxhoZ5r0oQdvQjDc+JWnrSTVlYNm+e7WecQrUMOcbg5klhCbmpgnlFXlo0EQ9v/MuD23DH79VgLPiwB8CP+/kBtOlC23BgUmAaYoFNFhI9gw3voNGfozFNFMCOBI8S1tn2R6/dYNBJ7zt5AZ4qvF2GOybHcw0ja3WySbycSKvaVCCqG2W7ZrNtQ3CI6wZ1gAHfRx8JPfSt5OBGmT80iis6p7P3nGDS0+fyt4OI713+wOn/9ZAeUfxolhAg4Lr+7zF9sYIWjfMuuE0WkxPW+KrRVDjSFrn+V0/g+zx1+HLiye02uLMhUH4oG+J8SIkfEESfw0bQvtM450w3vNjfXCmerTyjEOk2ECDwny19XfWWzppegEbEqEhcGhSk95JI74QQIAIHWXUPk1Db8PekbUwPN4Juz6rZufreithyUc/tWCRgGFmsq4UljbfDZd6fpAbnBOPxIEF7TLGChp8Dmpx9ic2cExT5QoP93ckiOh9NWxKgv6jN2TRK9bo/XyChiFg2LuJt5XCKy2/humuW9zBwcnJ6S+0GyQOEWMFDQoU19mwBqOXM4rOsQiOoHnYe/aY6UKA7Bt7lRpBQnsJFjRLJiz4ull8mfU24y3o+Lr8d1p/r+5R4Wgxzk0l7Bc7aFD+e/gbsbDxjDU3hnMsax3TbMkAERzinkARTJEBixMYfGcxvjofgcGPczy2qQTW7n/Qrm0QGBzPSeAvltBgO9T2LrVeYe+mdbhZQXhybhRXYYoQTKZdtpeyl1wzYLZYwDy2sQQe3VAMDe1/ssBJSPdaxXxsocHKbO1b7nhTuaV5FNpHAoN6Q7RHTWVs1ivx8TUnpjnaZmgX/HoLaZhHa4sZMHM/KIY5NcVw4NADALiSL8G/WEOD7dIxspV9E8H24QzSPOaAoDUwaIFBgHDzg76RcJ0Ji6hd+Od+GDCoXSRg5n3wI2gZeD/BuBhViz00WA38rtNzjXcxP8MGDzqsAggiFPIxg4S0Cv9qi+i7kHaZt6kEmDmqLYa5G4qBaZj1xfDstl/CibHexAODFUwENFgRfIv5+52LmHPKvu+Ezqr4kY0cn+8RTRB9HwodXRssMjA1xTBnfTFUf7wQpq5eKAhgEgUNtRh+IOyNfQ87PxDGIWLaQz4WPiJGoJiw8N4RaRd0eMl/eSl7P/Sc8n4lCZUrSfvEaBq5UfCjpst33W9+cpDBQJ8hlPf8s4TzuINLTi52pWVY5tYUw4qWh6D/zD45y4I5Tyw01IJnJz+D3cfXwGu7H7Q+dip++JSOERAOiQmK4Oi+tPN+2NT9csH4LSQ/1T7x0IiVRr9n3/AG2NH/FlS1Psy2v+34laVNaoth8fafQ9Xuh+D1XQ/B2o5n4NDIDuYviekU+nFBQZOvxs5WFEFREW4VoPdyk3zlHI10/EGTrTCEVV4FuT4LQYKtMKU6BFXlRVCkcW00RKMuxVBVed5gMdIiAGlfDlW5hKsu2g0LDQZNURFYMCjKOlQF5exOFOMlARpeB0fls1CRSyY2MRnxVZoqWzET0Pgtn62wjpMA0JRDOWoMh+CstNkdVF7OwPGIZl0QmyMDmnJZFfCbRK+uHBi9yPmRjK/y5c4yEDRVVWim3O4IQyjlVVU+777chb35McJDk0/zpi2PSEAzRGAojC/ze9BBdKpE5ucofRqu9rlJY04mvxPNa1z8KfKdDMfU3Tl1xJPudMf/spNL+UtldF7npYXdzJt38zvzcDrgjjii/MQy47FUd+/cnf8G0zRDAOo7RhSKJjTk/9gqkoUKudK2/7EiRvqyY20IT9SCvEw2WK309dPBPI20ApsnXlfH9c524SE6dcxVPyy24WM6ROiar/cfgaFRFoQVjhpMDxrWyLYGtRfYgMDlzlJeJ4KLaTnLIebgnr+cDl6VH2h0G0+vbN71Y3WNDDTYHDheITQcOzcl4qyMHD9Xg7Iml/IwGtxI2+2OtWtB3vhKH8xPOjcaGt2yedXPkJbyBud/BdkF1zRMhqj2uGZx0KwBjeMaZxWcoGEcb4GC6VdZ6bF0yLZLYLvB50wnpKbJVW6ruL7rqK4fT1BDzrasc5yEg4ara3SsjG62OOh386CxaxpJAlyAhob0hs+ZTlhonNpZKp1w6rds/FJb/exh5r0i5BLkMCQ0zEax7jeO3djvWA1oBOjcCq/WNF7C5+raS0JMExka0i198l/sPY3w0JCpsMtKXXt/ZRPSEOrHQqOlabBIBhzO0U0daAg6uRto9W5cBae6o1hycrfbSovEaktTOx282gUaX2ZHqLPgD1plo46E1esR/UYmcTb3RZ2DHPVjCXtrLcpbdx9e07C6lSv6/prQCJWyxlqs6QdbAztqxbUK+Sq4dzQEQU1zO6o4Oulg5m7QCCBoj4Mo8mT1IBiosop4tjrq1C9I+Sh/594fNM7r05AClEAKTQE2etgqp9CElWABXp9CU4CNHrbKKTRhJViA16fQFGCjh61yCk1YCRbg9Sk0BdjoYaucQhNWggV4fXhoaEWbbZRSLUk2uutrAbY6nTT05kogf9DkgoHmeHLFu7nySEDuzumbfFcqT9AU8hMK+W6SkOnleUZbVZq8QVO4TyioxHoTw2IFTcAnFGjmWJzhtq9hEdbOCCYO46vXpChmhZVra+TZYVySYITZ0pXydM6ii4vspTQpXzkNCie25P8V/qE52y/FFctKPqOXLCnLMPv8aZqATyjgkkqx4rQ+RwwzhSEKkzvgsvx10qOFUHY4rQY38+YNZJ67LBozVvhJ63jo2nLpMV4Kpwfu5HOXPLRlwNNzyCUMJdK1eYWGGsNWYFYJWlhkNIztf6lAeGreVfw/Q2CUBl3ANUquxNzSEwE0kzQe9TAgcUlfXhVH64lorTSlRfm6hbP89fPQlkHsoCFBCQ3CKms2rBs0CpMipyGcU7vIcFG40uSZ1xtlsLSHdZVNy7kJXxHuXEtspJkzXJEWu1IR7lZXR7jiWrGG+TjOr6bBErFCc63gqIATGlZpyT+RBSGfU8VV4bnT8weNzT8QVgia94GpaeQVd6KvQyU29iZMXD46eajqiqk5wh0yt+edj7P8QyPYZCYc8w5nVbQ/3+1SQVkQ8jlV3BGulZ4/aEQ4KF95b0Ig/ZEz3KW8UjLs1FFXHskR7iNNVT46YTMADcNf7wkFZQW5qRJgcwjGl8Dk9ORzQUzcufb0aYTodJgTDorI91Z8XhYNMsPJQCpAyNOZgUb7CQXjrhd7MUw40gJxbYFRvkIjqNIzHoKTnoDgANu68soeWhYqBKBR/hYE9tbQCtfMw68M1D6bvXxBz2YIGi5IofGMAjp9GupxkV3HysoCks+psspwofEJAJ14rg/P8Ual8uFerpYWHFRoFWQaeSjroPJpMB8xPbmwQjmCHoaHJmjOkbxOAXUky3lzC5VCI8qf3aHyeJAYIT1GCRQkNGhOHDafq3RHeMqJQwIFCY3sRxn+SqphHHS4BBQmNC7CSIP1JJBCoyenNJYggRQaQRjpoZ4EUmj05JTGEiSQQiMIIz3Uk0AKjZ6c0liCBFJoBGGkh3oSSKHRk1MaS5BACo0gjPRQTwIpNHpySmMJEvg/ZLBK7MTcQ84AAAAASUVORK5CYII=;opacity=10;textOpacity=10;" parent="1" vertex="1">
                        <mxGeometry x="4052" y="2507.39" width="61" height="47.59" as="geometry"/>
                    </mxCell>
                </UserObject>
                <UserObject label="" tags="Icons" id="96">
                    <mxCell style="shape=image;verticalLabelPosition=bottom;labelBackgroundColor=default;verticalAlign=top;aspect=fixed;imageAspect=0;image=data:image/png,iVBORw0KGgoAAAANSUhEUgAAAIUAAABXCAYAAAAqLIYYAAAKw0lEQVR4Ae1dCWwcVxleCSGEBFKFOIoEUhFFgIAeQIWyCFQE4qg4REVCW1o1atRV21Shh6LShjYQh8a0OLZJmjQ3rpPWsR0nzrEJaXOhOmmaOBfY8RGv7V3Hx3oPe32tc/3ozcybffP+mdmZ9czGu/NW+jUz7/3v//7jm/fezHoTH3j4MzF9A4iIjzYDPu2lt66Gx67Ds/WjQI7ik8mA50nx8JYELKwZgZ74tUxWPH7maVJEx67DH7YkJHl8WxJaB656nA5y+J4nxUObE0Dl0aoknOqZ9jwxBCkYUlByHOtIe5oYnifFg5vjoCf1ZyY9SwzPk+KBTXEwko1NE54khqdJcTZyBX6/KW4qlUfG4co1b73L8CQpmrrSsGT3CMzbGLMkrx5IwbiHXnJ5hhSkqDvPTcJT25Mwd2PMtizeOeIZYhQ9KaKp67D+/XFpM/m7DTGYiTxVkwRij/+QtrORadjePAHL96ekc16nkK6LlhRnItNQsn8U7t8w7Kg8tjUOB1onYeuHE/DK3hF4pCqG7B9unyokDiBfi4oUZEN4qH0Knq5NwG/XDzsm8zbFoPRgSiJDcuI6vLx3xNQ28aGQP0VFimfqE/CbdVFHZH51DCqPpuCD7jRMc08fS/aMmGIcahOkmBU3xYnuNPxqXXRG8uT2OFSdHIeumPl3IC/tGTHFeU+QYlZwAhbVx+GXbw7ZlqX7khBsmYShlPVvSV/cnTTFea+tsN+GFsXycTyUhvvWDlmSuZujsPJwCo52TqFlwSq9/9SYNMV6V5DCaird01tYF4dfrB0ylMA7cVjXNAYXB6844sQLjUlDLOLHQUEKR/Kcs5GmUBp+tmYQyeLGBDScn4Bwwnx/kAswsa2HSdsOXhTLRy55dWwM2Rz+9I1BjYyl3f2uYvGuhAaPx/+3IIVj9bVtqHXwCvzkjQEktg3ZHPD8rjjCZP0QpLCZUCfVz/VNw49XDyBxEkPP1nM74wiT9eOAmCn00paftrN90/CjVf1I3EZ/tiGOMFk/9rcW9t9hFPQjKSHFvav6kbhNimca4giT9UOQwu0KmNgnpPjhP/uRmAxxpOuPDXGEyfoRFDOFI3nOyciZSBp+UHkZSU7GbAxatCOGMFk/gi1i+bCRTmdVCSm+X3kZibMo2NrTO2IIk/VjnyAFTlq+WpojaZhT0YfEbfyF9cMIk/VjryCF2yUwtk9I8b3yPiTGI5zpebJuGGGyfghSOJPnnKycjqThnpURJDkZszHoiboowmT92PO/cRvWZp9qQT+Sng6n4TtlESRupzlQG0WYrB+7BSncLoGx/VPhNNxdFkZiPMKZnsdrowiT9aNRkMKZROdihZDizn+EkeRiy86YBdujCJP1Q5DCTjYd1v0wPAXfer0XicMwyNxjNUMIk/Vj13/H0JhCaijoPQUhxTde60XidgHm1wwhTNaPnYIUbpfA2P7J3in4+t97kBiPcKbn0XcGESbrR8MFMVM4k+kcrHTFrsA9Fb3w1dJujeRgytaQR94e0ODx+IIUttLpvHJ0/BosqB2Er5R2q+I8itbiw28PqFgsLj3fIWYKbcJu1lX9hRTcXd4DX14Rct2Fh7YNSDgES0+IL4X8KeiNJp94MmvMrxmEyIjzf6zLYj24bQC+9GrIUOrOC1Kw+ZoV58vejcFtf+uCO8q64YGt/ZKU/ycBRI5emoATPZMwOoV/PW7VeWKT2DcSQQqrmcyjXnTsGtxeGoIvLu/KKveuDcO86n54bk8UVh5LQHXzKBzvmYTmPuPfgxJ9M9u1YqbIY7VtQK1uSsAXll9yROZWXwYiKw7HoexYHOas7jW1K0hho1D5VE1fvQF3lnfD50su5V1qzok9RT5rbQtr/QdJuHVZZ95lf5t4eWWrUPlUJrPFN8tC8Nm/duZNFjUO5TNEV7CK6pFUL0NvnkjAp//SkRf5+cYwECIW+qfoSUGK9LXXQ/CppR2uyl3l3TA05u77kXyRrehJQRK55kQCblnarsqKIzFYUNevXrN9uZzfWtIBpyKF/UtzlnCeIMXU1Rtw+2uX4JOvtEmy9cyIlIPzA2m4b0tYbaf9do91F0bZnBb8uSdIQaq0+ngCPvFymySUFLR6BzvG4duVIbWf6lk5vhCMUjNFc/QMKchscVdlF3z8zxfhLWWm4Ku44WQCbivtlHSIXjb5dVWEN1EU154hBalWY0sKPrakFd5qThoWj5Cn5FAUPlfSLukSfT25o6ILklPW//E0Q8BZ2OEpUpD8f3dVCKpMSEFrNJC6Cs/vG4SPvtSK5DPL2qEtWrz/UYznSLGrJQX/Om08U1BS0OPFaBrurw7DR15sUeVAe2G/saSxGR09RwqSiLP9xt+AGiXqSNc4zFkTgvL3Y0YqRdPuSVIUTfVcCkSQwqXEFrJZQYpCrp5Lvs+AFEEI+Hzg8wUg6JJzrprtrAC/5D+JQSv+ik5XoanxYECLK/kRuPnZzJ0UwQD4/H4psbMgDppn60eJFH7A9adk94FrcamE5G+oTqjwE6Lo+WU9tJlq5kgK2XlyR0ls91dAfu6tmYbLjDckhawj38VuFEchnQnjZGyeMIzvLp/mRgo2oWTGuMnMzilHbAy6BrIXT3dYlsbOCr+FJVfGztcyxrucEymkwNTZITNraIyrUyReN+VglakS3TG4XZ2NJAL6wKdiAwCPw/ZpHOIuspIC5FmQ3TNlwVL95KAAlJj8AQiQ5QHFjAagGThDJsUWsw/izckzDZN3XgHDaVpyIAVmccZhjW3ugiaGLjW4+PIA3K4GyQenFClzR+GxnBOZSwuk0MRlBUshLe8mJW4giHOXcUh7psGWuE9mGLzfkPXo/ofPMbEZhABySIvFX9knhd5yoSTMDFt2nl2jjQqI22VS8Gss1pOC0/OPj5pcWyYF8dkqlr6eFDuZwSzkibpqRAq9HGdmKJl0ejrUrpWjbVJkHGDN6ydD1UB3GekxGoPbdTGNEmzUrjqjnEh6LEl5BcIbZf03sqnTro5RzTGzg6KfmdlUJXTC2+Gv2QGZPiV3M9zj2SSFHCD/XJ+51kuy4iha63Hx5UBxuxkpMtjMGuqj0ymbOu7cAilUXKWYlrB4okgzF53llPxZuJVVbMXtTOG5ONSlhWLQvZCSDwtYvEVbpDBzjK6b/F0gjzEhC3LaHinQcD5Co+tspFCKK8XDF9rIptLOFlQ6Z5yUrtnNq64tZnZR+s1yb9in+K3ZmOviaRttkAIXS2tK6WdnhCzJZJOXsYXvJn29bP5kLOqeSb7pkZVo87HYxKL7miB5a8pj4Ph4//SIY//mUqxSX2y8SLJOiiwFllzQOGAhkZI+O9UrY8gum7+7WLLRLKLxpCMIAT1dOoYejUihxInuLltYchx+v1/7+KzB5h6tpT4aP08kur8hS0JmmSBDtATCTxr6NxR1RP9omRRacH1jUkGUgsr62nWersnsEiPfARm9QBCTyTQwpVjUNjkyfDJyFL/fUJ/7cUFUIzawaFxmvujliM2NisvuGyhpVX9ZkiizkNqnRzzWqv65ZVLoDxet+cqA4b7BBQcEKVxIqhsmBSncyGqB2xSkKPACuuG+IIUbWRU2LWdA7Cksp8o7ioIU3qm15UgFKSynyjuKghTeqbXlSAUpLKfKO4qCFN6pteVIBSksp8o7ioIU3qm15UgFKSynyjuK/wf9XY/FE8dPQAAAAABJRU5ErkJggg==;opacity=10;textOpacity=10;" parent="1" vertex="1">
                        <mxGeometry x="3445.85" y="2517.92" width="77.08" height="50.42" as="geometry"/>
                    </mxCell>
                </UserObject>
                <UserObject label="Power BI" tags="Icons" id="97">
                    <mxCell style="shape=image;verticalLabelPosition=bottom;labelBackgroundColor=default;verticalAlign=top;aspect=fixed;imageAspect=0;image=https://1000logos.net/wp-content/uploads/2022/08/Microsoft-Power-BI-Logo.png;fontSize=10;" parent="1" vertex="1">
                        <mxGeometry x="4078.13" y="2173" width="47.75" height="26.9" as="geometry"/>
                    </mxCell>
                </UserObject>
                <UserObject label="Application" tags="Icons" id="98">
                    <mxCell style="shape=image;verticalLabelPosition=bottom;labelBackgroundColor=default;verticalAlign=top;aspect=fixed;imageAspect=0;image=data:image/png,iVBORw0KGgoAAAANSUhEUgAAAGEAAABDCAYAAACMYmueAAADX0lEQVR4Ae2crZbyMBCGK5FIJBKJRHIJSCQSicRxCUgkEsklcAlIJJeAROY7b/dkN7tfhqTToXTayTnddkMz075PfobQpnBvSM/n010ul95s9/u9lopFrdJBYQi/Xq/dZDJxRVH0bhsMBm4+n5cVL5Al61AEwu126634sQq32+2yxPcn1YaAFtDX2h8D4POOx6PXOLmvDQHUvWPb/3TDw+HQPR6PJACcUBsC+kET/0f8UAsEJzmpNgQQDx3j2A9SANSHbTwe/6cBdNjv9zkM6reEvwDwPy6qT4nqknMH6NotwSA4ZxBa0OQMgkFw0QHJxoSvaMnGhAZbiHVHDYpNuTIIlDIN5r8NAqZnc6ajYyHqaDQiy9ad9m1Q22xXohAwGbfdbh1EjIkrlQf78AN/XUhiED4xHY3ZV/jVnkQgoEZOp9O31n6qFc1mM/UtQgQCJpookZrIPxwOqhuDCITlcvlRCPCvOYlAoLoi6WlodD2xlgX/mpMIBGo+XFoYhKcxCNqnOQyCdE1h2DMIDNGkixgEaUUZ9gwCQzTpIgZBWlGGPYPAEE26iEGQVpRhzyAwRJMuYhCkFWXYMwgM0aSLGARpRRn2DAJDNOkiBkFaUYY9g8AQTbqIQZBWlGHPIDBEky5iEKQVZdgzCAzRpIsYBGlFGfZ6AQGPxOBG27pRL0/ienNS+bpU23/oX61W0QcEYg8NtCmvUxDwYnabxM29FlTunAegVbQE6lGZXDE+eV4OCBUQ0K9SXeYnBc71nQKhBoLWccGDegVCDQSt44KHgD0FQg0EzeNCCALLUFyv11+RqxoI2seFVyBUQdA+LvwF4d9SUgXhdDqp/L4Qih8e41UBJFUQsIhTeBNdOFYHARdMvdCiEQiiJZUQNptNZ1rDYrHQCeF8PncCAlZH88uzvRwTpKeOqVrsm2VZLRJ/MC5IX1fT9vC2rI+Mkt1RU/1sFQgJRio/ftkSDEIzTEsIVReXTTVfqtuhoMJ/n1MJAaM0JVAsPyVY1XkeHyWk7Hb18xICanZMbCovJUZVCPDf51RCQMRRZXkdye4IfnOXM+4qqBICbg4xK2JXqva/Iz+MlbsqcM59fUPAyYhdqfUnpCHATxgr51xsV8/5BcHfJMTBN9NUt8P5HHZNfK/01/4fWSeTbpR9hs4AAAAASUVORK5CYII=;textOpacity=10;opacity=10;" parent="1" vertex="1">
                        <mxGeometry x="4087" y="2325.9999999999995" width="30" height="20.72" as="geometry"/>
                    </mxCell>
                </UserObject>
                <UserObject label="Excel" tags="Icons" id="99">
                    <mxCell style="sketch=0;pointerEvents=1;shadow=0;dashed=0;html=1;strokeColor=none;fillColor=#505050;labelPosition=center;verticalLabelPosition=bottom;verticalAlign=top;outlineConnect=0;align=center;shape=mxgraph.office.services.excel_services;fontColor=#3F497B;fontSize=10;textOpacity=10;opacity=10;" parent="1" vertex="1">
                        <mxGeometry x="4078.13" y="2225" width="44" height="36" as="geometry"/>
                    </mxCell>
                </UserObject>
                <UserObject label="" tags="Icons" id="100">
                    <mxCell style="shape=image;verticalLabelPosition=bottom;labelBackgroundColor=default;verticalAlign=top;aspect=fixed;imageAspect=0;image=https://cf-assets.www.cloudflare.com/slt3lc6tev37/1L8hQWFqu3pcaYbEgFCMda/dbe76b83b11ae9d9e9e16aec607bcc1b/entra-id-logo.png;opacity=10;textOpacity=10;" parent="1" vertex="1">
                        <mxGeometry x="3310" y="2413.5400000000004" width="135.85" height="76.47" as="geometry"/>
                    </mxCell>
                </UserObject>
                <UserObject label="" tags="" id="101">
                    <mxCell style="rounded=0;whiteSpace=wrap;html=1;fontStyle=1;textOpacity=10;" parent="1" vertex="1">
                        <mxGeometry x="4060" y="1825" width="90" height="314" as="geometry"/>
                    </mxCell>
                </UserObject>
                <UserObject label="" tags="" id="102">
                    <mxCell style="rounded=0;whiteSpace=wrap;html=1;textOpacity=0;" parent="1" vertex="1">
                        <mxGeometry x="3289" y="2016" width="120" height="380" as="geometry"/>
                    </mxCell>
                </UserObject>
                <UserObject label="&lt;b&gt;&lt;font color=&quot;#3f497b&quot;&gt;Data Ingestion&amp;nbsp;&lt;br&gt;and&lt;br&gt;&amp;nbsp;Integration Services&lt;/font&gt;&lt;/b&gt;" tags="" id="103">
                    <mxCell style="text;html=1;align=center;verticalAlign=middle;resizable=0;points=[];autosize=1;strokeColor=none;fillColor=none;" parent="1" vertex="1">
                        <mxGeometry x="3277" y="2210" width="140" height="60" as="geometry"/>
                    </mxCell>
                </UserObject>
                <UserObject label="" tags="" id="104">
                    <mxCell style="rounded=0;whiteSpace=wrap;html=1;rotation=90;" parent="1" vertex="1">
                        <mxGeometry x="3561.25" y="1918.75" width="340.5" height="613" as="geometry"/>
                    </mxCell>
                </UserObject>
                <UserObject label="&lt;b&gt;&lt;font color=&quot;#3f497b&quot;&gt;Data Storage and&lt;br&gt;&amp;nbsp;Management&lt;/font&gt;&lt;/b&gt;" tags="Logical" id="105">
                    <mxCell style="text;html=1;align=center;verticalAlign=middle;resizable=0;points=[];autosize=1;strokeColor=none;fillColor=none;" parent="1" vertex="1">
                        <mxGeometry x="3655" y="2210" width="120" height="40" as="geometry"/>
                    </mxCell>
                </UserObject>
                <UserObject label="OneLake" tags="Icons" id="106">
                    <mxCell style="shape=image;verticalLabelPosition=bottom;labelBackgroundColor=none;verticalAlign=top;aspect=fixed;imageAspect=0;image=https://www.comset.co.uk/wp-content/uploads/2024/01/one-lake-logo2.png;fontSize=10;fillColor=#09555B;strokeColor=#BAC8D3;fontColor=#000000;container=0;imageBackground=default;" parent="1" vertex="1">
                        <mxGeometry x="3707" y="2283" width="41.5" height="42.5" as="geometry"/>
                    </mxCell>
                </UserObject>
                <UserObject label="" tags="Icons" id="107">
                    <mxCell style="shape=image;verticalLabelPosition=bottom;labelBackgroundColor=default;verticalAlign=top;aspect=fixed;imageAspect=0;image=https://www.jumpingrivers.com/blog/parquet-file-format-big-data-r/parquet-logo.png;" parent="1" vertex="1">
                        <mxGeometry x="3527" y="2294.9999999999995" width="60.72" height="40.51" as="geometry"/>
                    </mxCell>
                </UserObject>
                <UserObject label="" tags="Icons" id="108">
                    <mxCell style="shape=image;verticalLabelPosition=bottom;labelBackgroundColor=default;verticalAlign=top;aspect=fixed;imageAspect=0;image=https://www.databricks.com/wp-content/uploads/2019/09/delta-lake-logo.png;" parent="1" vertex="1">
                        <mxGeometry x="3876" y="2285" width="62.48" height="51" as="geometry"/>
                    </mxCell>
                </UserObject>
                <UserObject label="" tags="Arrows" id="145">
                    <mxCell style="edgeStyle=none;html=1;" edge="1" parent="1" source="109" target="110">
                        <mxGeometry relative="1" as="geometry"/>
                    </mxCell>
                </UserObject>
                <UserObject label="Raw" tags="Icons" id="109">
                    <mxCell style="shape=image;verticalLabelPosition=bottom;labelBackgroundColor=none;verticalAlign=top;aspect=fixed;imageAspect=0;image=data:image/png,iVBORw0KGgoAAAANSUhEUgAAAKAAAAClCAYAAADbAvaeAAAEDmlDQ1BrQ0dDb2xvclNwYWNlR2VuZXJpY1JHQgAAOI2NVV1oHFUUPpu5syskzoPUpqaSDv41lLRsUtGE2uj+ZbNt3CyTbLRBkMns3Z1pJjPj/KRpKT4UQRDBqOCT4P9bwSchaqvtiy2itFCiBIMo+ND6R6HSFwnruTOzu5O4a73L3PnmnO9+595z7t4LkLgsW5beJQIsGq4t5dPis8fmxMQ6dMF90A190C0rjpUqlSYBG+PCv9rt7yDG3tf2t/f/Z+uuUEcBiN2F2Kw4yiLiZQD+FcWyXYAEQfvICddi+AnEO2ycIOISw7UAVxieD/Cyz5mRMohfRSwoqoz+xNuIB+cj9loEB3Pw2448NaitKSLLRck2q5pOI9O9g/t/tkXda8Tbg0+PszB9FN8DuPaXKnKW4YcQn1Xk3HSIry5ps8UQ/2W5aQnxIwBdu7yFcgrxPsRjVXu8HOh0qao30cArp9SZZxDfg3h1wTzKxu5E/LUxX5wKdX5SnAzmDx4A4OIqLbB69yMesE1pKojLjVdoNsfyiPi45hZmAn3uLWdpOtfQOaVmikEs7ovj8hFWpz7EV6mel0L9Xy23FMYlPYZenAx0yDB1/PX6dledmQjikjkXCxqMJS9WtfFCyH9XtSekEF+2dH+P4tzITduTygGfv58a5VCTH5PtXD7EFZiNyUDBhHnsFTBgE0SQIA9pfFtgo6cKGuhooeilaKH41eDs38Ip+f4At1Rq/sjr6NEwQqb/I/DQqsLvaFUjvAx+eWirddAJZnAj1DFJL0mSg/gcIpPkMBkhoyCSJ8lTZIxk0TpKDjXHliJzZPO50dR5ASNSnzeLvIvod0HG/mdkmOC0z8VKnzcQ2M/Yz2vKldduXjp9bleLu0ZWn7vWc+l0JGcaai10yNrUnXLP/8Jf59ewX+c3Wgz+B34Df+vbVrc16zTMVgp9um9bxEfzPU5kPqUtVWxhs6OiWTVW+gIfywB9uXi7CGcGW/zk98k/kmvJ95IfJn/j3uQ+4c5zn3Kfcd+AyF3gLnJfcl9xH3OfR2rUee80a+6vo7EK5mmXUdyfQlrYLTwoZIU9wsPCZEtP6BWGhAlhL3p2N6sTjRdduwbHsG9kq32sgBepc+xurLPW4T9URpYGJ3ym4+8zA05u44QjST8ZIoVtu3qE7fWmdn5LPdqvgcZz8Ww8BWJ8X3w0PhQ/wnCDGd+LvlHs8dRy6bLLDuKMaZ20tZrqisPJ5ONiCq8yKhYM5cCgKOu66Lsc0aYOtZdo5QCwezI4wm9J/v0X23mlZXOfBjj8Jzv3WrY5D+CsA9D7aMs2gGfjve8ArD6mePZSeCfEYt8CONWDw8FXTxrPqx/r9Vt4biXeANh8vV7/+/16ffMD1N8AuKD/A/8leAvFY9bLAAAAOGVYSWZNTQAqAAAACAABh2kABAAAAAEAAAAaAAAAAAACoAIABAAAAAEAAACgoAMABAAAAAEAAAClAAAAAEzEtMMAABB8SURBVHgB7Z1rzFxVFYYRhLbcJBRCIdiPcisiUpSWm/yQSzVA1CalBlIDISlSJUgiKAYwBlL4ZRQxhNIAYuIfWiEE0GJCQDQGSgETKCjUYCkkUG5WCnIVfZ/4DZkOZ85Ze5+zz2VmreTNmTl7r7Xe9e49Z85lf/Nts42bK+AKuAKugCvgCrgCroAr4Aq4Aq6AK+AKuAKugCvgCrgCroAr4Aq4Aq6AK+AKuAKugCvgCrgCroAr4Aq4Aq6AK+AKuAKugCvgCrgCroAr4ApEKPCJCJ9RdZmlwk4Tjhb2nizyRW3XCL8V/jG5zzeuQKUKHKRotwofCv8dAtroQ183V6AyBb6hSFuEYRNvcD998XFzBUorcLEiDE4w63t83VyBaAWulKd1sg3rRww3VyBIAS66rhGGTarQ/cTyC7mgIRjfztup9JuF0ElW1P8mxSS2myswVIHt1bJSKJpMse3EJoebK/AxBaZpD/fxYieX1Y8c5HJzBT5SYBe9+oNgnURl+5GLnG6uwDa7S4OHhZhJxVdq7Fc2OcntNsYKzFDtTwgxk48LFS4qyly0kBsObmOowIRqXi/ETL6fy6//tgqv2RcTCw5wcRsjBWar1ueFmAmzLEcn2mJibpQfnNzGQIE5qnGTEDNRvm/Qhz4xseEEN7cRVuAY1fZPIXSC/Ec+SwN0oS8+oXngBke3EVTgJNX0phA6Kd6Xz+IIPfDBNzQfHOHqNkIKfE21vCOETgZ8vl5CB3xj88LZbQQUOFM1xB6JTq6gfmLEHnnh7tZhBb4l7rHnYsdVWDexYs89qcGtgwpcJM6hX7n0f1k4IkG9xCR2DCdqceuQAleIa8xAc2/wkIR1Ejv2/iM1ubVcAZ5IxC4k/bt896uhPnKQK+YD4gtbaxig2BTbypFFnzEDu05+vT+xjM0f4kcucsZwpUZqdWuRAizyvFWIGdC18pveQC3kJHcMZ2r1ha0NDFpWyqnaGbuQ9AH57poVtKZ95IZDzCSkZmp3a1CBMgtJV4v3tAa591LDAS4xk/B++fnC1p6SNW9ZzLlGiBm4VfLboWa+eengAqeYWtDAF7bmqZugbYZiPiHEDNgv5bddAk5lQ8IJbjE1PS4/NHGrQYEJ5VgvxAzUtfLjVk1bDW5wjKkNTdDGLaECBys2izdjBihvIWlCylGhyyxsRSO3BArMUcxNQszk+0ECPqlDwjmmVjRCK7cKFThGsV4XQgeEn0tbWiGPukPBnRpC60YrNHOrQIETFWOLEDoILMFaXEH+pkNQA7WE1o9maOdWQoGvyvdtIVT8d+SzoETetrlSCzWF6oB2aOgWoUDTC0kjKCd18YWtSeXdOvi5ehuzkHSz/KpcSLo1q+bfURs1hh4J0RJN3QwKXKQ+oQLTn8WenzfE73oXavSFrYlG8QrFjZl8L8jvkESc2hiWWqk5Ris0dhtQgCcAPxNiBK1rIekA5cbf7icGsQtb0RrN3aQAiytvFGImX90LSds2YGUWtqI52o+1lVlI+oiUmz7W6v2/eDRAi5gP8K3yG9uFrVNV/N2Rwv1Rfk0uJFX6VhlaoEnMJGQMGIuxMhZR3i/ECNaWhaRtG7BpIlRmYevObSsoFR8WT64RYibfb+TXpoWkqTSKjYs2aBSjLWPC2Iy07aXqHhdiBLpFfm1cSCparTI0ukWI0ZixYYxG0maqqmeEGGF+IT+/bWCfFmiFZjFaM0aM1UhZmYWkV42UEvUWg3Yxk3Cj/EZmYevnVMxLkUJcIj+3cgqgYcwkZMwYu04bv3u8SQgVgEWY3+505e0ij5YxC1sZu87+djW3Wv4mhE4+Fl9+U3CrVgE0jVnYyhgylp2zFWIcOvlGbSFp2wYtdmErY9kpmyu2oYf8t+Qzv1NVdpMsGqN1yMGBsWRMO2N3iGlIgSyy/GJnqus+UbQOXdjKmHbCWKHxgWCdgOOykLRtgxe6sJUxZWxbb98RQ+vkG7eFpG0bvM+IUMjC1k7cmVhpnIBvqB8CuDWrAGPAWFgOGoxt6+1JMbQU86PWVzI+BBkLy5gxtq23f4mhpZiDWl/J+BBkLCxjxtg2YiELAfgTQMtS7+3VjxNbt+YV+KQocJO6yLgd08iKpJAJyCfJYiExLfG8TzkFWj1uliNaufLd2xXIUcAnYI443pReAZ+A6TX2DDkK+ATMEceb0ivgEzC9xp4hRwGfgDnieFN6BXwCptfYM+Qo4BMwRxxvSq+AT8D0GnuGHAV4VOM22gp8SeV9SuC58BeELwt7CJ0zy0Nt62OfzhU/QoT51vuK8Duhf0xbX2I/2bzXrS/ECX6kwEl69ZTQiQNH3qTrb/uoOn/RCQV2FMtfN8U0ZOWK9VMSErOpuj1vSxTwq+CWDMS40vAJOK4j35K6fQK2ZCDGlYZPwHEd+ZbU7ROwJQMxrjT8SUjcyM+U23nCPIGrfv6dwg3CBqENNiESPX7wWSvA7znedNX67/Xlve5qfVbep6hj1o8AsW+RNUjCfguH8Pu39p+aMG/y0HmTrr8tOZEGE8xR7neF/nr7X7+ntiMa5Hd4AT+489sxnbR+ofNed7I4I2l+SSqvdtpuN8ZK0W2Vgd9dKRLXEbNI+F57HVyayHGoklp+G5E/4J/VAMEJ5bT8ehk1HNYAv9IpexOsaFs6UUsD3CleRbX32q9voIbrAvjxb7w6Zz1xi7adK8xA+Ez1Kaq7v50jUZ1HGY7Oob8TvdhQd6u69Auc97pVpCsgc4BivCrk1ZzVdp986liYQY57I/i9Jp8Dhc5YlshZ+zpTkIHodPXhPwxl1WnZV8f/Q7m4BL/18u3M6miL4PQZFdtbhTwqWOvO6sfX4vEJBTlOsbn1k5Xbuu8x+e+TkGNloa0FVZawwUD87cRGwVpzXj++6lL8YuxsxY05Ncji+rxiHSm02rKIZ+1rdREF5PiNvEuFskeVQV1eUcyjCnKHNM9V55eFwTxl3lPz5QIatNKsxbWSvIEUj6nWCdY6Q/vxz3ouFMpcmOB7gfC2EJrf2v9JxT5NaJ1ZC2gd8RxC/Ev7swQe1lvrK9vvEeWaL4TayXKom+fZyolGrTCr8K0gO4QEq394VrtEuE14U7DWVXU//hrtMoFzL/4j+qCxjzb6cFSqOr81HhrxePFcAe34CebKLOTrAMIWC4lpiRfaZ6YclgrzhJ0FeCPajEkwCaswHuwvFJggx5YMyI1rLno2T8bhD8knhLJcH1SMqwQ+bFOEKgyumwT+7SvnjYw3k5Sj83KBOpKY9ROTJLkx6Onqx7IjK9fYfgjOOSO2p/CMEBsrlR+c4IbBFc6pcvXioj1jkMR6SYq2SZIbghYtlSribW1/UVwGb1nsr33st8ZI3Q8us4R+g3MdHPlmYCwqN6tolSc2BlylflaOsf0eUo6JIXwO1v5na+BQxB0OcMkyuFNDUYyy7SuzkpfdZyVVNk+sf1U3ZbPq5LznSqHonGwv9anzSnWQK7nhkGfUQC3UNOhf1XvGonKzkqs8sTFgqntja5T/aCMHuk0RfiJ8KFg1K9uPXOQkt9WoidrK5s7yZywqt6xEWfsqT2wMyDPNLD6x+zYo3mIh9qr+BPmuE2LzW/3IQa4YozZq3CBY81n6MRaVmyUxfZqy85XYyjGvH+dIZwhFX7eWOnmstUTg1kRezpg2YhK7ikdn1ErNVZ0fMhaVm1WkyhMbAzIQqwUrz/5+T8vvaoFFCCkMbguEe4T3hf7cIa/xJQaxqph4CvMxQwO0QJMQbr2+jEESbr0ERVvlb8y44bxM4IbuMJ6sTnlUWC6cI8wW6rTdlGyRsELgHGyLMIwrbfShLz741mlog0ZohWZoN4wrmqN90JMSzgGsRmKLhcS0xIvpgwjcithJ4I+EADdJX5jcatMaQy9uGPP0Y9dJVm9oy79QfUWw6j7pmnyzozLsK7DlSAfeErjxzRE6yEImi1WIkJhBZL3z6Cmw7eiV5BV1SQGfgF0arRHk6hNwBAe1SyVx/8ctXIGZcjlPmCdwzvuIcIOwQWiDTYhEjx981grwe443XTUuQizoan1W3qeoI1d9g1qwb5E1SMJ+CxU7ix93AViW1VkbFHzY+84WaCBetOTrPcU4whAnVZfDFfhdYdjY0Oa/jpVK/Rri3pEzuL1Bv70GHsNSrDLwu2uYc9v39wQu2ra9jlh+h8rRssLFfx0rVuECP+v6sSkFcbrafKeIF334eu3XN1DkdQH87m6AX+mUrxsLbPIcqHSRQwKcaay9NwH5sB42JFaK3RydQxc5LE5BJGXMvyh4T+C87bUpSTQQ+wDlfNVYe78u98mnjseS5Lg3gh8LCw4UOmO/EtN+gYe95pM4vzNV5ROdrmYesg+rtWj/JfnhK2m9uAS/9fLdoxIWNQQ5K6BQLvd/KOxSA69UKfZWYJYgFU2yvHY+jMenIqi4xwnc+snjUNT2mPz3ERqxkK8Ilgu9JEwNYIo4Twusa6vCblKQm6sIVBCDRZnccvl0QT9LM+fOTMK/WjoH9Jmtvn8WOEqXNZapLRD4wLXabhS7ok9UqvaHlTtosWOEkqxtu1Qoe1QZ1IB1fUdF8BnmMlcNLwuDecq8p+bLBTRore0vZu8IZQqN8eWr7LOJVTlV8dclrA3dLhRCvnXUfSvD9wLhbSFGR4vPk4p9mtBa+7GYWQqpss+KRGpwOsG57doaa2LhQsxF2skN8DxbOUNOudQ9vXGIfkCocoLlxfpQuTjfqcJY/cN9yiXCbcKbQl7ulG1PKfdlwpHCDsKgsY82+nBUSsklLzYa8XjxXAHtKj0Niv062F1E/iRwAzS1PaQExwYkmam+S4V5ws4C4iLajEkwCaswrvQXCkyQEH5ZuT/Qzo3C5slGLvgmhLJcH1SMqwQ+bFU9oYLrJuElgfNG5hCTlG+R5QJ11GJ7KAuTI+/TU0UbA2y109WRZUdV5M2LgeCcM2J7Cs8Ief2baIMT3DC4wjk1D7RnDGozviauEXgAn6q4E43VzFE/jkqpePTivqgcfDX2Gxdn7O/1aXoLl1n9BPUaznVwZAwYi1ptrrL9Xkgh/L7GSlYlyt9fE0f8iSF8+DPQZ2vg0M8n6zUc4JJlcK/jW2tlVvI69nFOuEx4WOD8IEug0H1TFcdiMc9rrVw477lSKDon20t96ryiHuRPbjjkGTVQCzUN+lf1nrEwWexFiCU4hfIkYTdhisVhSB8+sRbj3ph1slri9frwYfquwC8UWIxaOfH/npBS334uTJyfCpwv8xVosaPViYUjVd4g7+Xlnue03ptx2T6mQqv6BBNng7BYiJ1EJ8h3nVAlp6xY5CBXjFEbNW4QsmLH7mMsxs7OV8WxgvX7ccQ9Qyj6urUIzD3TJcJGoT9HFa+JSewqHp1RKzVTexXcGIuxMwZitRAj4NPyu1pgEUIKg9sC4R7hfSGGIz74EoNYVUw8hfmYoQFaoEkMT8YgFTeFbrdxw3mZsFkYJt5rantUWC6cI8wW6jTOiRcJKwTOK7cIw7jSRh/64oNvnYY2aIRWaIZ2w7iiOdozBmbjHGAUDRG4FbGTwD1KwE3SFya32rTGGANuGPP0Y9dJVm9oOxa/jjVZr29cAVfAFXAFXAFXwBVwBVwBV8AVcAVcAVfAFXAFXAFXwBVwBVwBV8AVGEEF/gdmWb8rEpz33AAAAABJRU5ErkJggg==;imageBackground=default;fontSize=10;backgroundOutline=0;imageBorder=none;fontColor=#000000;" parent="1" vertex="1">
                        <mxGeometry x="3603" y="2094" width="43.63" height="45" as="geometry"/>
                    </mxCell>
                </UserObject>
                <UserObject label="" tags="Arrows" id="146">
                    <mxCell style="edgeStyle=none;html=1;" edge="1" parent="1" source="110" target="111">
                        <mxGeometry relative="1" as="geometry"/>
                    </mxCell>
                </UserObject>
                <UserObject label="Curated" tags="Icons" id="110">
                    <mxCell style="shape=image;verticalLabelPosition=bottom;labelBackgroundColor=none;verticalAlign=top;aspect=fixed;imageAspect=0;image=data:image/png,iVBORw0KGgoAAAANSUhEUgAAAKAAAAClCAYAAADbAvaeAAAEDmlDQ1BrQ0dDb2xvclNwYWNlR2VuZXJpY1JHQgAAOI2NVV1oHFUUPpu5syskzoPUpqaSDv41lLRsUtGE2uj+ZbNt3CyTbLRBkMns3Z1pJjPj/KRpKT4UQRDBqOCT4P9bwSchaqvtiy2itFCiBIMo+ND6R6HSFwnruTOzu5O4a73L3PnmnO9+595z7t4LkLgsW5beJQIsGq4t5dPis8fmxMQ6dMF90A190C0rjpUqlSYBG+PCv9rt7yDG3tf2t/f/Z+uuUEcBiN2F2Kw4yiLiZQD+FcWyXYAEQfvICddi+AnEO2ycIOISw7UAVxieD/Cyz5mRMohfRSwoqoz+xNuIB+cj9loEB3Pw2448NaitKSLLRck2q5pOI9O9g/t/tkXda8Tbg0+PszB9FN8DuPaXKnKW4YcQn1Xk3HSIry5ps8UQ/2W5aQnxIwBdu7yFcgrxPsRjVXu8HOh0qao30cArp9SZZxDfg3h1wTzKxu5E/LUxX5wKdX5SnAzmDx4A4OIqLbB69yMesE1pKojLjVdoNsfyiPi45hZmAn3uLWdpOtfQOaVmikEs7ovj8hFWpz7EV6mel0L9Xy23FMYlPYZenAx0yDB1/PX6dledmQjikjkXCxqMJS9WtfFCyH9XtSekEF+2dH+P4tzITduTygGfv58a5VCTH5PtXD7EFZiNyUDBhHnsFTBgE0SQIA9pfFtgo6cKGuhooeilaKH41eDs38Ip+f4At1Rq/sjr6NEwQqb/I/DQqsLvaFUjvAx+eWirddAJZnAj1DFJL0mSg/gcIpPkMBkhoyCSJ8lTZIxk0TpKDjXHliJzZPO50dR5ASNSnzeLvIvod0HG/mdkmOC0z8VKnzcQ2M/Yz2vKldduXjp9bleLu0ZWn7vWc+l0JGcaai10yNrUnXLP/8Jf59ewX+c3Wgz+B34Df+vbVrc16zTMVgp9um9bxEfzPU5kPqUtVWxhs6OiWTVW+gIfywB9uXi7CGcGW/zk98k/kmvJ95IfJn/j3uQ+4c5zn3Kfcd+AyF3gLnJfcl9xH3OfR2rUee80a+6vo7EK5mmXUdyfQlrYLTwoZIU9wsPCZEtP6BWGhAlhL3p2N6sTjRdduwbHsG9kq32sgBepc+xurLPW4T9URpYGJ3ym4+8zA05u44QjST8ZIoVtu3qE7fWmdn5LPdqvgcZz8Ww8BWJ8X3w0PhQ/wnCDGd+LvlHs8dRy6bLLDuKMaZ20tZrqisPJ5ONiCq8yKhYM5cCgKOu66Lsc0aYOtZdo5QCwezI4wm9J/v0X23mlZXOfBjj8Jzv3WrY5D+CsA9D7aMs2gGfjve8ArD6mePZSeCfEYt8CONWDw8FXTxrPqx/r9Vt4biXeANh8vV7/+/16ffMD1N8AuKD/A/8leAvFY9bLAAAAOGVYSWZNTQAqAAAACAABh2kABAAAAAEAAAAaAAAAAAACoAIABAAAAAEAAACgoAMABAAAAAEAAAClAAAAAEzEtMMAABB8SURBVHgB7Z1rzFxVFYYRhLbcJBRCIdiPcisiUpSWm/yQSzVA1CalBlIDISlSJUgiKAYwBlL4ZRQxhNIAYuIfWiEE0GJCQDQGSgETKCjUYCkkUG5WCnIVfZ/4DZkOZ85Ze5+zz2VmreTNmTl7r7Xe9e49Z85lf/Nts42bK+AKuAKugCvgCrgCroAr4Aq4Aq6AK+AKuAKugCvgCrgCroAr4Aq4Aq6AK+AKuAKugCvgCrgCroAr4Aq4Aq6AK+AKuAKugCvgCrgCroAr4ApEKPCJCJ9RdZmlwk4Tjhb2nizyRW3XCL8V/jG5zzeuQKUKHKRotwofCv8dAtroQ183V6AyBb6hSFuEYRNvcD998XFzBUorcLEiDE4w63t83VyBaAWulKd1sg3rRww3VyBIAS66rhGGTarQ/cTyC7mgIRjfztup9JuF0ElW1P8mxSS2myswVIHt1bJSKJpMse3EJoebK/AxBaZpD/fxYieX1Y8c5HJzBT5SYBe9+oNgnURl+5GLnG6uwDa7S4OHhZhJxVdq7Fc2OcntNsYKzFDtTwgxk48LFS4qyly0kBsObmOowIRqXi/ETL6fy6//tgqv2RcTCw5wcRsjBWar1ueFmAmzLEcn2mJibpQfnNzGQIE5qnGTEDNRvm/Qhz4xseEEN7cRVuAY1fZPIXSC/Ec+SwN0oS8+oXngBke3EVTgJNX0phA6Kd6Xz+IIPfDBNzQfHOHqNkIKfE21vCOETgZ8vl5CB3xj88LZbQQUOFM1xB6JTq6gfmLEHnnh7tZhBb4l7rHnYsdVWDexYs89qcGtgwpcJM6hX7n0f1k4IkG9xCR2DCdqceuQAleIa8xAc2/wkIR1Ejv2/iM1ubVcAZ5IxC4k/bt896uhPnKQK+YD4gtbaxig2BTbypFFnzEDu05+vT+xjM0f4kcucsZwpUZqdWuRAizyvFWIGdC18pveQC3kJHcMZ2r1ha0NDFpWyqnaGbuQ9AH57poVtKZ95IZDzCSkZmp3a1CBMgtJV4v3tAa591LDAS4xk/B++fnC1p6SNW9ZzLlGiBm4VfLboWa+eengAqeYWtDAF7bmqZugbYZiPiHEDNgv5bddAk5lQ8IJbjE1PS4/NHGrQYEJ5VgvxAzUtfLjVk1bDW5wjKkNTdDGLaECBys2izdjBihvIWlCylGhyyxsRSO3BArMUcxNQszk+0ECPqlDwjmmVjRCK7cKFThGsV4XQgeEn0tbWiGPukPBnRpC60YrNHOrQIETFWOLEDoILMFaXEH+pkNQA7WE1o9maOdWQoGvyvdtIVT8d+SzoETetrlSCzWF6oB2aOgWoUDTC0kjKCd18YWtSeXdOvi5ehuzkHSz/KpcSLo1q+bfURs1hh4J0RJN3QwKXKQ+oQLTn8WenzfE73oXavSFrYlG8QrFjZl8L8jvkESc2hiWWqk5Ris0dhtQgCcAPxNiBK1rIekA5cbf7icGsQtb0RrN3aQAiytvFGImX90LSds2YGUWtqI52o+1lVlI+oiUmz7W6v2/eDRAi5gP8K3yG9uFrVNV/N2Rwv1Rfk0uJFX6VhlaoEnMJGQMGIuxMhZR3i/ECNaWhaRtG7BpIlRmYevObSsoFR8WT64RYibfb+TXpoWkqTSKjYs2aBSjLWPC2Iy07aXqHhdiBLpFfm1cSCparTI0ukWI0ZixYYxG0maqqmeEGGF+IT+/bWCfFmiFZjFaM0aM1UhZmYWkV42UEvUWg3Yxk3Cj/EZmYevnVMxLkUJcIj+3cgqgYcwkZMwYu04bv3u8SQgVgEWY3+505e0ij5YxC1sZu87+djW3Wv4mhE4+Fl9+U3CrVgE0jVnYyhgylp2zFWIcOvlGbSFp2wYtdmErY9kpmyu2oYf8t+Qzv1NVdpMsGqN1yMGBsWRMO2N3iGlIgSyy/GJnqus+UbQOXdjKmHbCWKHxgWCdgOOykLRtgxe6sJUxZWxbb98RQ+vkG7eFpG0bvM+IUMjC1k7cmVhpnIBvqB8CuDWrAGPAWFgOGoxt6+1JMbQU86PWVzI+BBkLy5gxtq23f4mhpZiDWl/J+BBkLCxjxtg2YiELAfgTQMtS7+3VjxNbt+YV+KQocJO6yLgd08iKpJAJyCfJYiExLfG8TzkFWj1uliNaufLd2xXIUcAnYI443pReAZ+A6TX2DDkK+ATMEceb0ivgEzC9xp4hRwGfgDnieFN6BXwCptfYM+Qo4BMwRxxvSq+AT8D0GnuGHAV4VOM22gp8SeV9SuC58BeELwt7CJ0zy0Nt62OfzhU/QoT51vuK8Duhf0xbX2I/2bzXrS/ECX6kwEl69ZTQiQNH3qTrb/uoOn/RCQV2FMtfN8U0ZOWK9VMSErOpuj1vSxTwq+CWDMS40vAJOK4j35K6fQK2ZCDGlYZPwHEd+ZbU7ROwJQMxrjT8SUjcyM+U23nCPIGrfv6dwg3CBqENNiESPX7wWSvA7znedNX67/Xlve5qfVbep6hj1o8AsW+RNUjCfguH8Pu39p+aMG/y0HmTrr8tOZEGE8xR7neF/nr7X7+ntiMa5Hd4AT+489sxnbR+ofNed7I4I2l+SSqvdtpuN8ZK0W2Vgd9dKRLXEbNI+F57HVyayHGoklp+G5E/4J/VAMEJ5bT8ehk1HNYAv9IpexOsaFs6UUsD3CleRbX32q9voIbrAvjxb7w6Zz1xi7adK8xA+Ez1Kaq7v50jUZ1HGY7Oob8TvdhQd6u69Auc97pVpCsgc4BivCrk1ZzVdp986liYQY57I/i9Jp8Dhc5YlshZ+zpTkIHodPXhPwxl1WnZV8f/Q7m4BL/18u3M6miL4PQZFdtbhTwqWOvO6sfX4vEJBTlOsbn1k5Xbuu8x+e+TkGNloa0FVZawwUD87cRGwVpzXj++6lL8YuxsxY05Ncji+rxiHSm02rKIZ+1rdREF5PiNvEuFskeVQV1eUcyjCnKHNM9V55eFwTxl3lPz5QIatNKsxbWSvIEUj6nWCdY6Q/vxz3ouFMpcmOB7gfC2EJrf2v9JxT5NaJ1ZC2gd8RxC/Ev7swQe1lvrK9vvEeWaL4TayXKom+fZyolGrTCr8K0gO4QEq394VrtEuE14U7DWVXU//hrtMoFzL/4j+qCxjzb6cFSqOr81HhrxePFcAe34CebKLOTrAMIWC4lpiRfaZ6YclgrzhJ0FeCPajEkwCaswHuwvFJggx5YMyI1rLno2T8bhD8knhLJcH1SMqwQ+bFOEKgyumwT+7SvnjYw3k5Sj83KBOpKY9ROTJLkx6Onqx7IjK9fYfgjOOSO2p/CMEBsrlR+c4IbBFc6pcvXioj1jkMR6SYq2SZIbghYtlSribW1/UVwGb1nsr33st8ZI3Q8us4R+g3MdHPlmYCwqN6tolSc2BlylflaOsf0eUo6JIXwO1v5na+BQxB0OcMkyuFNDUYyy7SuzkpfdZyVVNk+sf1U3ZbPq5LznSqHonGwv9anzSnWQK7nhkGfUQC3UNOhf1XvGonKzkqs8sTFgqntja5T/aCMHuk0RfiJ8KFg1K9uPXOQkt9WoidrK5s7yZywqt6xEWfsqT2wMyDPNLD6x+zYo3mIh9qr+BPmuE2LzW/3IQa4YozZq3CBY81n6MRaVmyUxfZqy85XYyjGvH+dIZwhFX7eWOnmstUTg1kRezpg2YhK7ikdn1ErNVZ0fMhaVm1WkyhMbAzIQqwUrz/5+T8vvaoFFCCkMbguEe4T3hf7cIa/xJQaxqph4CvMxQwO0QJMQbr2+jEESbr0ERVvlb8y44bxM4IbuMJ6sTnlUWC6cI8wW6rTdlGyRsELgHGyLMIwrbfShLz741mlog0ZohWZoN4wrmqN90JMSzgGsRmKLhcS0xIvpgwjcithJ4I+EADdJX5jcatMaQy9uGPP0Y9dJVm9oy79QfUWw6j7pmnyzozLsK7DlSAfeErjxzRE6yEImi1WIkJhBZL3z6Cmw7eiV5BV1SQGfgF0arRHk6hNwBAe1SyVx/8ctXIGZcjlPmCdwzvuIcIOwQWiDTYhEjx981grwe443XTUuQizoan1W3qeoI1d9g1qwb5E1SMJ+CxU7ix93AViW1VkbFHzY+84WaCBetOTrPcU4whAnVZfDFfhdYdjY0Oa/jpVK/Rri3pEzuL1Bv70GHsNSrDLwu2uYc9v39wQu2ra9jlh+h8rRssLFfx0rVuECP+v6sSkFcbrafKeIF334eu3XN1DkdQH87m6AX+mUrxsLbPIcqHSRQwKcaay9NwH5sB42JFaK3RydQxc5LE5BJGXMvyh4T+C87bUpSTQQ+wDlfNVYe78u98mnjseS5Lg3gh8LCw4UOmO/EtN+gYe95pM4vzNV5ROdrmYesg+rtWj/JfnhK2m9uAS/9fLdoxIWNQQ5K6BQLvd/KOxSA69UKfZWYJYgFU2yvHY+jMenIqi4xwnc+snjUNT2mPz3ERqxkK8Ilgu9JEwNYIo4Twusa6vCblKQm6sIVBCDRZnccvl0QT9LM+fOTMK/WjoH9Jmtvn8WOEqXNZapLRD4wLXabhS7ok9UqvaHlTtosWOEkqxtu1Qoe1QZ1IB1fUdF8BnmMlcNLwuDecq8p+bLBTRore0vZu8IZQqN8eWr7LOJVTlV8dclrA3dLhRCvnXUfSvD9wLhbSFGR4vPk4p9mtBa+7GYWQqpss+KRGpwOsG57doaa2LhQsxF2skN8DxbOUNOudQ9vXGIfkCocoLlxfpQuTjfqcJY/cN9yiXCbcKbQl7ulG1PKfdlwpHCDsKgsY82+nBUSsklLzYa8XjxXAHtKj0Niv062F1E/iRwAzS1PaQExwYkmam+S4V5ws4C4iLajEkwCaswrvQXCkyQEH5ZuT/Qzo3C5slGLvgmhLJcH1SMqwQ+bFU9oYLrJuElgfNG5hCTlG+R5QJ11GJ7KAuTI+/TU0UbA2y109WRZUdV5M2LgeCcM2J7Cs8Ief2baIMT3DC4wjk1D7RnDGozviauEXgAn6q4E43VzFE/jkqpePTivqgcfDX2Gxdn7O/1aXoLl1n9BPUaznVwZAwYi1ptrrL9Xkgh/L7GSlYlyt9fE0f8iSF8+DPQZ2vg0M8n6zUc4JJlcK/jW2tlVvI69nFOuEx4WOD8IEug0H1TFcdiMc9rrVw477lSKDon20t96ryiHuRPbjjkGTVQCzUN+lf1nrEwWexFiCU4hfIkYTdhisVhSB8+sRbj3ph1slri9frwYfquwC8UWIxaOfH/npBS334uTJyfCpwv8xVosaPViYUjVd4g7+Xlnue03ptx2T6mQqv6BBNng7BYiJ1EJ8h3nVAlp6xY5CBXjFEbNW4QsmLH7mMsxs7OV8WxgvX7ccQ9Qyj6urUIzD3TJcJGoT9HFa+JSewqHp1RKzVTexXcGIuxMwZitRAj4NPyu1pgEUIKg9sC4R7hfSGGIz74EoNYVUw8hfmYoQFaoEkMT8YgFTeFbrdxw3mZsFkYJt5rantUWC6cI8wW6jTOiRcJKwTOK7cIw7jSRh/64oNvnYY2aIRWaIZ2w7iiOdozBmbjHGAUDRG4FbGTwD1KwE3SFya32rTGGANuGPP0Y9dJVm9oOxa/jjVZr29cAVfAFXAFXAFXwBVwBVwBV8AVcAVcAVfAFXAFXAFXwBVwBVwBV8AVGEEF/gdmWb8rEpz33AAAAABJRU5ErkJggg==;imageBackground=default;fontSize=10;backgroundOutline=0;imageBorder=none;fontColor=#000000;" parent="1" vertex="1">
                        <mxGeometry x="3697.37" y="2094" width="43.63" height="45" as="geometry"/>
                    </mxCell>
                </UserObject>
                <UserObject label="" tags="Arrows" id="147">
                    <mxCell style="edgeStyle=none;html=1;" edge="1" parent="1" source="111" target="97">
                        <mxGeometry relative="1" as="geometry"/>
                    </mxCell>
                </UserObject>
                <UserObject label="Enriched" tags="Icons" id="111">
                    <mxCell style="shape=image;verticalLabelPosition=bottom;labelBackgroundColor=none;verticalAlign=top;aspect=fixed;imageAspect=0;image=data:image/png,iVBORw0KGgoAAAANSUhEUgAAAKAAAAClCAYAAADbAvaeAAAEDmlDQ1BrQ0dDb2xvclNwYWNlR2VuZXJpY1JHQgAAOI2NVV1oHFUUPpu5syskzoPUpqaSDv41lLRsUtGE2uj+ZbNt3CyTbLRBkMns3Z1pJjPj/KRpKT4UQRDBqOCT4P9bwSchaqvtiy2itFCiBIMo+ND6R6HSFwnruTOzu5O4a73L3PnmnO9+595z7t4LkLgsW5beJQIsGq4t5dPis8fmxMQ6dMF90A190C0rjpUqlSYBG+PCv9rt7yDG3tf2t/f/Z+uuUEcBiN2F2Kw4yiLiZQD+FcWyXYAEQfvICddi+AnEO2ycIOISw7UAVxieD/Cyz5mRMohfRSwoqoz+xNuIB+cj9loEB3Pw2448NaitKSLLRck2q5pOI9O9g/t/tkXda8Tbg0+PszB9FN8DuPaXKnKW4YcQn1Xk3HSIry5ps8UQ/2W5aQnxIwBdu7yFcgrxPsRjVXu8HOh0qao30cArp9SZZxDfg3h1wTzKxu5E/LUxX5wKdX5SnAzmDx4A4OIqLbB69yMesE1pKojLjVdoNsfyiPi45hZmAn3uLWdpOtfQOaVmikEs7ovj8hFWpz7EV6mel0L9Xy23FMYlPYZenAx0yDB1/PX6dledmQjikjkXCxqMJS9WtfFCyH9XtSekEF+2dH+P4tzITduTygGfv58a5VCTH5PtXD7EFZiNyUDBhHnsFTBgE0SQIA9pfFtgo6cKGuhooeilaKH41eDs38Ip+f4At1Rq/sjr6NEwQqb/I/DQqsLvaFUjvAx+eWirddAJZnAj1DFJL0mSg/gcIpPkMBkhoyCSJ8lTZIxk0TpKDjXHliJzZPO50dR5ASNSnzeLvIvod0HG/mdkmOC0z8VKnzcQ2M/Yz2vKldduXjp9bleLu0ZWn7vWc+l0JGcaai10yNrUnXLP/8Jf59ewX+c3Wgz+B34Df+vbVrc16zTMVgp9um9bxEfzPU5kPqUtVWxhs6OiWTVW+gIfywB9uXi7CGcGW/zk98k/kmvJ95IfJn/j3uQ+4c5zn3Kfcd+AyF3gLnJfcl9xH3OfR2rUee80a+6vo7EK5mmXUdyfQlrYLTwoZIU9wsPCZEtP6BWGhAlhL3p2N6sTjRdduwbHsG9kq32sgBepc+xurLPW4T9URpYGJ3ym4+8zA05u44QjST8ZIoVtu3qE7fWmdn5LPdqvgcZz8Ww8BWJ8X3w0PhQ/wnCDGd+LvlHs8dRy6bLLDuKMaZ20tZrqisPJ5ONiCq8yKhYM5cCgKOu66Lsc0aYOtZdo5QCwezI4wm9J/v0X23mlZXOfBjj8Jzv3WrY5D+CsA9D7aMs2gGfjve8ArD6mePZSeCfEYt8CONWDw8FXTxrPqx/r9Vt4biXeANh8vV7/+/16ffMD1N8AuKD/A/8leAvFY9bLAAAAOGVYSWZNTQAqAAAACAABh2kABAAAAAEAAAAaAAAAAAACoAIABAAAAAEAAACgoAMABAAAAAEAAAClAAAAAEzEtMMAABB8SURBVHgB7Z1rzFxVFYYRhLbcJBRCIdiPcisiUpSWm/yQSzVA1CalBlIDISlSJUgiKAYwBlL4ZRQxhNIAYuIfWiEE0GJCQDQGSgETKCjUYCkkUG5WCnIVfZ/4DZkOZ85Ze5+zz2VmreTNmTl7r7Xe9e49Z85lf/Nts42bK+AKuAKugCvgCrgCroAr4Aq4Aq6AK+AKuAKugCvgCrgCroAr4Aq4Aq6AK+AKuAKugCvgCrgCroAr4Aq4Aq6AK+AKuAKugCvgCrgCroAr4ApEKPCJCJ9RdZmlwk4Tjhb2nizyRW3XCL8V/jG5zzeuQKUKHKRotwofCv8dAtroQ183V6AyBb6hSFuEYRNvcD998XFzBUorcLEiDE4w63t83VyBaAWulKd1sg3rRww3VyBIAS66rhGGTarQ/cTyC7mgIRjfztup9JuF0ElW1P8mxSS2myswVIHt1bJSKJpMse3EJoebK/AxBaZpD/fxYieX1Y8c5HJzBT5SYBe9+oNgnURl+5GLnG6uwDa7S4OHhZhJxVdq7Fc2OcntNsYKzFDtTwgxk48LFS4qyly0kBsObmOowIRqXi/ETL6fy6//tgqv2RcTCw5wcRsjBWar1ueFmAmzLEcn2mJibpQfnNzGQIE5qnGTEDNRvm/Qhz4xseEEN7cRVuAY1fZPIXSC/Ec+SwN0oS8+oXngBke3EVTgJNX0phA6Kd6Xz+IIPfDBNzQfHOHqNkIKfE21vCOETgZ8vl5CB3xj88LZbQQUOFM1xB6JTq6gfmLEHnnh7tZhBb4l7rHnYsdVWDexYs89qcGtgwpcJM6hX7n0f1k4IkG9xCR2DCdqceuQAleIa8xAc2/wkIR1Ejv2/iM1ubVcAZ5IxC4k/bt896uhPnKQK+YD4gtbaxig2BTbypFFnzEDu05+vT+xjM0f4kcucsZwpUZqdWuRAizyvFWIGdC18pveQC3kJHcMZ2r1ha0NDFpWyqnaGbuQ9AH57poVtKZ95IZDzCSkZmp3a1CBMgtJV4v3tAa591LDAS4xk/B++fnC1p6SNW9ZzLlGiBm4VfLboWa+eengAqeYWtDAF7bmqZugbYZiPiHEDNgv5bddAk5lQ8IJbjE1PS4/NHGrQYEJ5VgvxAzUtfLjVk1bDW5wjKkNTdDGLaECBys2izdjBihvIWlCylGhyyxsRSO3BArMUcxNQszk+0ECPqlDwjmmVjRCK7cKFThGsV4XQgeEn0tbWiGPukPBnRpC60YrNHOrQIETFWOLEDoILMFaXEH+pkNQA7WE1o9maOdWQoGvyvdtIVT8d+SzoETetrlSCzWF6oB2aOgWoUDTC0kjKCd18YWtSeXdOvi5ehuzkHSz/KpcSLo1q+bfURs1hh4J0RJN3QwKXKQ+oQLTn8WenzfE73oXavSFrYlG8QrFjZl8L8jvkESc2hiWWqk5Ris0dhtQgCcAPxNiBK1rIekA5cbf7icGsQtb0RrN3aQAiytvFGImX90LSds2YGUWtqI52o+1lVlI+oiUmz7W6v2/eDRAi5gP8K3yG9uFrVNV/N2Rwv1Rfk0uJFX6VhlaoEnMJGQMGIuxMhZR3i/ECNaWhaRtG7BpIlRmYevObSsoFR8WT64RYibfb+TXpoWkqTSKjYs2aBSjLWPC2Iy07aXqHhdiBLpFfm1cSCparTI0ukWI0ZixYYxG0maqqmeEGGF+IT+/bWCfFmiFZjFaM0aM1UhZmYWkV42UEvUWg3Yxk3Cj/EZmYevnVMxLkUJcIj+3cgqgYcwkZMwYu04bv3u8SQgVgEWY3+505e0ij5YxC1sZu87+djW3Wv4mhE4+Fl9+U3CrVgE0jVnYyhgylp2zFWIcOvlGbSFp2wYtdmErY9kpmyu2oYf8t+Qzv1NVdpMsGqN1yMGBsWRMO2N3iGlIgSyy/GJnqus+UbQOXdjKmHbCWKHxgWCdgOOykLRtgxe6sJUxZWxbb98RQ+vkG7eFpG0bvM+IUMjC1k7cmVhpnIBvqB8CuDWrAGPAWFgOGoxt6+1JMbQU86PWVzI+BBkLy5gxtq23f4mhpZiDWl/J+BBkLCxjxtg2YiELAfgTQMtS7+3VjxNbt+YV+KQocJO6yLgd08iKpJAJyCfJYiExLfG8TzkFWj1uliNaufLd2xXIUcAnYI443pReAZ+A6TX2DDkK+ATMEceb0ivgEzC9xp4hRwGfgDnieFN6BXwCptfYM+Qo4BMwRxxvSq+AT8D0GnuGHAV4VOM22gp8SeV9SuC58BeELwt7CJ0zy0Nt62OfzhU/QoT51vuK8Duhf0xbX2I/2bzXrS/ECX6kwEl69ZTQiQNH3qTrb/uoOn/RCQV2FMtfN8U0ZOWK9VMSErOpuj1vSxTwq+CWDMS40vAJOK4j35K6fQK2ZCDGlYZPwHEd+ZbU7ROwJQMxrjT8SUjcyM+U23nCPIGrfv6dwg3CBqENNiESPX7wWSvA7znedNX67/Xlve5qfVbep6hj1o8AsW+RNUjCfguH8Pu39p+aMG/y0HmTrr8tOZEGE8xR7neF/nr7X7+ntiMa5Hd4AT+489sxnbR+ofNed7I4I2l+SSqvdtpuN8ZK0W2Vgd9dKRLXEbNI+F57HVyayHGoklp+G5E/4J/VAMEJ5bT8ehk1HNYAv9IpexOsaFs6UUsD3CleRbX32q9voIbrAvjxb7w6Zz1xi7adK8xA+Ez1Kaq7v50jUZ1HGY7Oob8TvdhQd6u69Auc97pVpCsgc4BivCrk1ZzVdp986liYQY57I/i9Jp8Dhc5YlshZ+zpTkIHodPXhPwxl1WnZV8f/Q7m4BL/18u3M6miL4PQZFdtbhTwqWOvO6sfX4vEJBTlOsbn1k5Xbuu8x+e+TkGNloa0FVZawwUD87cRGwVpzXj++6lL8YuxsxY05Ncji+rxiHSm02rKIZ+1rdREF5PiNvEuFskeVQV1eUcyjCnKHNM9V55eFwTxl3lPz5QIatNKsxbWSvIEUj6nWCdY6Q/vxz3ouFMpcmOB7gfC2EJrf2v9JxT5NaJ1ZC2gd8RxC/Ev7swQe1lvrK9vvEeWaL4TayXKom+fZyolGrTCr8K0gO4QEq394VrtEuE14U7DWVXU//hrtMoFzL/4j+qCxjzb6cFSqOr81HhrxePFcAe34CebKLOTrAMIWC4lpiRfaZ6YclgrzhJ0FeCPajEkwCaswHuwvFJggx5YMyI1rLno2T8bhD8knhLJcH1SMqwQ+bFOEKgyumwT+7SvnjYw3k5Sj83KBOpKY9ROTJLkx6Onqx7IjK9fYfgjOOSO2p/CMEBsrlR+c4IbBFc6pcvXioj1jkMR6SYq2SZIbghYtlSribW1/UVwGb1nsr33st8ZI3Q8us4R+g3MdHPlmYCwqN6tolSc2BlylflaOsf0eUo6JIXwO1v5na+BQxB0OcMkyuFNDUYyy7SuzkpfdZyVVNk+sf1U3ZbPq5LznSqHonGwv9anzSnWQK7nhkGfUQC3UNOhf1XvGonKzkqs8sTFgqntja5T/aCMHuk0RfiJ8KFg1K9uPXOQkt9WoidrK5s7yZywqt6xEWfsqT2wMyDPNLD6x+zYo3mIh9qr+BPmuE2LzW/3IQa4YozZq3CBY81n6MRaVmyUxfZqy85XYyjGvH+dIZwhFX7eWOnmstUTg1kRezpg2YhK7ikdn1ErNVZ0fMhaVm1WkyhMbAzIQqwUrz/5+T8vvaoFFCCkMbguEe4T3hf7cIa/xJQaxqph4CvMxQwO0QJMQbr2+jEESbr0ERVvlb8y44bxM4IbuMJ6sTnlUWC6cI8wW6rTdlGyRsELgHGyLMIwrbfShLz741mlog0ZohWZoN4wrmqN90JMSzgGsRmKLhcS0xIvpgwjcithJ4I+EADdJX5jcatMaQy9uGPP0Y9dJVm9oy79QfUWw6j7pmnyzozLsK7DlSAfeErjxzRE6yEImi1WIkJhBZL3z6Cmw7eiV5BV1SQGfgF0arRHk6hNwBAe1SyVx/8ctXIGZcjlPmCdwzvuIcIOwQWiDTYhEjx981grwe443XTUuQizoan1W3qeoI1d9g1qwb5E1SMJ+CxU7ix93AViW1VkbFHzY+84WaCBetOTrPcU4whAnVZfDFfhdYdjY0Oa/jpVK/Rri3pEzuL1Bv70GHsNSrDLwu2uYc9v39wQu2ra9jlh+h8rRssLFfx0rVuECP+v6sSkFcbrafKeIF334eu3XN1DkdQH87m6AX+mUrxsLbPIcqHSRQwKcaay9NwH5sB42JFaK3RydQxc5LE5BJGXMvyh4T+C87bUpSTQQ+wDlfNVYe78u98mnjseS5Lg3gh8LCw4UOmO/EtN+gYe95pM4vzNV5ROdrmYesg+rtWj/JfnhK2m9uAS/9fLdoxIWNQQ5K6BQLvd/KOxSA69UKfZWYJYgFU2yvHY+jMenIqi4xwnc+snjUNT2mPz3ERqxkK8Ilgu9JEwNYIo4Twusa6vCblKQm6sIVBCDRZnccvl0QT9LM+fOTMK/WjoH9Jmtvn8WOEqXNZapLRD4wLXabhS7ok9UqvaHlTtosWOEkqxtu1Qoe1QZ1IB1fUdF8BnmMlcNLwuDecq8p+bLBTRore0vZu8IZQqN8eWr7LOJVTlV8dclrA3dLhRCvnXUfSvD9wLhbSFGR4vPk4p9mtBa+7GYWQqpss+KRGpwOsG57doaa2LhQsxF2skN8DxbOUNOudQ9vXGIfkCocoLlxfpQuTjfqcJY/cN9yiXCbcKbQl7ulG1PKfdlwpHCDsKgsY82+nBUSsklLzYa8XjxXAHtKj0Niv062F1E/iRwAzS1PaQExwYkmam+S4V5ws4C4iLajEkwCaswrvQXCkyQEH5ZuT/Qzo3C5slGLvgmhLJcH1SMqwQ+bFU9oYLrJuElgfNG5hCTlG+R5QJ11GJ7KAuTI+/TU0UbA2y109WRZUdV5M2LgeCcM2J7Cs8Ief2baIMT3DC4wjk1D7RnDGozviauEXgAn6q4E43VzFE/jkqpePTivqgcfDX2Gxdn7O/1aXoLl1n9BPUaznVwZAwYi1ptrrL9Xkgh/L7GSlYlyt9fE0f8iSF8+DPQZ2vg0M8n6zUc4JJlcK/jW2tlVvI69nFOuEx4WOD8IEug0H1TFcdiMc9rrVw477lSKDon20t96ryiHuRPbjjkGTVQCzUN+lf1nrEwWexFiCU4hfIkYTdhisVhSB8+sRbj3ph1slri9frwYfquwC8UWIxaOfH/npBS334uTJyfCpwv8xVosaPViYUjVd4g7+Xlnue03ptx2T6mQqv6BBNng7BYiJ1EJ8h3nVAlp6xY5CBXjFEbNW4QsmLH7mMsxs7OV8WxgvX7ccQ9Qyj6urUIzD3TJcJGoT9HFa+JSewqHp1RKzVTexXcGIuxMwZitRAj4NPyu1pgEUIKg9sC4R7hfSGGIz74EoNYVUw8hfmYoQFaoEkMT8YgFTeFbrdxw3mZsFkYJt5rantUWC6cI8wW6jTOiRcJKwTOK7cIw7jSRh/64oNvnYY2aIRWaIZ2w7iiOdozBmbjHGAUDRG4FbGTwD1KwE3SFya32rTGGANuGPP0Y9dJVm9oOxa/jjVZr29cAVfAFXAFXAFXwBVwBVwBV8AVcAVcAVfAFXAFXAFXwBVwBVwBV8AVGEEF/gdmWb8rEpz33AAAAABJRU5ErkJggg==;imageBackground=default;fontSize=10;backgroundOutline=0;imageBorder=none;fontColor=#000000;" parent="1" vertex="1">
                        <mxGeometry x="3796" y="2094" width="43.63" height="45" as="geometry"/>
                    </mxCell>
                </UserObject>
                <UserObject label="" tags="" id="112">
                    <mxCell style="rounded=0;whiteSpace=wrap;html=1;rotation=90;" parent="1" vertex="1">
                        <mxGeometry x="3697.08" y="1554" width="70" height="617" as="geometry"/>
                    </mxCell>
                </UserObject>
                <UserObject label="&lt;b&gt;&lt;font color=&quot;#3f497b&quot;&gt;AI Assistant&lt;/font&gt;&lt;/b&gt;" tags="" id="113">
                    <mxCell style="text;html=1;align=center;verticalAlign=middle;resizable=0;points=[];autosize=1;strokeColor=none;fillColor=none;textOpacity=10;opacity=10;" parent="1" vertex="1">
                        <mxGeometry x="3709.1299999999997" y="1848.37" width="87" height="26" as="geometry"/>
                    </mxCell>
                </UserObject>
                <UserObject label="" tags="Icons" id="114">
                    <mxCell style="shape=image;verticalLabelPosition=bottom;labelBackgroundColor=default;verticalAlign=top;aspect=fixed;imageAspect=0;image=https://www.comset.co.uk/wp-content/uploads/2024/01/Microsoft-Copilot-Logo-300.png;opacity=10;" parent="1" vertex="1">
                        <mxGeometry x="3538.9999999999995" y="1836.2399999999998" width="48.63" height="45.16" as="geometry"/>
                    </mxCell>
                </UserObject>
                <UserObject label="&lt;b&gt;&lt;font color=&quot;#3f497b&quot;&gt;Fabric Co-Pilot&lt;/font&gt;&lt;/b&gt;" tags="Icons" id="115">
                    <mxCell style="text;html=1;align=center;verticalAlign=middle;resizable=0;points=[];autosize=1;strokeColor=none;fillColor=none;textOpacity=10;opacity=10;" parent="1" vertex="1">
                        <mxGeometry x="3581.3799999999997" y="1845.62" width="110" height="30" as="geometry"/>
                    </mxCell>
                </UserObject>
                <UserObject label="" tags="" id="116">
                    <mxCell style="rounded=0;whiteSpace=wrap;html=1;rotation=90;" parent="1" vertex="1">
                        <mxGeometry x="3700.16" y="1679" width="67.66" height="616.56" as="geometry"/>
                    </mxCell>
                </UserObject>
                <UserObject label="&lt;b&gt;&lt;font color=&quot;#3f497b&quot;&gt;Compute&lt;/font&gt;&lt;/b&gt;" tags="" id="117">
                    <mxCell style="text;html=1;align=center;verticalAlign=middle;resizable=0;points=[];autosize=1;strokeColor=none;fillColor=none;" parent="1" vertex="1">
                        <mxGeometry x="3666.9999999999995" y="1976.67" width="80" height="30" as="geometry"/>
                    </mxCell>
                </UserObject>
                <UserObject label="Data Activator" tags="Icons" id="118">
                    <mxCell style="shape=image;verticalLabelPosition=bottom;labelBackgroundColor=default;verticalAlign=top;aspect=fixed;imageAspect=0;image=data:image/png,iVBORw0KGgoAAAANSUhEUgAAAEgAAABICAIAAADajyQQAAAK9klEQVRoBd2aa3AT1xmG81NDSVKJ1gNUSVuSEgKYqy1bN+t+lzHGYGMwiZ1JYRI6aowh2BBcSgEnQGiT4pZSCkmGJHgyqRPSlCGXQjoDocMECjENF3OJwTWOL7JkWdZKlk7n7Fntrla7q9Vq23jq0Y/VaqXdZ7/3vN97zvo+8H/6d5+0XJ2vHLhmXDKk8jJeh6fM8Mnku/Km7cqbtmfqT15XmV5XmdqXrjrdvD0WDEp7DejXpATreLqewUO+RWA+mTz91TBBsWfKo22O8qvtf5GQUDIwHqohlZcHjI7aNDHv4Fz115+cyp1QGjB+KuFgJGTrI3NvfPhRLngSgGWkEgGGCF/90ezLbe+Kw8sVTAiVaDCEd2h2cbj7XrZ4OYEJpMoRzCeTv6h4uOPgG1mxiQcTTpU7mE8mXzdB0b5ouXA2kWBZUUkChmR5YPpcgX1PDFi2VBKC+WTy0wVqIUMuazARVNKCNT84OVhuzli37MDEUUkL5pPJ/eXFgQor/3jLAkw0leRgV4wLQI3av9zJwyYULBcqycH6vCpQowY16r7aCi42QWA5UkkLtnliHlgJqdDr7t5fs7JlBsudSlqw47NnklSgRh1dpmM1kgxgl5/dSE49ctkQmO7JEMy1sXvSQ/RyIcKeWpbGzQcWCwYHCplTRnF4koC1KJQjS4vo5ULbiZXq/hMnGILkAxs4f0kcRvq3cgdrUShDFcXpVGjP8FJzFmCxYLBX5Um/ShF7cgRrUSiHy9WJag1YqeFi6/nlC3Q2vooBAK6/9KokaswFrEWhDC7Sxqt0iWptYgUnWKRKnwUYACB4rfPK1t0dT9fn8vrAWYEWcFpnqV6a8uiWByZz2QNjf4tCGfDqxpbqxyp18eV8YKBGHXz/HZItQ8XI4yTfONW49bc/eIyBwXjbolAOufWx8pKxCv3YMl28SsuvxuAqF3md3xoYuoIvX27dmzeNwYPetiiUfochWmaIlRtiFSVjS/XxygxqTKxUx3p70C9/y2DoIt40uhsmKOh4OxVKv9WIeU3YImN0sSG2BIIJUWPvlg3jCAwAcNxdSYLhVKaI2wzBSnEwSo06fjUOVdrHFxgA4O15Op9MvlOhHDSZRx2WiMsc8ZixUlO0zChcjfFqzbgDAwC0PVYwYLCGrbZRh3XUZSGKxlBjVQZvDP39bwCAcTHG0D2GreXc+ZDZPmK1he3WUWcSLEs19u5oHndgAIBed8WIxRa2WXnUyN/Q+tZUj0ew/rb2EYs9jIomSo3DVZbxCAYAGDI5WdQIGxrZqWFD48qNseU6JthYx1fYHw6NPrch5PBSt81JGRTsKvgJyI4JVVGtSXBn05TMumMtOH6UHFFcG9ivdibVaOXyRj411i+hgWEY9vvDQa1rWO8aNjhDRscIGsRQ68Q4jnhMyHyJjknEnGSEo03XU2CSc3hq57sHuZDQfuzNo9Rt5VFjNWcgpsAira8F1J6gxh3UuYZLnCGDI2Syj5hxrePjOMV8ywzR8mQaICJcBgumqGrUYLWNHyz26UnittpxCyE7tWA1EmBjV28EdEsCxZ6Axk0UrQQWDbJZ7GEbZb6oaETMKS+BglwGIxwSJJfoU6hq1KDOwA829o9zEIzwxhQ1QrEkcyOfGlEfC+89AOeORd5AcbJoeievII3RMlqEg0XTJdCcQogg923hB4se/yhkcohXI64I2KBDvmY//jg8UOQJqN1BbVKQqGhIkLgqoCA9eIQjXIQQJCwanFNoM7vI5ifAyDA/GHakjRrkLGo0JGcxHN74PFzbgWDBZWv8hfgSAF40hiCTqmAKMoqSDmHBwgQpgAoAMLr+hZABdy9xatyxlgALrd/uL/SgojEEibsIi0MSubvMmOoiSUGmO2GNGgijAhg2bCmDA4GuRjJekXcTzWLQ1JNxugPbCbDwvtcgWJINugguSGj9dBchIxzK3WiylDoRRJNcFkEKpAIg+vEpwpnJlpNJjcyFkLbfEWDYiVODCEyAIJltjYzesK3p41WkQ1Kr0EJrBQDAsFD1agimhy0nOQrwXoqGNz6LIaeehCEzVnjwDADHWOzqjcFCD8GG/qmmyJvW1uBpYIRDLZveN5ltLXUCL7hWAIDI2+9RYkE5gcyN/GqkR5+LnxMVAwAMahaTRSMckhAknkV4BFmKz965clY2VEQ7pecEhhpdyTk1rn+6N1JqXG0DUYwCC9StGyxwk2wpbU10zmp6MqOzk74/1n3Pv6jOr/IGiqheKkaNuHNQYOG32gdwMLog8baWPE2WOSuxsVY4VfRKZ5+9ur/ADbsOHAWwl1KpNSs1fv4xulnEDDrePwjVyCiaCmYRRlsTkrOGV7iiPcQyGFkT1o3w0NB71U91F3nuLXD0FbgGcfeiAhA+BFJyY6oa8UyH5x60SFxnQDqkKgbbdMM2WDQGW/Y5q8+h3vxA3saJeUfLqkK9vaw8AIDoaOREfeOG+/N8MvmdebaeBY5vFroGCtzpasQbWqppcXnjrnrydETFoCOdPNNf4OYQpNCc1WuFVORCWv0EReuMhW85lxyrW3Nx/58u7j90auvO9rpn9kyf14QjoSO75lm759t7FzppavQIVWMFvt6IOvVnH7KAJTBswL6Cq2gMQSY7TErOumfRbr7/+ySV8I2v51rvzrcJVyO+LIemvHjYRyn8mVJShylSBACMHG7rx/XA0tZowZ81Z/UYdJtEUflk8ttzLXfm2f49305XI7SQZKcWosbEuc/IcjHBYNEqfjqQFKTwnNVdohVN5ZPJb82xZFYjOclI79QV+vjzdXQqJhgaaX2oaFwugtoa6VcW2x2trmmiGAWSWr05x4zU2CPYGxlqTFw4mwEMABBo2MbtIoy25ugqLsmRyieT38g3C1OjPSXQJb0x/uJmBhVLxWB0vNXVry5jCBI9nk0GfyJn3VaVNOZWK1S0znwTqcZ7Cxyc3siqxkpb4uZ1QWBwTn2oLaMgbxUYGidSzk7qSsTG9XyTUDVacB+mHlkY48ffT6dirxg6LtjUwiPIrgKzVFQ+mfzabCNdjb0LnWSnTvPGFDWO/bGVlYoPLIFhQ7X1LG1N5R1UuXcrHhJRGa6vXJ1l4FOjhpYbaY8soo3rAAaDPOsflTzSP473D/pLa9PZPp22gOsSxe2/Mqvk2mwjXY3fLOTOjbgaI0+sBCG+RSE+MDQHHdAsZuSsVxQ/FAfA9a2vZkIwPjXCsI+WceGy3Gj54kRXV3ol6HsygCE2f2ktPRyvT31ezHW5wvf/a6b+6izDdR5vpKkxvGJVvLOTzsC6nRkMPv74Z8ftQqgNNFtjPAgXDsB15OWZeoFqHH3254lhPgWSkILAYN0CwVuO5QjsN4qHuS5R3P6Ox3VIjZ35JrJTM71R647sfJnHLUgktCEUDB1992dNg4WeT34ssXl8+biOVY19Ba7knNqDHW1nXDr/2+zA4LLPydPXVK7dcint/tIMLanGG/lUbkTeGHqqIfbFJX6M9E+zBkM/8cWm7c3fnSpOeOnfujhDy6rG/tInsZNn0i9ayB6RYHBtMxB8Y9mqhu98L/1Cs91z4TENXY0355i7rZWhdz4QAsB1jHgw8heP+db/YlJOyjw/XU2q8W7dc4G2Y4kIZ6Qgz8u/IQEYOkHXmbNHKlc1T30k23L5ZPIL+YZbaxv9f/7rWFCQlfMjoU8lA6Of7Oy+/UcWV+2eMX/TJCUr58YHJ7copx/UWI96K89u2xXPuT70s/8XwdJP87/f8x8EJ3wMFGp7IwAAAABJRU5ErkJggg==;strokeColor=default;align=center;fontFamily=Helvetica;fontSize=10;fontColor=default;fillColor=default;opacity=10;textOpacity=10;" parent="1" vertex="1">
                        <mxGeometry x="3977.9999999999995" y="1968.6699999999998" width="30" height="30" as="geometry"/>
                    </mxCell>
                </UserObject>
                <UserObject label="Data Science" tags="Icons" id="119">
                    <mxCell style="shape=image;verticalLabelPosition=bottom;labelBackgroundColor=default;verticalAlign=top;imageAspect=0;image=data:image/png,iVBORw0KGgoAAAANSUhEUgAAAFQAAABVCAIAAABYVVQzAAAYJUlEQVR4AeWcd1STWfrH95xdE3pzdJyd2Z2ZnZldQSwoig52XQvSREQRFBWpFnRGHXvBAkivShORKiigUgQRC1JUUFCkt4QQSEggpBAg5f7OvW8SOlLC7B+/Oc+Z8xKF5PN+n+f73PfeB/8C/h//95f/CTulF7xhCePa+KFUENrCT6YLPrKFDN6f/Vn+VPguAajgCh/RBaFUYRgH3OoAgW0ggAqCGCCwA4RThU/aBYRu0CsQ/jm34U+CJ3KFrzoFdyjCwDYQzAQBbcC7me9F4nuS+B4kvnsT7waJ700D3u3ArYl/lyooYPCpPVN+C6YWnskHJRxhQhs/sEUQwgEBNOBDFnqS+J5NPAjcxHMj8lyJPBci7zqh9xqh9yqBd61J4EoFrm3Aq1mQQOVVcgRdU5YIUwLPE4JarjCrQxDSIgygw6z2pQBPTOEmnhsKFxEzDzI39jo39lxu7LnU0HuxoedCfc/F+t7LzcC5FZxv5Ps387LovOYpSAQpw9N4wjdMYRRF4EMW3GIDXyrwIAnckcIikQlikRt7rzT2Xm7ovdTQc6mh52I9ZD5f13OurudsbfeZ2u7Ttd2nartP1fWeJYFzreBiAy+U1FPUyWPwpFYO0oHn8oWfOdDJAsiCgA7gRwdeLeAGEWU1gedC6IVZ3QgVRsA9lxt6LkF5BwCfxYBruv+o6T5Zwz1RDeP3Ku5vKI7XC04Qwe8N4Fpj74PWntouoVA42bswKXghAM3dgledwvBWvlcLCGQCr1boWOIyFqX0FZjVg0U+Jxb5NGL+AzGfQMzHq7m/V0PmY1Xco5VdTpVdRyq7DlXAOFjRdaQeHG0CR6q6PRq7X7bzKN2CCbeGCcKz+MJiliCByvdq5vszgFcbcG8WuiCRkW9BhTGRL9VDkS8MFPkMltIYMFL4OKKFIld2HUVxpKLrMAZcznEs5zh85th/5th95tiisKvqta8D9nXgeDU3rIn7kSWYQIMcHzxPCBq4wswOQWAzz4sCfBngBhm4EHnXCMOL3FfGdT2SMj4Js7r7RA23v8JDRXZEzPblYuAyzoEytnUZ2/oTex8Kq49sq4/sfZX8/fXA6hPnXHVXKqWHyB1HIowVvoMP8pmCyFaeWxPflwHcW4FrkwAzapjVDb1DyxizLuhbojLuPlGNgFENH6viHhOn9CCR7ZHIUOEytg2itf7E3v+Jve8jey8C3lPK2l3KsixhWZSwdpUwzUtY5h+7dlXwLKqBzecu93pOIYPP5n/ZEb4Az+rhv6pti6xl+LUCv07gzQAuJOFVgjirG6FXY81JIvKZgSKfqOk+XgNr+PdqWMP9FT6MKvlgRZdjOcceBZbVNmKRIfAnKK/VR/aej2wIXMqyKGXtKmGZl7B2fmDu+MA0+8Dc/p5p+p65rbjTpLjT9FP39grh1g9sxzLW3SZuBZs/iiOMBv8or3KlU8R3lgG/2N9Z6ZpxKJd0jSRwbQHOjb0XB3r1GUlzEnv18YEii3xLUsYI2KG8r4xtxCJjwCKFPyKFkchIYaYI+D0CLu7EgLcWdRoXdRoVMQzfMQxQ6BcxDUu7jcqBaQnnel13ywimOCL82wrS92aeakYeypuuKK6/KL/2wnQj1yUXk/Y/rb/YyHduFl5o4PWVcS0XlXE/kSu7BohczjlUznGs6ILAKGzL2Laf2RKR+8q4tJ/IJcxdJaydJZAZKjxQ5K3FncZFDKOiTox5y1vGlrcMPRSb3nRsKuzYUNixsZijVwWOljHZvGG8YET444FP1Iy9VfWuSkJ5o7PcmvNqBi5apxJ2p9f8UdtzjgRO1vVgvoU15D5gsciYb/X36kEii7IaK+NSSRmPLrIIWP+dGPhNBwR+A4H/W9ixvqBjXUH72oL2tfntawoZa4u6Cum9Q/N/RPi9LklqRp4ScsmF8sbL8msvqOhd1TwRa5pcfqySe7KR/1tND+zGGHA55yA06q4+YJTS0KsH+pZVKSrjPt8aDGxazDQp7txaBMPoHcrqtwx9pDAU+U3H5jcMTGEE3A6B8xFwfvvq/PZVefSVefQV+e0r33WltnDHAe8Wm6tm7CVhHnShsslZfs15Zb1r/zkabZRY5ljGPtbAP1TFhdaFujFmXX3A/a0LiWwhFlniW2bIt0yRb5nAlIbRV8birN6MFN44ROQ1ImDIvCKPvuI1fTmKFYXMVXkdZZ3jUZ5MZy6yDlIzuDEIW/TllmsqW64r6V2X33BFQc/lZ6fojbEl1iWdjrW9dpXcA58GioxodyNacXOCRg29+j1ze3Gnqdi6jJHIhgNFRgrDGt6IyniQyFDhfKjwytd9wBg2/H9e+6oS/rVKJm+4R8MR0x4A8DC3fIahq+qW64P5t1xT0XeBYeCmbHBDycBdbuN1BX337w9GrY0s3l3UYVPds+9zF+xPmMiwG7PMkW/tQKaFNSdMZLFX94ks8S2RyIh5XaGojNcUwJRend++Mq8dZnWeSOE+YLHmy1/TVxVxzYo6x+32AAChUHjY97GaoUcfPBIcw4bkhu7KRh7KRp5KW70Vjbzk9D3k9D2/dYzWDS8yK6RbVXAtyzjmJWKF3zMlCiOj7stqSRlvhmU8vMgYsKiM++ENy4y9uKKAsbKQ+ZTSM7TasVdGUx4AQKYxF9mIk7+P3FXZ8AYi94Tkxl5KJj5KJj6K2/wUTPxkDX1kjf1mOcQsDn5rmEvdWcY1K2VvQ9ZljCoZa0767xgSr978lrHpTUdfGUtExsoYidy/jEcB7vujPPqqEt6VStYoC70vwMPkf12hZuCqYuCKBHdFgt8QCW7spbTVG8NW3OanaBqgsD1QYXuQ/PYgWZMA3NbAGXax8wMKN71oNfnIMS5hGbwTebXeW0b/lO5fxphvrZbUcC59+YRiVRHX9B2jlTvRFZ4kWw77pqlu9VExcBOluiFMdWURua/SNl9FU38RuVmQgtlNhR3B8jtD5XeEyGwPxpsGq9rGq/sWrs4ibylm6RUxocIF7ethdMA+nN++Jk/cljDOV3TdV7TJxPI8lPDUERN+TGmP/SUynTXfNkRlq48yho2KHKW6b3/BEfYt+R0hkNw8TN48XG7XbTmLCJmdt6eZhSvZJvzkka+b2bz+befa/PbVr+mrX9NX5dJX5NKXS1Bf0nQnH69oq97zLpV3SsQb6eLLaY99Z9LrKlUTX2Vjb6WtWKr7Kpr4KZr6Y3kuxg6W3ykih9i7bstZ3pGzjJTdfVd2dxTeInKaeaSi/QPNu+Wr8juWv6Itf9mm+6LtV+nG87YVhRyTAnrLqAmPQY0VHgBg55upbHazn+D+iqawwvuRh8rvDJPbJRJczkJMvida1ipG1ipGZm/cNMsYWevEubHVy193/Pq8TcqR06b7qmNlPjuzdZj13FD9xwFPorHmOUQomd0akOo7bsrDCu8nuEWEnEWESPA9URJsmX3xMvvuyexPmGYZO+NM9rJsqu5z2q85bdKNFW97nT8zh1vRDGUH44AHADzIq1E1D1HcfhMKvj1IYcetfuRI8F0R/VNddk+07N5Y2b1xEnIZ60T8/kQ5+5QF9xt0X9KXPaNKLbKpunlsk/z2se/qjQ9eIBTaBeYo7ooQpXqf4OJUF1X4XYhtFSO7N1Zmr0hwGetEGev7+AMPcAeScNZJc+Pqlr+kL8umSit+fd6u+5KR1dI9jMQjvDQ+eAAAicbSPBSjYHFH7OpiwVGFy1neld0TNTJ5Et4mGXcgWc4xdcH9Rt3ntGVPqVKJpdnU5QXc8x8ZI2AO//K44QEA9/Pr5Hfdlod+3ic4KvL+2HGowu9JBMfbJOFtUvA2KX/dlzTj/CudzNZlT6lLsyhSiMxW3Zcso1e05q7RljRDb8BE4AEANkEv5K3i5HZF9Fn67v7kg1Mdb5MMye0eTTuQInMwTTO65tdnbUufUJZmTjqeUJY9pS1/3plG6hqKN/orE4Qn0ljqRxPl9saLXT0apjqscCQ4cnXobQceSATH2z6cZvMQZ5f6S8jnX7Pblj5plVYsz+We/dA+gQOcCcIDABLy6hT3xctaxfbDHiC4DCRHgts+hJrbPvqb7eMf/UuXZVGXZlB00lulEr/mdBo+b2vmjC/hsYyYODwAwPpWrqxNsqwVJvgAcvyBJJn+5Hapf7V59A/3oqVPqDoZlCVprVIJnSc0nacdqcRxJ7wU4Ik0tsbJxzI2ybCN70+QeJuM2Nvwdo9w9o9x9pB81tWCJaktOumUJakt0oplOZzTRe1jXNIMrf9JKQ8AiM1rkLVJljnwQEwOmxn0NtuHeNuHOPtUnAMk/+pCrnZK89J0ypLHLdKKpVmdelkUEnviozyThRcIhXuCC2Uc0vu8TYQNBcc5pP3V5pHKqeeLHhAh+SOytEInjaqTQX9M5AzVc+yvTBYeAECgcX46mYF3TMfaON7uEd6uj1zpePb8+AadNMrih2QpxtJs9qm39FF2acZyC6QADwCIzifi7dPw9qkSbKi57SM5p0zNyNqlqZTFKWQphk5Gh0E2jcCaeMJjt0Y68EIhsAwpwh/JwVId55D2N7vHMgczZodU6Dxq1U5qlmIsfti65DEtuX5SCS9NeABAfRvn53MvcEeeYeQ4h7SfA8ukTq6d1KyTyTpZQJtkwksZHgAQVdCEO5Q5zSFjmt3j770+LElp0X7QvOg+SYqxJJW+KZ1CHPXgeSzVLn14AIBlWPHfDmZ/6/pucRIZkieSpBkPyIsftiXVs8eON/rflE7NS96DSGEtDijRTm7Tvt+8KIEk3ViSyjieR5O81+QvpAyf18Jdl0rVTqJKF3tRQpN2EmVhZI3x8VstFKnxSxO+hNq9PoWsnUxbGE9cGN8kzbjXvOh+6y82gd/p7Dc7FtDOnOBiflCySA2+ntFrnE7VTulYGCdt8vimRUltc65kfrfM+u/LHb7ZcObAtXvdPZNt8gCMcwNz0J2TfEnh8C2zqNopDK1YotRjYULL/LCK7zef/Gap9ddrfpux4ex0A7fjgRmSd5/whRSUZ/YK7Z9RIHlck9TJteKaFt4j/2wT9M2SfbNWH52x/vT0TZdUDVxVjL1c4/MnjI1942TheQJw6jVVO7ldK4aoFU3QipFyLEykaDhnfatrO2vl4Znr/pi+8aLqlmvwyNDYW2Wbf+iTj5PhnxS8QCh0fdu+6D5NK4a0IIog9dCKI88PLf+n/tlZunYz152cvvGCqt5VFQNXZSN3eC6+PXDm7rDkwroJ808KPqS0feE9CiS/27jgLkHKEUXUim3+ySZk1lLbr9ce/2rDOUiuD0cD0ESALzwXNg//p230y3LyxPgnDp9Y2akd36oVQ14Q2TgVoRXfou789JsVjjNXH/vqv2dVN19R0b8OhyLgGbEPPCM1C4LnRXti/u10/yOBPgH+CcI/I3B04pq1Ylrm32mcilgQRZp3q/wfBudnrjj01X/PqG1yVtG/DkvdyAOOwGzzhyMQO4LlzMPgueD+RO1zGQTauJe9E4EvbuGujG3SiqXMj2iYkrhDWBBF+pdt6Ne6DjPWn1bbfFlly3VlWOoYua/omNA8VM4iAp5/W8XI2j5c55pDY43jrGoifb6K3qN3n6wVS51/u2GKYkE0efbl7FmrnWasOTF94yVk74jc2AsdEAcqmN1CZ+ERchaRsnuiZfbGwu1T+/QdQQXs7nHsYY9PeTKLZ/aQrBVLmxfeMEUxP7JpblD5t0aXZ6w8Cu0dNjZXZUNk7ya+CqYBiDwUTT5Eyu6Ogicl++GhGN42BX8wyzG6dOy/fTIO+M4egU16CyQPq5+qCG+Yf4f4o+3tGSucvtpwHtm7Czb2hcaeAhTMbsrvCJEzvy1ncQeSw4GHeJn92NFQCt4hHXc4+/LjqjGa31jh+UJw/BllQQx9XljDvND6KYr5d0j/uZwzc83v09efQfbuIm5syN63B8EpCPPwgeQJaOM4BWf3COeQhjuUiT+cFZRTPxb+McELheBqLnX+Xcrc0Ia5wXVTFPPCCHP8P//d+Or01SfUNjur6LsoG6DGZtLX2ORE5NDksJMSEbktIndIQ/xZik5P771r/iL/mOAD3tLm3SHPDSVMETb8sSH188IJP9hFfrXqN7VNl1S3oMZmiNm7n8L2QPkdyOSwgRd4KBqHzojuwzMSeC4Ezwj64nD2jN+zn5ZTR+f/Mnz8J8aC8Ka5oU2aN+umLuaGN/37Ys6M9afUNlxQwchFjU1MDhvbbdndmL3HIZND5LYPcQ4DybG7cCTnh9M5xYSOUfi/AJ9Zy1p8mzgvrEkzqFbz5lTF3ODGOb6fvzG5obb2tKreAHuHa1ioudje4YRTLEr4+/gDSXjbFHgW2F/z/tdOz7Wuvq5vG3GTezT4InKX7m3C3DDynMDaKYygurnBjd/bRU1f8wcyOdjY4HinCVq9m92UNw+BIyCWd+DAy94YOPABT/6T4Fmg3cjk2F1werHW8w2lc/jFz4jwBEbvhruN88Jb5wTUTCF5QK1mMPGXC8/hc8umyyr6rioG7spGXkpbEfl21Nh2YfY+2OTg6VB/nYe/TscdfWUZ/r57XL9j41tAmxdBg+T+UxiaQfUaXmWztnmorj/f77kFrd5RS4eNzfIOtoaFYx/7E0QzD1hjGx64n/M5pOEOPsE5PsmtGebJZ0TlT2S2zgunavhNGTn8ybVzgur/aR+juu4sZnJK0OR8FLf5K8Ihv2A5OM8Z0WdyMOHv4w8k422H2Psod8ERrnwi8puGOt+I8F55bfNu0zV8azR8q6coNIMafz7/Am5Lbb6C1rCwsSltg/YO17DmYaI1LDbtA9ew9+GEz7jIMeUPZT0rbxsHfA2te1Vo/dww6pzAhqmAnxNQN9uj7GszX5WNl/o2Z7b5ils6bGxw2mlPFHxu2XcPfyARzTZhAw8DE3tE2aHmuGOvTW6+G/aBZ0TlAQAfyFyb5Gbtm/WawRSNAKKGb626d7V0wqdGw6/+O/t4lQ0X4EpO9NziAxsbfGILhUN+cJgTrd73xYsHu1K+bO/wRqTDOj+Sg3PK+dfZl4diy9pYww/ejwaP5Ulxc5dnbtuWO40aPnVzgpo1/BrUvaomGRp+9T+dfaGmd1VZ7xpavXsqStawO1Fjs4CNTQZbw2Ijbbbi1fuIOqfhYHk/wx3JkT2YvtarMCCnvoYy2g7Hl+GxW9DJ5WdUsw4/IuneapgTRNbwI6p716p7Vk0kvGtnu32aaeavvMlZBVu9w80ZP2xzBntugWOscHQXzjmh1XsyfG4ZtIaV3AXHdNzBTCj14WzNy7mH48ryauldPV9+sB8rvMQtKqndYW/pJlEETe8aDX+yuk/jbI+q2e6VYw2PKnWv2u/sE5RhV++/LQVX79i2FGxscIsCNjb8gVHXsI7pkPlIjorTE6Ogoug3pGbGmCbtMZxxw2PfxuUJchs4p9LJa0PqNXyJGr4Eda+62e5fvgvqXnU/nnmpqn9dGe5Gip5b4C8twKF92NjQ6HK0rBWa5IT2niye6upnco7puENZEPtg5lK3gvMPK0tJnfzxT6RNEF6SCISOnoTSjt1xxIV+tXP8yRq+hNESwaP6P27lMy2ClTZfgRtyxli2Y40NW72jUsdmWGGpDyF3zMA5PccdeTbreNae2yWPS1vbOcP8nqjk441+MVl47KcLUWtwe07dEtGo7tOg4UtU964fehfUver+dT5PxdBNWd9twOp9ByKXbM7AkUa0ercR27tjBmxaR3JwDunrvN94P62rG/lxZXTg/n8qHXjJT2xj89IrmQeTScsC6zX8SRp+xNke1RI70PCu++GPHCW963DvXfLcgtm7ZA0ramxoPt0+FTYtpxe4w09/OptzJL7sVTWNMwYnk3ye0S+kDC95s0pqd1B+m1lMk7pnjYZfE+aLGl61P5x+pWToDvfe4anDTQUJ+Z67slbRMvuQyVk/wNs+wh96ijuSo3g4w+RWcfhrYusIT2aSd5zAxVTBYx+F2c3PbWCfSm9ZG0rQ8CXOCWj+xaVMdVeIgrE32nsPhmtY0d47snfrRBm4CfsUb5++wPnluZTKkqZOHn+Yf/RgAqhDv2Vq4SXvR2T0xr5v35dI0vSp/cfpXMWdofJmovMWWew3U/bfk7F7LGP3+GuntP0RH5Let3RypTB+IPkAw178SfDYe/fwhSVk7tVnrcuds+UtI+Ws4uT2xsnuT5CzfShnnbjy+nP3jOpRNl6GBZjMi38qvOSD0jj8uLyGPYGvdM6lrnLOPBH34dlnSs+UpbfkfQdd/G/gB32I/9WX/wege0BuWq6PuAAAAABJRU5ErkJggg==;strokeColor=default;align=center;fontFamily=Helvetica;fontSize=10;fontColor=default;fillColor=default;opacity=10;textOpacity=10;" parent="1" vertex="1">
                        <mxGeometry x="3794.7499999999995" y="1968.670000000004" width="30" height="30" as="geometry"/>
                    </mxCell>
                </UserObject>
                <UserObject label="Data Engineering" tags="Icons" id="120">
                    <mxCell style="shape=image;verticalLabelPosition=bottom;labelBackgroundColor=default;verticalAlign=top;aspect=fixed;imageAspect=0;image=https://debruyn.dev/2023/all-microsoft-fabric-icons-for-diagramming-old-version/synapse_data_engineering_512_color.png;fontSize=10;strokeWidth=20;" parent="1" vertex="1">
                        <mxGeometry x="3564.5099999999998" y="1965.6699999999998" width="30" height="30.06" as="geometry"/>
                    </mxCell>
                </UserObject>
                <UserObject label="Data Warehouse" tags="Icons" id="121">
                    <mxCell style="shape=image;verticalLabelPosition=bottom;labelBackgroundColor=default;verticalAlign=top;aspect=fixed;imageAspect=0;image=data:image/png,iVBORw0KGgoAAAANSUhEUgAAAE8AAABPCAIAAAAlVg/RAAATB0lEQVR4Ae2bB1QbV7qAR0MHSXQwNrjEcWwnTuLE2RQnxuASJ5vNSzbJS48TpydeF1yoNgZMB9N77830YgMGTO+9SqiMekMUCSE62jNCuGCKhIHds7uc78yZGV3de7/579x/hhkBov+mP+C/SVb0P9uNDDdrbMa3deRcKTuhjz8xPbuRTS1R96bGNq6Hvy+GCgbQwWA26Es+ls6qoAmX6NSG7dok2zb2+Kd5LNCPAvrTQC8ceKsf9MKDgUzVAOhSOZcpmN4wwccq3nBb/uSMU8OQTggJDGKB3gTY81F8IDCIuS+GGt/Df6xfG7Oxsbb5hNE3UxhgIAP0JT0m+ajwrX444D7kT3JZreyJjdGU1LpRtiTe9G8lAwq+EKw6P3QXGS7a9CaAQSytIMi+ljs8PrNBzutvOz07F9LB2xlFhYeuD3GlkC4SvtUP+pLBQMaheHIufnQjhNfZtpouPJXJAv2poD9FNs8H5l64+eFwppCJG55cX+d1s2WPTZtXcpEBEBjIgufbB71f24o3EQxiGYVBAW0jEzNz6+W8PrbJffzno8lgIBP0WXE2ktXcH85Yx9No1euUlp/WtnNg4rNcBugDwdcMsspIU16clpH+xCsVA0+fltduy5+cdWkY0gmEh9wSiVQaE+nL+EJgEOuFGHJy31Ol5TXaFkKCNxIpcDz9yBsS0iUOBA4MoIE+0Of5rE7O+NrOZJltId7Ur8UsRR+CtIl0iX4/fjklUwFxWtYPJbk0DvEnZU7LMthOzcyFtA/vihBfA8qaSGVSWrWwHzwjvp1CL4QEMgVZWts6xvj7mQxxIqVu1tBdcQh44cAAhpIf9HsJh8yTNi2vbjswNm1VxVWHZyPmOiTSVeMmUwEfeI7cHUUN7+TNzK6ellexTcXwX44XXwOufFkvUxfXvTB86Ub9IJvZxFzlpmJZ217u5FcF4gvdgIU70nXv5TpWKE7LGsEUm5rBofFl75aXsBVMzXg2D28No2xGIl1HYfimggQGMl9JpGfhl569FtuWkgVHUulPk0gRnljADQu4YWDcsZs+peHgzvsQv7nLxgwunr0e2tJGp86WDagEkMAAxppnI8AVI+eF25JC31vMfSaPgwyFAFcM4LHpzuK0bBBO8WoZEU4/nL0ktjHdvD0xNPFlPbS2aAAecEg1osgvVY+YYCdN+2EOdwi3Z7PkfXCAGwb0XDGjrO+Qnq/NjwwG0I3TmOWUsfm0DNvG9vDg6PvT1uaJ8OwH3DBKfvhn8jlvdwlNMJPvdI/PY9w7cRQzebCWrxVLAdyx/4KB7YUDg9kagVCl+C4Ktj2SIr7iXdPRBdyxCA+sbgLtlTr+kd6Jt7vG3+oQPsrhTuE7PROHO4W77wwoBxAANwxi84MczPkijyESiZ8V7AknwCeqB0ZaPDGgJwZw7wNcetWCCXuLuW93jr/TNf5Wu3A5DncI3+meONQwqp9MR3hiANdehAdcibQtSt+3JUsG0A4nkCS2e8Nwcp79cu69UgK69QDO3fKefdvS6IcaBW93jr/ZNvZG6+rMx3xfySA6BA84dyNceqRs8WmL+VGMkx7a9sPH2K1bGgDnLsC5Sz2csL9s+I228ddbhK81jUnPX5rH3mgTHmoQGKYzFG71Ao6dCFep2pWmb8uW8SUZJxIXYhuKBd36QJeuFZBz6QKdOwGHdiXvvh3ZzEONgtdbhYcaBWvjteax11uFL5QPa0USEU6dCMeOFZpeh4+8IeN4gsR2XwhGzrVHzrljWZw6EA5tcs4dujHQC+UjrzULX20QvFL/tBxqGnu1QbAzh6Xq04uwb5NzbJdfoQ9P85EXwTgOL7HdH9Qr79wl79i2JKBDK8KuBenXtzuf84pY8mDt6LpRN/pq49iLFSP6cSR5p3aEXYvcMt1Ysm/S7vTEHY3tX4htYLecU4fczZbFOLQgbjQpurQZJJIPVPAO1gleqh59sYq/7rxcKzhYJ3i2gIMO6APtmkD75sU9ebJvMu3xwBrHYBdiG9Al79gu79D8KHI3GuXsGjWCMHsKuS/XCl6sHj1Qyd9Aqvgv1QoOVPK3JlOUXNtA2wZ5+6ZH+/NU626Yo9GYBVu/DgWHVgW7xnnkbzTIXatTcWs3SqO9UME/UDX6fDlvc4CbqxbsKeRqhWDhblyvf9Crp1px6TWJ6l2w9W1XsGtSsK1XsK2Ts6lRtKvXCcftKRp6vnJ0Xxlvb+nIZrKvbGR/OX9/Od/oNh3p3iZnUyN/rVbct/q1L526TCJ6Fmx9WhVu1MvbVMtbVyE9O7ZnMPeV8/eV8Z4rGflXsbd0ZH/56J7iId1InJJdvbxVlcK1GoXrtWvEsd0kokti+7xXs4J1jYp9vV4M4dmi4edK+c8WD/87sKdk5Lky/vYslrpXh4JVpYJ1peK16rVws800vHMhtp6NGv69O7LZe0r4zxaP7C4c/jeiaHhPCW930fCWOEjFvl7BskLRukpm7FtNQzsktq/F9z9TPPpM0ciuO0OrUDC463F2FgzufHyPpMCqVclU4O7w7nv8bWl0ZdsaRYv7ilYVsmHXbBraLrE1Lh7cVTS6I39oObbnDe7I4+7IG9iRN7A9d2B7Duch2ezt2eyHmzmcHblwMbhk3uByFa5t/65CnqZ/t/yVEkXLctm40WQa0rpgWzayvYBnlDu4FFyjnAGjbI5RNtswi2WYKSaDaZjO3AbDMJTANMwQk8mEy2SxjLLY4m9xjHK4S1W7ZFur7NxZyNMJxSqYFSmZl8rG9XrToBaJ7Tslw9vyeNuyBx8ji2uYxTHMZG3LYG3LgMW2ptHnMUil6SZRdZOpekkUnUTKlmTq1lSahIUy227T4cMBf5dlmMk2zBowzOY+Vv+i5qTYNCrgaQf1KVy8q3T1nmxcqzUNbJLYHi4eMsgZMcjkPmBrBscgnW1wm2mQxjBIZRik0ramUA2SKQbJFN0EsnY86dAd9rcto2faBSal3C2JZM1YSD+RvCWJPF8GXqZQDVJpBql0uIbbTIPbLIN09tbMgQdNrGFlW96IVkCP0oUC5StFsmFTfSywQWL7ZuGgftawfvqAfvrAlnTOljTWljSmfipDL4Wul0zXT6LCJolk3TgIHYXfmUr5uonnyZoLGhQFckX+A6KzvcID2XT1SLx2DEEvDtKLh/QTSDCJZJgkGlxJCkM/lQHXfJstbog735xMyy05wxp+3Urn8pUvFcqGVdUx/3qJ7Rt3B/Uyh3XTBvRS2fopTL1khl4SXTeRqptA0Y2n6MVDurFE9Ui8Tgzh6D2ODTTlzxV5sUUeLBhPlsiPK3Kmz31cM2QQT0SGYrWj8LoxBN1Yol4sUSxPgutJoMJ1JjPgylOZumkc3dsDejKinz2s4dut9I9cZbM7smFZfsyvTmL7esGgzu0hnWSWbhJDJ4GmnUDTiadox5G1YyDtaIJGBA4Z2r/3NuWnDoEHR+TJEbkwF+POFnkNiC71T/wlj44KxaJCMFqROO0ovE40XjuaoBND1I4lwRUmUOHKExk6yUydFLZOKkcmdDOH1L07lf/MVrmQLxOqV8uO+9ZKbF/LG9RKGdBKoGvF0zRjqRoxZM1okmYUUTMCrxaC0YvGv1/BtaXMeHBETsy5m4w5xyeY3+nOFjkzRV838XbEE1UCetAhGM3wfq2Ifu0onGYkQTMa0owma8ZQNONoWgl07QSGZhJbK5kjPdrpQ+hbHcq/Z6qcy5UJ1cslx72rF2xzOJqJLI1YmkYMRSOapBEJqYcT1IKxyBDMwRza2b5xF7bIkSmyo8/Zr4gdfc6BIXLliCygaZNilkZIn7Jfj3oIRiMMqxHerx6OV48gakRBGjFkjRiqRhxNM56hkcDSSGRLiWbaEMqzXfm3DJVzOTKhevneQ9tXM1noOCY6ioKOIKmHE5AhOMUAzLZY4if1I7b0uZss0XXarEzYM+Fv/dgp2JsCKfl2qfj3oIIxqBAsOhSHDiOgwyF0JBkdRVWPpqnH0tFxLHQ8WyqSh5Dubaq/pqmezZIJNbOiE16VktgevM1ARdOR4RAylKDkj0EFYw8Xsi/gp+xZIhvanBV1dg1YU2ftmCJLyuxfK7m64VgF7y41/z5kEBYV3I8KwSPDIGQECRVJQUVR0dF0ZAxLKhIG1VxbVX9JUf0jQybULtw94VkusX0pha4WQVUMwCn4YncnU75uE1yjz9nQ5szJM+aU2bVDnrGizl5niH7HTBzMoin79Mh796gGYNQCcapBeLVQoloYSS2CgoygqkUx1KKZqxPPVXVpUf05WfX3dJlQO3/noe2BRIpcAFEjDH/s/uBFaNqKPneZPHOJtD5cJs1Y0ObMqXN/r+dtiyGAt7oVfftUAvpVg/AqQQSVEJJKGFU1nKocyVCJZK5CLFfFuVn1p0TV39JkQu1c/gmPMkls98dB+7PY3/eMX6XNmZFnz0Mz685F0sxV2tyf+Om37rJU/PrkvfuU/PqVAnDKQUTlYJJyKFk5jKYUxlAKX5HoAWXHJrUf49V+TZEJ5D9yT7iXSGw/LBk4TxVdoMz+SZz+k/AES+6cLybjR+dJM5eocycrBhXhUY1R9MUq+uMUAwmKQSTFYIp8CF0hlLESkQPKDg1qZ2LUfkmUCeTZrBNuxRLbq7jxf1BEv+GnNoE/iNN/QNNGsUTApUfOGyvn0y/vi5f3J8oFkMFAmnwwXT5kWeQiOEr29cjvo9V+SpAJ5B8ZJ1yLJLY25KmfodmfcJObw1nKzLNJJMChA/TohR/z3epHeOMBXwiAHy6Lf1ESQINf8nsCRAhb8Xo96rso5Jl4mUD9ln7SecHWHJr6gTD7PXZyEziNnfwFmnkmjgDcaEa4wI+8EO698DPOWzjAGw94EwFf8rIEMhRsalDfRiB/iJUJ1C9pJ53uSmJ7mTj5HX7mG8zE5vAjcXpnTD9gUwc6tiCc2wGXToTbvDMWcatf7EwAvJfCn6JgXYn6Jgz5fbRMoH5OOel0R2J7AT/xZf/0F73jm8N3+KntURjAqgph3wDebEY4tgLO7QjXLtC1Zz7Oy70QgfCFFC3vo74ORZ6OkgnUT8knHQsktmf7xz/FTH3SLdwcvuyfMgzvBizKAbtawK4eYd+IuNmMcGpFuHTAzm49oHsfwmMJAG+8onkp+otA1DdhMoH+If5dh1yJ7e+Y8Y97pz7qFG4On2GmDMM6gaslwPVK4EYNYFcH2DcgHJokQZ4/mV274VN6EZ5YpctF6P/3Q30VLBPo0zHv2mVJbH/pE/6te/KD9rHN4ePeya3BbcClQsC6DLhWDlyvEjvXI+wbEI4toHhgA87tS+Deo2hWgP7EC/W5v0ygvwl/1zZdYvtDj+BU5/i7raObwwfd4wZBLYBZAWBZAliXAjb34SDb1sADGw5yIzx7ObYugWuX0oU89MfuqM+8ZQL9VfBJm1SJ7emu0ePtwmPN/M3hVKdwa3AzcDEXsCgELO8BViWAzYMgw2fyvDPCoXERgFOb4vkc9EeuqE88ZAL9uf8p6ySJ7dme0eOdU6ZN/M3hZIdwV3QncCEbuFoAWNwFLIofBvlaJWBbDdyohU/mJ7nZJG+Wj/rIFfWRi3jpKuUS/an3Gc8cie0tSHiiT2TSyDNp4m8Cx9vGXs6FgIvZgFkOcCUfML8DWBQBlsWAVSlgfV9yJttWw9qLsKsFrUpRf/dQ/8AB/TcnqXFW/9gjLH/h/8n3ByePdU6bNI2aNPA2AdMm/pGaITW7YuBcOnApF7iSB5gXwKPaohge1fDUJXa+Vg6bL8K2SuXbYPX3bNEfOEjLh85Gn7tBzCFJbIXTc2faRo53zx2tGz5aP7IJHG8RPJfYC/yZClzIAMyygct54iDfFQdZfCZbl8IT2JNcK5e7mIN+3w596jrq/Ruo92xX44b6/7lahhY+fKtTJBLVD06ebBkzbZswrhveaGfjumGTBp5x3bC2ewXwexJwMQMwy4KDfDkPuHoHMBcH2eIesCSW9wDrMuXT4erHzNEnrdDv2qyM+l8d3vzVjzMseTn74fvJmTTBiZYxk44p47rhI7VDxnXDG8eR2iGTRt6b99nom/dg4fPpsLBZDnA5H566zO8A5neXxaIQYX5X5UtfddMr6GPm6BOWy2Cl/p7di9+6d+DoD35F89BWJBKVsMc/bRox7RYdbRk3rucb1/GO1I1sHCZNo29VcLf41CLOZwDnMmDbS/lweOGJekUsiwCLQqXTIejjlurGZmjTK2jTq+hj85ijj1uon7RRP2nz4ZVwDJn9QFVy3j66TRdOBxMFXzSPmNaPHKnnGTeNbSgmbRMmrRMv5tF0/ZoUrpeC1iUI6xJAGuAUfV/uQpbK1/6o92/Ao/q4BSxseln/PctT5wNj7zQIJ6YeVVvCdv7j0anZTt50HkOYQh1LpghSqGMbQTJ1LIEylkgVJjMnE6nCSMyQfxPdq4bsXQmtjFcl0aMM534f714BuVcQPYt7vXKafG5XhWRUpZe29kGsyamlfzby2EhedCT+8zb/Z/ufF9MFo38CSgRe78i5aJYAAAAASUVORK5CYII=;fontSize=10;strokeWidth=0;opacity=10;textOpacity=10;" parent="1" vertex="1">
                        <mxGeometry x="3458.9999999999995" y="1965.6699999999998" width="30" height="30" as="geometry"/>
                    </mxCell>
                </UserObject>
                <UserObject label="Real Time Analytics" tags="Icons" id="122">
                    <mxCell style="shape=image;verticalLabelPosition=bottom;labelBackgroundColor=default;verticalAlign=top;aspect=fixed;imageAspect=0;image=data:image/png,iVBORw0KGgoAAAANSUhEUgAAAF8AAABfCAIAAAABLoyiAAAgAElEQVR4Ae2bB1STZ/v/f+d927CXA2QvcXfZWq0VsNbWva1b665ba90TkQ2ykQ0CgoK7TlRAmQkJYSRhQ9g7ARKyA/mf+76fDJYtrTU95/1znqPxgUr4+L2+3+u67qf/J/n/H8MT+L/hP/WhP9PX10foFFyj8/dT2HuLeafLOIltvfU88Yd+Hwrf799CR9TXF1PPW1vA2VQm2UwTbCsW7CoTHaiVnK0Wk1lKA/RvoRNXz11NEawr4q0nszYXsn8uYu+k9OylcY7USk5V8OncXoV/0Q/38l9B53ELf00BZ20R7ycya2M+a2shewelZze1Zx+Nc6iEe6pREtss7PtwTOTfSfl0spjC9UXcNRTBWlL3+nwknJ5dVCCcAyXcI6Xck/Tey1X8LmWUl5LpFLFEmwrYq6nC1aSudWTWxgL21kL2Tgp7D5WDhHOslHuKLj5fxa/jK0E9yqRD54h3FHSvpIpWkbp/yuvegIQDagqgOVDCPVrG+62cd5YuvlTFb/yfotPK7z1M61lBFa8gda/J615PZm0qYG+TmvH+Ys7hEu6vZbyT5bwLdRKvOiFH/D+jHZao93wxexlFvJzYvZrUjcx4SwF7e5HcjI+Wcn8r552u4Ds0Se61KcN1JBIlVJagV+JRxVlCES0lsVaQutbmYWYMhKNgxkA4FfyzlQKnNgmZ/T+T6KE13EUFgqV5PcuJXavzoHCgGe+gsJHjHCrhHkPCqeRfqu1zrRU2CZRQVpIPr507TbwfSezFeT1Lc7tWEoFwNpBZmwtA+7cLtn8HijlHSrnHy3inKnhnK/lObZKoJqEyHBl0PR+0sl62CRYR2YvI3CW5XSuIXWtI3evy5Wa8h8rZXwzav2OlvBPlvDOV/AvVAjem5BlDOabzQekQOoUrSayF+fxFhM5lxC6Q4mSQ4jIz/oXGOQjbP2TG5yr5DnW9TrWioh7lmM6Ho1PCFq3P61pQIFiI71ya24WluEw40IxBipfCFAdmzL9QJXBulvjUCTtF8tb+A7/6EJXVyBPvprB/pIh+xHcuJnQtJ3atgma8IR90xtulZnywhItS/FQl/3yV4DJd4NYqudmqtLL6ENrpFvUdpXTPLxT/gO9cSADCQWYMZvEC1jYFM5a1f2cr+RerBI41IvdmSbpS5iupRP9Z7fB6+y6WsOcViL7Hdy7Ady7JBcJZTeqWjVQ7KD1gpMLMmIuZMRSOU12vW724hqc00/lntSPuk1yr7Jmbx59H6P4B34nMeCWpG6R4vjTFFdo/mOLAcS5VC67Qhe7NkuAmUY8yBgipdP7JRL9Rx7UjsOcSWPNzmAsIQDgDRiogHBpIcWTGJypAip+vFjjQhU41Qp9OyVNGrzKV88/1O7838+xzOu1ze+ZlM36AZgxSHDNj1pZC9vYi9i5qD0px2Uh1rkpwqVrgWCNwqRX5dSltgPhntZPJECwise1J3LnZzPk5zIXQcQaYMViMUnsOKMziKMUd6AKnWqFXs8SvUdSgrB5Ziuf9u3JRt3A5scs+j2+fxZyXw4Qp3jnAjLdLlzggxcvgLA5SnH+JLnCsEbrUivw7JfGtYoFy6+q9V1YNR7w5n2VPFthmMr7LZs6XpTg0Y7AYRSOVtP1DIxWcxUGKX4GO41YvDuySvGYqm837pdPKF+8p6LInC+ZkMu2zmN/nMEGKE8BI1T/FpYvRYjCLnyjnnUZmXC1wAsIRXmuS+Db2FnOUM5dLqwr8/t4qiy3qO0Vj2+cL5mQxbTMZ83KYIMVzu6QjFQuMVApmfKAYbNSPl/NOVfAxM6YLnGuF7nUi/zZJaEtvtzKbZAzR+6Ej7Otzr2Db5/HnZHfOyWQomjGaxfstRuEsDjrjUu5JNItXCRygcNzqRF4N4iCG5G67UvscqX7eD53QGo4dkWub0z0nk2GnYMayFN9YwAbCUTRj6WL0nNyMhR71Iu/G3pBOSQFP+gaV+vt7oJPUyLXDs2zx7DmZDFskHKkZK7Z/4HhTasbSWRzst+RmDIXj19wX3N5HbOPWMXrqmJw6Jhe7Onn1nbz6Ll59F7++e8AlaGANdbGFDdKrkS1s7JFdokaOqIkjbuKCq4XXyxIOnQB/l87LVv58Ass2t2dOJgMJB5kxmsWxxSh2vCldjBZjszgw4yrB5WrB1Rqhay0UToM4uE1ytYQ92zttquPzT11ef+qW9pnH28+9Mr7wzv7Cj/BlAPHL63lfBefNCMn/OrTg6/DCmRGFM6Mos6Kps25QZ8dQZ8cVz44rmRNfanurzO52ud3tCvukSvs7lXPvVX13v3reI/q8RzXzn9T/+KJ5wavWhSltC1Nal6W178nt9CtjF3YKByj1b9HJ7RQuxHfaEbkIDUpxZMZLiV1gpCKzUIpvK5IebyqacSXojK9IzdirQezb1BvVKfnlTf2o00/1zr4YffH1mMtpYx3T9Z2zDFzx4zyIhl55RtfyjL3Jxr75Jv4FpgFFZkEU82CqeTDVIpRmFV5sHVFqHVVqc6PcJqZiYlzlxJtVk+KrJ9+qmZJYM+VO3dR7DZ88aPrsSdvnzzu+SGZMT2Z8+ZL51SvmjDesmVnCHzK7Q6o4gl55Vv51OqVs4YZ86MRQNXMyGfIUh7P4GngUs0l6Lr6H2rMPdsYoxcFIVcWXCkcEHKdBHNDcG8mULL9TrHrs4ehzyWMuvh7rkKbv+NbAOdPANdvQPcfIk2DkSTC+lmviTTTxyTP1I5sFkM0C8y2CCi2DC61CKVZhFOtw6vjIYpuokgk3SifElE6MK5scXzHlVuWUxOqpd2s/edD42e9Nnz9u/vxJ8xdPm6c/a/nyRctXL1q/Sm6dmc76JpvjXMyWAfqLdBp54h35XfZkIVINcJws5rxs0Bn3W4xCM/65CNSUfKQCG3X+uSr+RTBSgQbHvV50rUHs1ygOaZP41Aq+CsrVOv187OVU/StvDK6mGzhnj3PNgWjwxl6QizfJ1CfPzJ9sFpBvHphvGVxoGVJkFUqxDqOOj6DZRBbbRAM0k2LLJ90sn5xQMeV21dQk+tS7tZ8+hGieSNE8x9DMeNn69au2r1+3zXzDnJ3NuVXHRSX2V+iwRH2/0thzC0RzspgyOijFF8D9lqIZbwPn4v1m8ZPwsOFClQCMVDVC1zqRZ4PYt1Ec0NQbyZA40LoNHdPGXErVvwol45xtgNB4KKDxJUM0ZHMkmRCgGgxNVIlNFJRMrIJk7tROu1eH0Hz2uGmAamYkt8541QrQpLTNSmmfncVels1sg1PMiOnweyWXS7rt84WotZGZMRipcpiLCZ3LckFnjB1vwvZvNwXO4jIzrgBmDGZxusClVuhRB2rKv1F8vaU3iiHZ+6ZJ90IKlEyWgUs2sBv3HCMPvBFSjU+eqS/ZDBRUvnlggYVMNeEy1ZROiC2ddLN8UjyQzJRE+tQ7NdPu1X8CVaOIZvpzrKAQmq9ft81KbZ+V2v5Neue3WV0PmkBPMWI6PlVs+zzenOwumWr6pTgRLHEUzBimOGj/uNIUB/uti2CJA4SD2j/fRnFgc29oW194W59dLHWUA6gmA5eccW54Q3c88BqvXBMfkqkvGaExD8gHqrleaBVSZBVGGR9OkxsNqqZbiAt9KlQN8hpFNF/CmprxUq6amRDNrDcdszMYdkSeczl7xHRi6ri2BJYtniVDg8x4iFkcmjFs/7CHlGTHm8iMkeMgM/Zv6r3e0hvNkDiVcsw9CaOvZmFoPKAHexFNvEmmvnlyyWAFVWQVRpV5sM2N0glx5ZNuVkyOr558u2ZKUs20u7VANQ8aP33UJEfztAWh+Sq5FdgNLCgMTVrH7PSOb9M77AvEJ2iskdF53Mybn8u2I4CuT3bZZjLRLA7MOBeeUuV1byhgY0+3UTm/UDkHijlH0UhViQnnSo3QuVboVitEZhzY3BvS2hfbKVn1iK53JVPfJXucO8HInWDkRTC6RoJooGpANRVaIMmAeKJZhxePjyiZEF06IaZsYlzFxHiY34k1U5Nqpt2rm3a/YdqDpk8fYQn1+dPm6U+hDSeDhJKhQQU1S4pmTgZjboHoVPFI6GQz+AvxXXZEzpyMDhkaNFKB9g8tRolda/LARh08ayI1Y2yjDh4ZgMeb/cxYhMw4uKUvhgmEY+VDHH0129CdYOiZa+hJRK2NiY/MaAAayxCKVSjgYh1RYhNVYhNdOiG2fOLNyonSvgYZzbT7jZ88BGhAfktDaoBqMCdObZ/1puObt0A132Yw5mR32uVyAqo5f1Y7xSzRmvweuzy+Ihc0N6CaWkRAs3jXT2T5LL4bLUaLuUdLwCx+WmEWByleB1Lcv1Ec1Nwb3i6JbO/7IbFc90omREM08iJhaHzJpv75ZgEFyGgsgqmWoTSrsGLrSJhNN8ptYitAy5dAn3SLPiWxdupdKJn7jZ9A1fRrbQbndwp04jSABtRUBqgJWzzLLotBgn3zH7tyLUe0Oa8LhJRCQaHX9tL91hJoxuAhJex4sweMVIPM+IKCGXs2iH2gGYe09sV0Svamt+q75Bi44Q09QUNs7E028SGb+uZDNIXmgUUWwUWWIRQMTUSJTXSZTUy5TSzshhPok2/VTE6sm3Knftr9RrlqYHh//gS0fNMRGmlByVWT1q6IBthovvAUjSWCHfMf0GEKeg8UsRS7PhkjO7jfQovRZXC/BZ9uQ8eb2NNt2PFmGRDOYDP2gyke0yk5V9ht6U0a44KhMZKjKTQLAGjMr1OQakBBRZaOB2gqJsRVTbxZPSmBPjmxdnJS/ZS7DQjNNGTDCgWFoXkBvEbe2qS2z0pr/+YN5sRzoHDs8ngriF3lPdjh9Lvo9Igl50vYYA2aBbY2ihdK8R/wzEXoeBMtRuGzJtsKwWHDXmjGWIqXy2ZxgTNIcSEYqRrFQS290UzJ5WL25MD8UU45QDXXwBhl4kM28S0w9QdozIIoZtep5sE0y1CadUSJdWSpdXT5+JhKm7hqOZo79VPuDUQjD6lnIKTQrNAPTWr7LFRQ6R0YGiLnB3x3ajPWKL/Ld8QSiSdcaNkqtDYyQPbZcDEqNePVmBljjxqjUyrwrEkZ9qzJeWjGYBavw0aq6y19kQzJmcKuiYEFo5whGlhQxj75Jn4ITZE55GIRAo0mosQ6qnz8jQqb2KoJN+kT4+mTbtVMTqqbcrdBphrkNbKQmv60BRujYEh9LWuIZa0NzG+IpsMul/1tJjOJ3q04pg+rnYiaHjtCjy0eLLQGXGgWhyMVthhdC80YbdRlZix9SIl/Dh5vOkpnce9GsKYIbunb/bbVwoc8yplg6EkyBDZMNvbJN4aqAcP3dapFCM0itNgqDEomqtw6utImthqgSaiZeKtucmL9lDsAzdR7wGum3W/8VCGksAmzv93MTGmTdX3fQDRSJ+62y+0JLutSRDOsdu438b4jcmz7tzYyRkA4cL8lM2P0kNLWIvYOKjgX30/DOuMTFXzwkBI6F68RetSLfZt7A1v7LlDZ392uGOtKHOOai3HxBmhM/ApNA4pMAylm12kWITTLsGLL8FLryDLr6IrxN6psYqsnQjSTbtcBo7kDvAZD8wDkd7+EUhi+0YQpnxVkXgP/4W1zuuyIXGcKky8auMoeQjtp7YJ5OSDzZTgUX2CLUULnotzO5ST04B9o/+BiFJvFD/U7pRJcqRG5NfZea+51qxWeobKXPqJb+JB1nfAGHrlYckPJYGiCqEg1lmGlluFl1lHl1jcqx8dU2cRVT4gHkpl0u35yUv3kQWhkDbEspDCvgQ0xRAPz+0377HR5fs/JYtqTBSfyO3r4A9EMoZ0ClnhlAfe7IrE9gWWfO+Dqts9lfU9kLSCxlpDZK/J71hZyNhRxNlM4P9O4u4q5e0t5B8r4Ryv4x6sEp6uF5+jCS7XCy3ThSVrP/lzG+ldNs+PKjD3yRjkRRrsQYHKDajLyRtVUZBJAMQVoaBYhxZZhZZYR5VZRFQBNbJXNTbpNfC1CMykRQyO3G4WCwuZvhYLq58Rp7d8gNMiJs5j2+cI9JEYrd+BWcIgNRiVfsjajZUoU2ezyQ+NzdwzP3TM6f9/o4kOjS78bOzw1dnhqcvWFmfMrc5fXVm6p1h5vbbwyJnpnTfLDTwkgTgsifRKc/1lY4fRwypeR1K+iaF9Hl8yILv4sjDohoMDQLVf7co62A2GMC1HfjQSNhmx4Ld/Ip8DYt9DEv8g0kGoWRDUPLrYILbUIL7OMqLSKqkTVNOEmfUJCHUCTqKgaLKRQQSkmlLy1gTYMWhtkw0O1NptymbVswQC7kf1RXlltfNHqmGyd3WEfLXb478LL/1nk+J8lzv9d5v7RCs//rvL+eK3/x+uCcBtDcFsicNuiVbbHqOyMV9mTqPrLXdUDD9UOPVY7+lz9eLL6b680TrzWOJ2meeat5rl0zfOZmhcytS9n6znix7oCLvrupHGeeYZeZEPvAkOfAmO/QhN/CkBznSZFU26B0MRU28TRbW7WTEgAqpl4G9KBBTWcakBIKagGW2ihhjhV2vWlw0kog2FP5i/L7ijsABPDcB8YnS4Of63Xo49Xuf9n4eWPll79eIUbbrUnbq0Pbp2fyoYglc0hqlvDVH+OVNtxQ233TfW9t9T33dE4cF/j8CPNY081j7/QPvlK53SKzplUnXNvdM+n613M1LuUpeeQPdoRP/oqYYxT7lgXwMXAg2zolWd4DaABqvErAmjAYphmHlxiAaqpwjKi0jq60jqmenxcrU187YSEugnQaybJE0rW2sjHqC+egjUoGqO+lDbE8oRK7cBaG9jygYaYxFtM6E5v6hmOC7oP6PT29R0Nef7RCrePll39eIULbpUHbs013DpflQ2BKpuuq24JVdsWobYjWm1XrPqeePV9iRr772kceqh59LHWr8+0T7zUPvVK50yKztlU3XNvdC9k6F3KHOWQPcohZ/RV/BgnwhgnIqomA4+8cV6gmgy9sWoyCQDZZBZSYgarySKiwiqqyjq6enwsffxNDI1cNbAblqvmQdO7Quo1XINiY1R/1WQy7HJ77DIZD2vBFP7uD0AnnVKrucb94xWuH690hZLxhpIJBJLZFqa6PVJt5w313XHqv9xS35+kcRCTjNbx5wDN6dcQTZrO+bcAzcVMPYfsUY45o68SgGqciWNdiGNdSQbucjRG0GhMAimmcjQVQDVRVVY36NaxNQgNsmGsoEB+9+v60Pzdb3kubYhR1yfLb7DQQl0fym98t202K6piYGszJCZA53R0ysdrvHEr3XGrvXBrfVTW+6tsClLdHKq6LUJte7T6zhj13TfVf7mtsf+uxsEHmkcea/76TOu359onknUAmlSds2m659/qXYSquSyrJuIYZ6K+K0nfDaLxBJIx9Cky9oXVFEg1vV5sFlJqHlZmEQ65RFVZIzTSgpInVH/VyMYouRMjrxk8RsHVBDZ8o/k7p8uexPOidYoVjmWG5IJuAjr2Z+Jwa7wHVBNyGXVQTQnqvyRpHEDV9ETr+HOt315on3ypfWoAmqxRCmjGOkMPdiPpe5D1PQvGXSs09KEY+1FM/KmmQTSz4BLT4HLzMGDAlpFVVtFAMkA1UjQjCinZkcuADTFSzWzpGGWb3Tk3X3iJ0iUQDX3yORgToDP5YCRunR9unT9uY6DKFmTAUeq7YqQGnKRx8KHGkceaR58CNCdeaJ14BdCcTdU5/0b3wlvdixl6l7NGXcGPvoIfjYwGoXHP0/fIN/AqMLhWZOhDNfEHaEwCS0yul5mGlJuHVVhGVlhFVVtK0VjH1djE19okACdGdiNriMGWD60mHjV9prDQAqsJ6WmUHA2ymzegtQELLRRSWcy5BaIj5A4mbwQPhwM6kw5HqWy8rrIpWHWLtJp2xQHJ7EuEknmgcfSJ1q/PoNEkw3gCaHSB0cB4AmhyRjsSRl/NHeNMHONCGuuWp+9O1vfMH3etcJx3EVCNP9U4gGYcVGYaXG4aWmEeXmERWWUZVQ1UEzO0agaH1CePYEjJjlykG2KwlxiwIZZ6DRqjwPNE+cLtRGbD8K3NYOFgvfKci3dVtoZjmY1cBmQ2ZsAaMJugal5iyQ2NRvdCuu7FTKgaDM1oZ+IYV4jGI1/fE0hmnDfF0Idq7EczDiwxDgRozEIrzMKrLCKrLaPoVtF0KxkahZCadLte1hBPla4msDWoApp+rQ0KqeG6vjz+qpwOGkO+mhiSxeCbQDuHojPUdsWrbY9S2xkDXQYZ8EONw7/D2AYFpX0iGVTT6RRdBQ/G0ICOhjjGmTTWFUoGVFMh5EIx8qUZ+RUbBcBqAmgqzSEawEURTbw8vyclAjQDhm/FhEJj1LAbYrgGxTbEMKTsSNzFOQx824jRYNp5XlgPoOxNgNWEGbDGkcdQNU+1fnuhdQIVVIruORBPoKAuZepdzh7lgAfVBDoagGasGxkaTaEBlIyRH80ooBRVk1lIhVlYpVlEtblMNTewglJsbZBqpGikXiPbEA9YnsOQ6tcQD0ZD5MzNZCQ3gsOpv/ABtMMRiDaHZAAcB+6BdubI7xpHnoAmGHiNHA1KbtTvgaYGoUFG45o31h1Wk1fhuGtFhr5UJBnjoHJQTSEV5uFV5hHV5hF0rKAgGllrI7NhNElNuTvEakKe34NWE+CEF9YUWoPOQTacybDNZc8lsAcstEbECNCRSCQNTO6PPm81jidr/PockwxIbiAZmNwpcESATc3lrFEOOSChHHPlknEH1WRwrdDQG1ZTAHAZqJoKZDTmEdVyr4F9jWJ+D2xtZF7TXzUDxqiBw7dsDSrt+uxyOSFlnSPCMeCLMToSiaS5m3foVqHR+ddaZ9K1z7wB19kMnQtZupdydC/j9a7k6jmSRjmRR7sUjHYtHONGGetJ1b9WrO9TYuBbOs6/fFxgpWFQlXEw3SSs1iSi3iyy3jyqwfxGk0Vss0Vci2Vci9XNVuuE1vG3WscnttkktU240z7xXvukex2T7ndMvt86+V7zlAfNUx+2TH3U+snjtk8et336pO3zZ+2fP2//4kX79OSOL5Pbv3zRhlobxeU5mr+xcwV5a9NlnydwpnUKxH+2tRnABf1RTgf9OaOyw/FZ2cYo8tIQ4rKwvOXh+csjCpZHFa6Ipqy8QV0ZW7wyrmRVXOnq+LLVt8rX3KpYm1i5NqnqpzvVP92lr7tXu/5B3fpH9Rt+b9j4uGHjk8aNz5o2PWve9Kx58/OWzS9atiS3bH0Jr9et21LA9XNq696MDvuEMks/orUv3tqPMN4PP94fXDYB+AlB+IlBhInXCRODiVPjiqc/a5qR0jHjdUc/r0lVOFdAqsnuhAstRrdgiIXWkBSGuzmQDvo6vlDM4otZfBG80OtBvwrELOzqZQmwiy3oxS4hfIF+FfSyhcNePaK+ze6P9Nb66S131VvmorfMSW+pI7iWOOgtvgSuRRd1F18atdxx7GZvS8en03+vm/WWOTOlXbYhRmOUtLVh2JOFe/KYbdwRdH0jozPcV/8T9xvaWNMPROqs9NFe6qa9xFV7sbP2oqvaCx21Fzho/3hZ54eL2vMvaM8/p/39Wa3vzmjNOzt2a8C0OOo3GV2z0jr6nfBC4diThesJHXT20Lu+kb7/obUz0r/l73z9C3KtzqZIrXXBWmuDtNYEaK/2017po73SW3uFp84yd52lbjpLXXUWO+kudtJddFV30VXteRdG/+TzaULx7MxuxeEbbG3I/FXE7iLme3ucV/l0nO+SNbfFa64P01wXqvlTsNZPQVpr/bXX+GuvAox0VnjpLEeYXHWXOANGi5205l0ctydi5uuWb7OYWEFldNiTuPOzGW9a3rXrG+m/opLp8ITiBU7PNbbd1NwUqbkhHABaH6K57rrWT4HaSEeA0TXIyENnmZvOEhedJc66Cx11FlyZ7J9hl9uDHWPm9szDdz+o/Ytd33DUlEynqpWlv/eWxrZ4jc03NDZFa26UMloXrAlEFKi1xh/U2ipvwAiJCDLSnHfB9NeEbzMZttlMW/AsOSuqqt8x5nA/8IjuK5lOQjZdbfst9Z8T1LfGaWyJhYyiAKP1oZrrQqSFFggLzU8qIlBoWgsc9XeEfP28zj6XbUfieZR09vXJnzMeEYJ3fLGS6eyLJqrufai2/bbaz/Fq226qb41V33JDY3O0BhIRYgQKTWrYWKF5ai92Hb0leMaT2u8ofeeKmNw/vdB6B4vBn1ImnR6+6Jurqar7nqruTFLbcVtt+y21bfFARFtj+hUaYCQrNCzUNJe4G+yO+ja96yiVPaKF1mAE77ijTDqZFR36x56p7Huiuuue6s47qjuTVIGIEtS23oSFFqOxKVpjc5TmxgiYaCEyRtqr/TUWe5hfSt6W21Hf835amyEZKZOOf0o17nAK7pfHKnsfquy5r7L7nuquO6o7E2GhJUgLDemoP6M1ATobI+xDCaWcvzVGDUlE8abS6IjEfduj83HH3uL2PYGAflfZ+1B1933VXXdVd96BhQZ0pL41Tn1rrMYWmGgo9deHam6IsDh8+23t35q/FSkM91ppdOqZvCmX0nCHXuH2PwXXvie4fY9V9j5S2fNQKqIk1R2w0IBhx6lvgSLaHKW5JWbs9phEfPVwP9J7vK80OqklbSqHXuAOPMfoyBj98jtk9EB1N2ZGQEc/JwDD3harvi1e6+f46y9o7xHBO/4qpdFxelqGO/K6HxoZICAiwEh19wNk2Go7koAZ7UhU25HkeCf/HT/P+/2Ucuj0SSTfe+fgDkvLCnFR/HUfqDXACBQaNKNdd9X2PjoQRfjzZ3V/n5Ry6NA7eoxOvpKbjiIXxdeYYT8Chr3/2drA7C7OP5jfg2kqh05cTp3awee4Ay+GqCxFOuj1vqcqh17buaU3MN7n/D2YxeA7yqGz/2Yh7mgabv+zP0XnSOqnV9JLmt/z/D2YxeA7SqDTzRPZemRBOjDLB4tF8c6RVNMzKfhq5uC3/gHuKIFOZmXH2OPJuIMv/1g4h1/rn0x9SnHy9IoAAAD/SURBVGn5ACCG/BZKoBOaXvOnyurQS82jL6Mya4d83x/mphLonLxbjDv25g+EczAZdzDZ9Vn5h6Ew3HdRAp3jSTQwXimay4DXB17gjrw+drsI/W9Aw731D3BfCXQCUqrfSecZ7kja5vA8ruA9HEj9TYJKoENp6DY59Qp3JGUo+TzDHXuzwCeH0TPsE9Z/8wce0X+uBDoSicTzRQXu8OuBvfKB57hf079xz65p/9Bd33DIlENH1Nt39XGp3q+vgD0fhiPFkRTckdT5Pjm0xj9+jHi4H+a931cOHfRjZJR3nLhXYu+ZNdMlfUNYXmRmLZPzrygoGWVl0pG9iX/ti/8HXThxN8W3HisAAAAASUVORK5CYII=;strokeColor=default;align=center;fontFamily=Helvetica;fontSize=10;fontColor=default;fillColor=default;opacity=10;textOpacity=10;" parent="1" vertex="1">
                        <mxGeometry x="3885.9999999999995" y="1966.6699999999998" width="30" height="30" as="geometry"/>
                    </mxCell>
                </UserObject>
                <UserObject label="Microsoft Azure RBAC" tags="Icons" id="123">
                    <mxCell style="verticalLabelPosition=bottom;html=1;verticalAlign=top;align=center;strokeColor=none;fillColor=#00BEF2;shape=mxgraph.azure.user;strokeWidth=0;fontSize=10;opacity=10;textOpacity=10;" parent="1" vertex="1">
                        <mxGeometry x="3900" y="2426.8399999999997" width="30" height="30" as="geometry"/>
                    </mxCell>
                </UserObject>
                <UserObject label="&lt;font style=&quot;&quot; color=&quot;#3f497b&quot;&gt;&lt;b&gt;Security and Authentication&lt;/b&gt;&lt;/font&gt;" tags="" id="124">
                    <mxCell style="text;html=1;align=center;verticalAlign=middle;resizable=0;points=[];autosize=1;strokeColor=none;fillColor=none;opacity=10;textOpacity=10;" parent="1" vertex="1">
                        <mxGeometry x="3640" y="2432.29" width="180" height="30" as="geometry"/>
                    </mxCell>
                </UserObject>
                <UserObject label="" tags="Icons" id="125">
                    <mxCell style="shape=image;verticalLabelPosition=bottom;labelBackgroundColor=default;verticalAlign=top;aspect=fixed;imageAspect=0;image=data:image/png,iVBORw0KGgoAAAANSUhEUgAAAJMAAABOCAYAAAAkRSTkAAAMgUlEQVR4Ae2dz28cSRXH5/9ACIQWIUAsGyQEag5c4IbQCqGVECcuc2FvHBBCYiUOICQkBghKRESQsgkEyJKQKLNxwD+y8SZKHJFsslHWmdixjTeO48SJHeeHHScPfXv6O1PdXdU/q8ez42qpVT3dXb9effzq1avqck3c4SRgSQI1S+m4ZJwExMHkILAmAQeTNVG6hBxMjgFrEnAwWROlS8jB5BiwJgEHkzVRuoQcTI4BaxLoCUxPnz6VCxcuyNLSkrWCu4T6TwKVw3Tp0iXZs2eP7Ny50z+bzaasrq72nyRciUpLoDKYZmdn5cCBAx2ICBPD06dPCzSWOwZHAtZhWl5elqNHjxohIkwIobHQ/W1ubg6ORLdxTazBBC0DbaPCkvV63759MjU1tY2bYTCqbgWmK1euyN69ewuBpAJ3+PBhWVhYGAzJbsNalIJpfn5eDh48mArR2NiYoPs7d+5cyBhXQVKvh4aG5NGjR33VHM16TWq1mtTqzb4qVz8VphBMGI1hVKYCoLs+dOhQTNMAkizd4a5du3z4+sOeakodIPlnXRxOeoRzwQS76OzZs4KG1sHDe+jyrl+/rs8xuJsVyCxpJWZk4WGr4fkgeV47dMpJL9TMMAGONLsIkAG2PNoEXSU0GEE0hehO8W7vj5Y0PGilujRbDfGgnbyGtHpfkL7PMRUmGMRZGrusMxKjOYzqTDDxPvIxHevPX8jNRxumx8XuEyBfHREsTxqOppg8jTDBtoEhzEY0hTY1BjRa1GOuyzfqQQdA3zs/L18ameqcu6eXY5UtcoNdHLs2/va0NKm2FW2seNiJGwJVVzqmp9hpoTgtadbbXa+vOUNJtKTZqLc1Ke09z5N6s7q/ghhMaFCMutLsIjgc0fBVHGk+KxUmgPTVsekORCpQb1y7U7J41ERKY0rQwNquriWNel3qutPvKiOjwRAYuqImw9QZYcYGBk2pM7+aF5SH0NWkA7MuyxL3QjBlsYugKXo1FWLypqsw1S/e0oJEqC7cf1xcPM261h3ARqS2Ss9AAwUilYHJ88Sr6bpb/gHooOEzXbz0WqS94cOE2Xw4DHVdinoP76CBe31E/VkqTCatRJh+P3WvcHGN0Bgg02fEBqxJDL4yMNU06aEAaWVLe66vRKa7PkxnzpyR/fv3G2Hql+mOa9eu+f4tjhZXnz1P1EoA6heTRZe9GLSJL9akZ2G5J9pYZWDSdrNgCTZakuYJym6IHy59vl8+TMPDw3L8+HFBqNpKuO73idhvjs8kAnVg7kE+ifBt/gXTeDWEMW3D+AiZhqnhrMPU1YJtB2vc+O/cN5VJLX/O6w5Mx44dE5wjIyNy5MgRfyTXb1MaurrtnblvhAmgQXsVOdjF1WCbaM+goYw0ZdBeZWDS5tuFydMNAtR7jaZ1X1kMJgAFDdUvx4k1kd89EPn5PZG/rorc17CBURttJIYA6fLKk2LVYCMn/vUSFl2X0m1UbZuzVMzH+BLzUEaTKXHSuzlmbj/sW5g2XrQBevWWiHp+/7bI5HpcEAAHviWAha6tqEZCyol2jpI1tVd0qM34qZPCBAPedSXdziW7SfU54xgAZN7RMnXSrPCiUpjWX4iMrmzK7sUN+cncun/iGvfwLOnYvRKGSAXqB7dF1jQaKim97M+oVXQaJ5IKG1bVYLp7kWjdn8xLM4xvUSuhO1VgY/oGmIR+MH+0p3NQwtFZr8SDXxlM764+k29cXZMd7z3UnniGd0zHawtmmADWcFUrVNhYKiCmQgphIHhdADzP4LyMNmRH+2DOL3AwBhPKXqMRrFbIA5Piv/IHDZ7QfvIUR6bWgW+sZ7YH1mFa3Xwhb8w+kR0XVzKdeBdx1GNxMxkkwPSnFTWGveu83YT6Pru9zogp4wiw1WwoHusAKn/ag3DmhAniaDWlUYdjUx3RAayGVDWjYh2mH95Yk1f+ez/XiTjqgS5M7dZ010fDUdTo7nqLJGAVpr8vPpEvTtwrdP5rKfylyo/vJgM1bXlxwBbJf6CytQbT9ONN+fK5JXn57J1C59cmlmRpo2tVAxaT3fSm5rM7m6O5gWrhHlbGGky/ml6VL4wvlDrf/DDcd80/E/nlcldDvX5Hb3hb9zP1sAEGKStrMH3r/G35/Nj/Sp0//SD/JHJVHvBBauRe1cUaTDtGZ+VzwzOlzu+cv5W73pXNzeUuiYtgDabPDk1J2fOVf0/napFqVw3kKop7WaS9QSrm4jjRW3Ru7uXjk/KZYx+UOl89NZO7Uapcz5S7MNs8gjXN9O3hG/Lpf75f6vzZxfzdXKUrLbc5HHmrbw2m376/IC/97WKp8y839AvZsFLA5Feqdg14XnFu7/etwXTn8YZ85a1L8qn9E4VOxF1ZD++GgtUBcAfQAw6/01sP4w0GoF5/b6GzDOXr79wUjPI+GodmyuSjUfBYKa3BhJSHZu/JJ/98ptA5Nh9u/CvrXYgIE0OsbzIdHz4xTx6b4sTvs4HVea32NSZwG1Ynt5iXMv/mF4hfmHASOV7KfrtjFSZU7kdjk/KJP76T60Sc6KFqJEKkhro1TdE0iv9mA7cnXTsrLdVJU+MSkLy5Mi8Hk1Zyf7hwU17aNSIf3/mfxBPv4N3okWWiV9fdRdMp/tvUwO3ZeG5iYWcBWkJexSuwJTGtaybWonVvTb77j3Pysd+8rT3xDO/ojq1cgtIuT0oD51rzpKuhei8lL/XVPr+uDCbWe+7BY3n7+oL8+t1J/8Q17qUdWJ6rdmvR69PpSaRlkfA8rYHTnickHXtkM61Y4j29UTlMRWuDjweiAPE37CmsEdcddg3wqB3DHLnCUvc8+Ma/s6oRhnvSojQTTKb7KENLWs26dFdOdvPAQl0u0kvshrnC05rtZ9EDTjHbCgELRm0EiCFAivqc7LsGkhoSNQyeR5f2svsLlstyz4HuakdsHBGVkCmvhPsKqJ0luUGe/nJcliNaPiVrAhcvj/JSzkutZsIHmf2yrTLAgZbCia4tqpGqcVqaGrItXXWpblfejIPPtuML+aFJ9DvPMV5Uy+nuUyPWxKvHv3vD8t921nzP5FYI0k6ArVuv7FdamDg/t7i4mD2lLXqzmukUXUOidzFvYUPAkj5v4jvh7seQF7Wf+mUKgcyiThLe1ZejfAMaYeLEL7bXefhQ43Yun7eVFKqZ6GUDx52WvnaB4zKifNrdhkkTBFXVdj/MK10z5euaTOlSa0XzK98cPkwTExOhVQMEiSG6PWwasbGxdQuvuW8UNqyvfuMKNkTEaYnPlJotzWfVWRsoSDfUvTCvaONG72fNowuFFj4CnUW7dZPKdOXD9Pz5c5mcnPQ3ryBAuvDkyZMyNzeXKWGbL0X3jVK31KlmcVy0IdNqk7WhewuTbv+nTBo0rbqG5z5MfIaNKtK0FCAbHx/vyT5Npv00VZiqWbZbFKaM3VxIK5jyit4nsCl5sDH9kHGo9XQwhyKU+hGCiSndvXtXTp06ldj1AarLly9XMuoD1NiIXt1oTL1WYUKZ7X9QEG1ISsYc0qit0gDPkkeshIEh7hv9wXWI5ViE4je0MDG5mZkZQdem6/J478SJE9b+7wlsIewHpf5LMRUiXkdhQnntfuqUH6aO76mm2TfAn9Kz4RpguUx5NGIDg065vEZ3C2o2sOUwESbkBaMbxjeMcAKkC0dHR6WMKwH/UizL1s0YXVZ/sNHYPWTMkcZt4EAMOxTbXuroKLDT2KoLwM/OUIbEPPRdIA1xfyRalVriGvAsokLXg4bUgaTeg82VZ5Mw0yao1EIMMYrr3X6ahobMIqjAF9X1egd7Bxg31zLlZbrf9XfF8tCONPF+sBl+4vaEWSqX/E6qZopGh/aBFlIBil5Di2F0iFGi6UjbnpkQ4R8gQmu5o4QECFPIJVEiPUPU3DAxHfxHAdhLUZDU37C3dP/yK8vG8VXuM846bJeQ3VyFPZwvysIwITbsqatXryYCBbiwmy80GgDM8i/FerXP+PaAKaG7tCyAUjCxLJhuyWJPsesyhb21i1j6wQ7pTgjPB1ZTZyswsWjo0qIfdKrdngkiZxdRgpZCf62Tst6pYluJpbYKExKF0d1qtbT2VBQmZxexGSyHXDEAn5dmqYrl3DrJWYeJKWO0Bg+5STM5u4iSGpywMpgoopWVFd8AB1TQTM4uomQGL6wcJooMDkf8wx93DK4EegbT4IrQ1YwScDBREi4sLQEHU2kRugQoAQcTJeHC0hJwMJUWoUuAEnAwURIuLC0BB1NpEboEKAEHEyXhwtIScDCVFqFLgBL4PxdXKZp/jAI1AAAAAElFTkSuQmCC;opacity=10;textOpacity=10;" parent="1" vertex="1">
                        <mxGeometry x="3840" y="2515.48" width="84.5" height="44.84" as="geometry"/>
                    </mxCell>
                </UserObject>
                <UserObject label="Fabric Capacity" tags="Icons" id="126">
                    <mxCell style="shape=image;verticalLabelPosition=bottom;labelBackgroundColor=default;verticalAlign=top;aspect=fixed;imageAspect=0;image=https://debruyn.dev/2023/all-microsoft-fabric-icons-for-diagramming-old-version/Fabric_final_x256.png;opacity=10;textOpacity=10;" parent="1" vertex="1">
                        <mxGeometry x="3580" y="2515.48" width="31.42" height="31.42" as="geometry"/>
                    </mxCell>
                </UserObject>
                <UserObject label="Databricks" tags="Icons" id="127">
                    <mxCell style="aspect=fixed;html=1;points=[];align=center;image;fontSize=12;image=img/lib/azure2/analytics/Azure_Databricks.svg;strokeWidth=0;opacity=10;textOpacity=10;" parent="1" vertex="1">
                        <mxGeometry x="4086" y="1846.9999999999998" width="30" height="32.49" as="geometry"/>
                    </mxCell>
                </UserObject>
                <UserObject label="Azure Machine&#10; Learning" tags="Icons" id="128">
                    <mxCell style="shape=image;verticalLabelPosition=bottom;labelBackgroundColor=default;verticalAlign=top;aspect=fixed;imageAspect=0;image=data:image/png,iVBORw0KGgoAAAANSUhEUgAAADwAAABBCAYAAACNQMdtAAAFOElEQVRoBe3a7U9bVRwHcP4NF9RlGhcT3WSajfgQcOg2JtuyDF8QX5hlmW9kxvjKJZi9XOKGU0cIuMSELS6LIzqFUdpCHynIGE8BSh9obyl9AipPLaWP/My59XZ9Orfnnt7Cpvcm5LY955LzOefe7zn3tmXwP9vKSuW9NOCAt3+bgsrOSTj86zi8dW8UDt0dgTfuDMOBjiF47WcDvHpLB6+0qeHl1n7Yd1MJL37fC+XND+FIe3+pmgUSWKyulUZYOqWla1gKLbHyJP3/SCmd3hvFvJZSWkppKaWllC4mQ3DHSimN6xmhn0spLaW0lNJSSgvNDZL6UkqT9BJJHSmlpZSWUvrZTem/FgNwtMtI/Vz6gdFNEhNUdURPaet6GGplZnj3wQwV+KreRAUhPUhUsDcUhbPKOXjvTyMV+GLXOGm7qeuJBg5EE9CgZqCq20QFPnf/EYTjCWoI6YGigCOJbWgcWoD3eyxU4Oo7BljajGDb/Hg1BMxmFFsupEAU8NejHjgqs1KBX7+lBePyBrbNCFqlY6BucB7cWzFsPdKCosHXppegRj5HDVYyy9i2+iNxFnpIZQP01/DIBRux4k77osC3bSvwocJGDf5pwonFosvk08duFsqB0b5x0guojHajBis8ATjWZ6cGN+mtvG3+asqXg+Xgl2cWeY/lK6QCj/hDcLyfoQZfkM/wJvJ1qx+L5dA3bX/zubBlgsGz62E4rZmnBp/8fQI2Ivjwue9aL4jl0L8417AwXIEgsG8rBvUDC3BC5aACV3WOAbMWwrUFDP5NYiyHVi8Fsf8vXwExeCUSh/PDXqjVzFODDR78iJgCYajU2AWD0TFonibdiMDBWAIujfngpHaBGnzXjA8aNL+ieZYbNaF7NE+TLkwKgtEUcGXaDx/pFqjB3024sAOA5lU0vwpFZtcnXZgUBF8zr0Cd3kUN/nLAjsWiAhQ82Y2nfU+yMOEFdzg24NSAmxrcoLRAIBrnBaPCK7NLoqELLUyw4D/cQRZLCz7x0AQenhuC7F7gW2gIHXG+hUlesG45BKcNHmpwTfcsjC0Lmy7YO65Jr2gjjVuY5ICn1iJQP+QtCtzjXM0eQKL3YqPzLUwywPZgFBqGfSyWdoTbTfi7HxK12OjshUkKvBiOw8XRpRSWBvzNqIfEVLCOmOjshQkLDsa24fPxZTgzmDyVEVYo+DODs6jbtuxeEGt+RoGXvjApiya2oWlmhcXSgj/WMIAe4Im9iYnmFiZl3mAEzhi81OAPeufgpZY+eO7brpL87WnugQPdRlHSu8PsS/5e+qzaQQ3e364pCTS9A8VAVyiTDxzYa/iLQTow+mV7esNK+br8hgwOymapR7pakXzAz4LvWZOBJeQaruyc2DEs15HlP8ip0Y0GGxsxLDiAng7q3cQpjb5Z2HO9e8fBCE6L1v57L86CEb1ezRCBa+RWeOGGbFewtCP9ptycmkBS4MvD8wXBx1UO2Nei3FVsOrpCaSG6pmv7nnxBlwIrnasFwTuRyByIZP98iwJI0E0jjtwRRp/UaZzYpeXB2zuXyCRYrg4J2h0M5wd/orXnBR/ZhUTmQCR7PvTh3ienM1KnTmn05uqYKwdc3WPetUQmwXJ1WHTfXM41fU5lSY1uDtiytpUBPtZvh/LmnqcipDgY335vmwoqstCt05k/n8gYYdQDdSqGRaOnlHt/VDwzWK4j0tEIvxHJfKaWA76gY+CU3g3720q/RuYaKfaeQ78jz7x+c05p9EHrtBee1kQW0jEIfV6b+w1lzggj9H95+wcTs8aZcNEYIwAAAABJRU5ErkJggg==;fontSize=10;opacity=10;textOpacity=10;" parent="1" vertex="1">
                        <mxGeometry x="4086" y="1903" width="30" height="32.5" as="geometry"/>
                    </mxCell>
                </UserObject>
                <UserObject label="Azure AI&lt;br style=&quot;font-size: 10px;&quot;&gt;&amp;nbsp;Service" tags="Icons" id="129">
                    <mxCell style="aspect=fixed;html=1;points=[];align=center;image;fontSize=10;image=img/lib/azure2/ai_machine_learning/Cognitive_Services.svg;strokeWidth=0;opacity=10;textOpacity=10;" parent="1" vertex="1">
                        <mxGeometry x="4077" y="2000" width="55.17" height="38.94" as="geometry"/>
                    </mxCell>
                </UserObject>
                <UserObject label="Azure AI Search" tags="Icons" id="130">
                    <mxCell style="shape=image;verticalLabelPosition=bottom;labelBackgroundColor=default;verticalAlign=top;aspect=fixed;imageAspect=0;image=data:image/png,iVBORw0KGgoAAAANSUhEUgAAAFUAAAA9CAYAAADcUiVtAAAIlklEQVR4Ae2cC2wT9x3Hq2mapmnTpGmaulZVN1WbpqnaC7UVZQxGVyHUhzpKO6AESmEdG9PUdVPXNowQEkKBLJCE8AyJm5AHJQGWBhIH0iQ8wiMEKCU4TuJn/H6dz07sPIDv9HfmxOeznYvvf2dvYOmru8OX3/1/n/v9fv/f/2zzENL4NeAYx+emMRy7HuRJZR0HkcV7J+08eCidRuT038WnN4PY2uzHSgUjWO/WsVBcDOCqYQxjd+6l3KW0gHpRO4r800OCISYCvqbSi6orAXgDd1MGN6VQSWr/47iPCsxo0KmEmxKoJM1pRWY0zOhjAre1d0TWqJUdKplc1lV7JYnOaKCRxwfPD8tWb2WF2twzIjvMSLAbGnwgWSL1SzaopC2KdDBV+6RTkHoSkwVqqiM0+gaSiJWy9ZIc6tn+0bSI0GiwhZ8NSVYFJIVKVjtvVXqRoWDSUke6g5KAlRRq9kl/WsIM32Ryw6VY5koGteFmEG+UM2mvna30y4AkUIdH72FVBYPl5R5q2tTIoPqSN6SL/Sy6tb7Qfuk5Bu8dE3edLsMo1TIgCdRTt4JYWuYWrfW1bjTf9MLn800rnc0HxQUPVlfO/Lrvn2DTGyppVd6uZvD6IXfSerPCjdYedlqQsWAPOlgUts78+n32cWpgqUaqzjWOI93DWFLqSlp/rXNDbUoOaCTkdpUXy8rdgsdR1TWcHlCZwF3U3whgYyOLxQddovXOUTds7vipfqHPj5orfhS3D4V0+LIPvWZ/3Ii+ZWSxQiFsXOtqmdRC1brGUdThx+tlLrxy0ElFa6tdcYGWnvch69QIcpSjMZXXEsB1feybcUXDCh6f2j5GBeyM0t8zfBc7Wn14+YCTukhURaYv2T+nZvFhYyAmyGjA2c0j2HbaBxfDt6Po9Agab9PtgLxQz/QGsbTciZf2O6irpN3NA9qm8mNTU/zojIY6dRyAx8uNWgI6o2L6sX98mU7POm2kjt65h1wlixf2OSTRa4ccvLRXmX3ISgroRHnIP8Ovs0e6mGnHT/yk8UoIlQDdcJLBor12ybRN6eJFaXbzsKCUn4pObq0lpaD6CrcMkGhdpnAk9GP9UTcNpogLlQDNbGSwcI9dUl0a4Db3F/v9ooCGQZNaHF1ftypdCX159ZADLaoAbD5xH3vHhZp1yovnS2ySK3py2n5GXJSGoZJtww1utP77ukewPysqnChs9yUFOCbUuhvDeG63TXKtrHTwU19ELY0ESvZ3fsadsFSD3qR8ylV6MeAUvuLiQe2xjmHhHht+XWyVXH85yoVKZu1oMGKOc5VDnJs2YGFF+XSw0w9SFqd78aCuqXFiXpFFFv35EzvHaa2NLtTMRj5Usb5lVDpgZRPXXA7Us5og5hZZZNOqwzYOVNqRuqmJ21qRSKXh32sKOwye+OWAA/XNagfmFJpl04sHLByoZNLKbgpSKwG72rg1tU3FUPNt4T4r+hyxl7WTUDsGApi9yyS7+i3cGXp76xA1qJ39XKg1XW6q/i0us8E/wv8ewSTUzUoPntk5KLvqurnNf0sPnbqa1RTgZcH6o1bq/r3X4OLNW5NQF5SY8VTBoOx6p55bV0MloFlctGY3jeDYNYYD1eJiMafIJIl/7f3cBzEhqDctI5hVYEyZruu5qyq9naz9k6+tW1q4JYXcqLJOp2T+Lau0caI1BLXsMotf/MuYMu0/5+REFYHQrSNPqWYONqtpmPeUSm/z4jd7TZL61xYRrSGoG5vd+Fm+ISV6u9YMl4cfWQTsgJXFB43CSgF5iJKj9Ma0tfGkVXLfVlZNRWsI6h/rHPjJDoPs+n2tGc44QAnUsOqvsQlbLdKPXtXGvjG1XS7Z/HIOTSwKQlCXKCx4crteVq2tEQY0DJZsOwdYNHzuRXEHi5ouFm0qlpfqkee39Lgxq8Agm18nvvCHamsI6vP7Tfjxdr1seisJoJGwhOx/fMmJnxcYZPOJ8Pv7p84pqL8tN+NH23SyaHW1SVDK62zcjkAISHKO2uzFHz6Rz59Ibr+rtExB/dMxO374kU5yrRIIlICZV2LA7CIDtiitIVDTQb2qY/C3ExbJfUjE6dli4xTU/HYPfrBVK6lWVQ0KilAC9Fe79byxLC4z4v0GM3acsXH07nEzZhfyz5fan3j2CdVQTa3qZvFEnlYyZRwWBrTX7MXcYr1k45DSx7DtSag9thF8P08jiVbMAOicYp0kY5DKt2i7Txfqp9Kf7C3YZ8TjWzRUtbxSeITOLtJRvTZtX4TYW1Rq4kItueDBY7kD1PSqwiiohpKUf6ZQS+26NH2Yqa2MmojZn+A1MuN4NGeAmlSm6Vsics7ThVpq16Q5/mRsVVz1ciOVHL1RbcYjOf2i9cvdusklZrxWyOxksWCvTvS1aIyXlg0jM/FJQGj2D+EFcMs6goc394nW/L3ahFAJUHIOjWuli40XyiZ6VMKSA5X8wwalE9/J7hMtjTV2+pucLObt0Yq2T2OMNG0ouiZSPyZUu38cT3zUj29vUovSYoWeN1FprAzmlmhE2RU7Lin+fv6+iVYqnPG8SCVv1H/hw7ey1KL1VKEGm5vNqLvmQGajCd/L6xNtk8a4aNs4qZp4OpUQKnmz4JwL38zqfaBpGCyvMYdZTm5jRmr43XXHrfjGxt4HisNgVpEW3mCCj6jDICO3wfF7WFptwtf/qXqgKAaPbumD2hn7R20JIzUMOL/Dha9tUD3Qfxl8N7cPZ7XxfyIkCCqB26EdxsM5anw18/Z9rZ/u0qDXkfj/ZBEMlYC1+cextt6Cr2Tevi+1pGoQTDDxN/4IpxlBDZcDvWcMa+rM+PKHPfeFnivV45KR+y2UMItY26Sghg3pPGPYdd6FReUGfOmDnv8rPZKnxuo6M5rV3B407HuirSiokYZJp3C8h0XWaXtIr1QaMf+A7n9K4bG3acT9nuo/u61yCB9nbb8AAAAASUVORK5CYII=;fontSize=10;opacity=10;textOpacity=10;" parent="1" vertex="1">
                        <mxGeometry x="4080" y="2075" width="55" height="39.47" as="geometry"/>
                    </mxCell>
                </UserObject>
                <UserObject label="" tags="Arrows" id="143">
                    <mxCell style="edgeStyle=none;html=1;dashed=1;" edge="1" parent="1" source="131" target="109">
                        <mxGeometry relative="1" as="geometry"/>
                    </mxCell>
                </UserObject>
                <UserObject label="ShortCut&#10;" tags="Icons" id="131">
                    <mxCell style="shape=image;verticalLabelPosition=bottom;labelBackgroundColor=default;verticalAlign=top;aspect=fixed;imageAspect=0;image=https://debruyn.dev/2023/all-microsoft-fabric-icons-for-diagramming-old-version/Links.png;fontSize=10;" parent="1" vertex="1">
                        <mxGeometry x="3333.5" y="2271" width="36.19" height="37.32" as="geometry"/>
                    </mxCell>
                </UserObject>
                <UserObject label="" tags="Arrows" id="144">
                    <mxCell style="edgeStyle=none;html=1;" edge="1" parent="1" source="132" target="109">
                        <mxGeometry relative="1" as="geometry"/>
                    </mxCell>
                </UserObject>
                <UserObject label="&lt;font style=&quot;font-size: 10px;&quot;&gt;Fabric Mirroring&lt;/font&gt;" tags="Icons" id="132">
                    <mxCell style="rounded=1;whiteSpace=wrap;html=1;fontSize=10;" parent="1" vertex="1">
                        <mxGeometry x="3323.5" y="2348.6800000000003" width="50" height="30" as="geometry"/>
                    </mxCell>
                </UserObject>
                <UserObject label="Event Streams" tags="Icons" id="133">
                    <mxCell style="shape=image;verticalLabelPosition=bottom;labelBackgroundColor=default;verticalAlign=top;aspect=fixed;imageAspect=0;image=data:image/png,iVBORw0KGgoAAAANSUhEUgAAAEwAAABPCAIAAADOYbTSAAAUK0lEQVR4Ae2bB3cb15WA82vilVlBgOhgVbPsxI6zOY7jxKske3LijZ3Ekr1JLK8ciSiDqQBIyrREq1erWZZkFVqWqEoRHdMHgzIACYCdYkXHHpARTQkgRYu0mN2Y5x6cOxcz791v7pv37rsY/iD3L/D3g38Bxtz3kP9fovx9JL+zSGaz2dREfEzo77fzfV8T/V+6YqetsdPW6Clr5JS195Q1ctLae9IaPdkdOXEv2ulJTk4vx5dnGslUIjkpDMSuePxN56nXPnGuR2wNRs96lFiP0utQeh1GrbOQ68zkWjMxI2SjiV6L3vwpFLN5/w9AJkYn+m/THHDe/gLqa2jm1jc7N8Lsm3u8bx/0f3gyAJwPmC4FzFcC5it+02W/6bJvRvymy6zpS+bIjcmB0X9qyFQyFbtBsO8f5+tMocaP3T9r8zWdi5663+fkp0cmluP60q/9bofrBBfhd54l16FCw8fc5v19h7vGvdFMNrt0/1bkzO8KMpvLxi46yZ+3Rta20JvMkcN3pvofrIjHT9HIdwKZjifD7depBjC4zkRvPTyKh57CsxW8ZOUhU9NJX/MloQENNiAB5OLU4KoFcO42rTBkJp3xm68G1pro9XDP8TuZRGqup1VUVhgy+Nldfq2JqQN7P7uXyT3rCWah+7iSkEN3Oc9LFt86s//jjtwzn0IXIszlVm4XMj04xv/+0EDNLv6vJ5ITS8rCsrncdP/oGN0z5ggM3/MO3eWG7nBDd9gZyeuDt9kZ4QZvc4N3ZnV24A7Xd5vu62bT04lFwOZ/tTKRTGcyPQdu9jQ246+2jnHR+R0U1RMPJmNf4YHWDvYPB/D1CKEB6ToTXW9mak1MLcbUYmytianBmBqMVqO0GqPVGKVBKTVCqRGyBmXVoKt2p//kzSU+DysDOSH0Uz+1CLWYcOxuUao5YzKR7L3k4N456G3AovWtPbUWvwaj6hDPCxb3ixb8RQv+Ul6IF834JhO+yeSekxcw10aTa6PJudFCrjc7f4z4P7/77CCzuVzP/pu9dRi1+ZOp2MgcT6EyIfRzTWepRmygtplqhNh3DvYeuPXgrnfMLUxwsQlvbNwbHefzMuH9h+QtD2WMi47nz+kb42Jjwf70kqfuFYjk9MiE61cfhxvNwv7rhWBzliFXwPP7vaH6FroOZptODTv86anEEkMx18jTKSsA2XeLwusB/BXzsEdYyIkxtpf71b6eht3Mzz7pv+jIZDILnfld2FcAMoheCtebuK2HE9Pxoi5ORYfpt/b1a9qY19pH3AveiKLXrohxuZDZTJb5z73Rda09u64WdSiTywbbrvU2fMz+uHX43rL2vkXbX4pxuZBTfaOely1sAxq77Cza3yjdQ/yo2VdnCR+/XfSEZ2BcLuSg3edqRD0bsEFnoNDdbDYb2tURrTXTb+2bHhkvPOHZWJYLGbuGuzWI+9VdD4T+Qo8TQ+PUG7vCjebwiSesn4XXrqBluZCRCw6qFsNf2z3ZV2SFHHL4iTqAfsk86gou3elsNpvNZLKZ/F9e/8fRrC3/mc18u6VnuZC952xsnYX4xZ7pobFCDOHcfX8tTP+mfbJvuPDb+ZbE5PR4t7/X3MFvO+19/wT//gnv1s+4rSeYrceYrcfoLceod49QW45RW44S7x6n3zmObzkcsy51GlsuZORzG1trIV7fEx8uUpUK7L0WqTXxW47HFy6cplPpoU6aeucQsR4NrW/xrreQG03kJgux0UxswDwbMc8GzL0Bc61DnOsQ51rY1oi6azD3BpQ53LnEgK4AJFNn8by+J16s9CaYL0VrmvkPP09ni6/+6elkeH+ndwPa39DCbm7nzBci5+2jLmEED416Qg/cwqgnNDIjw67giFsYdgWHXcKwIzBKhZPjS9rrrMBWK3LOTteZ3a/vnio2XHvMl8O1zez2s0UrdNlcrvf0fd9aNNAAh+GLk6HB+QN4BfXlRjJ6upupMzvf2J14MFnoVsh0Raht4bafLRrJMSZCv9zaq0GDpovp5HdYKFkuZE/79UBdi3tzeyaVLoQUzB1CTSu//UwhZCaV8kEXeho/9mzePRV9wrRU2PK3siwXkvvgs3DtLnrLsaK9Bi1fBWpa2A9PZQqeyXh02PUri/PtfbEutui1K2hcFuQDb4x4ZRetgntOdBX1KWjuCGiamQ9PZXKPTzzxkfHYLSI9nSx64coanx4yMTFFbf8soMJsr7VML1AdF0wdAXUz++HJdAHkymIs3tpTQk4PjrHQeVxjcKq14Yv2hfrwAxdDqmb+ozPZRcuT0/0PouesI27/Qu3MtycGx4STd0cIIbvkgmARyPTDlGomr5rJrWbSq0wqnRybmowM93Xg5O/2cQqUVEG+tquL7ICJ947ElK2C4eJ8L+fr06MT/Wdt7G8/DWww0386MN43NP/bQj2by/JtV+m1KL4JDloujwX6Cs8ptDwCmU1nopccIcu1kKkjZOkImTsE81XBfDVoupqfJ8FLzLtHXa+04AowoDI5GxFhb2di4bpgJpW2v27pV7eE2oqURbLpzLCV5//7eGCtKVKDhjWosNbs23lmeuGfFZKT05Gjdz2NEKdEQgrYWwvjr7WGT3UlxqcKweZbHoFMjk50rd3Rr24NK5pDSktIYRHkZkFuDsrMARnmk0F+JcorEatGx2w/FX3SrDjkDroaQKIeiXbS87uc1ftvkewrWKzeItSgfg0UVEOCGhUaTdyfD/Z3uDJTj9RU0/HkyB3Wv/0UXQf7FBijQFgFzMoRnxzl6mFu9+VUYrEJ7BHITDIVPnGb113gmy7wO77gd37h3XHOu+MLfsc5buc5DjwfbO2InLw/aOcXb3QWgzNdCahaXL/YNV0sT4hdc/ONoL8O4+pQXgMFNJBfhQSVSE8NwqwDuPcO+UwXo+2dkfYbActldutRcgMm1JpZBeyVI34p6qtGvNUYKUN7lKjf8mXRVXruzj4Cmcvl54dkIplKpJLxxKyk8od5SafSS0yIc7ncCBN2v7zLL7d4Wy7PdTZfifc/IF9rCdSZAxpMUCJ8DcRqUL8K8yvhoAbpqTX11Jl9tai3DhLqsFCNxas0cQqYVoK42kgrQF4KcdUILUfwF7ARm29+y4X645CFZzyFJTEZJ/5yTJCh+KstkwtUYjOptACcD9WZA2qToEJ4DcxpEKYG5TSoT4X6FCivxLxqlFVBrAri5UhABvtkIKcASJWBVgCszEjLIJ8CxX+7e/JJCdPKQ6am46ThHClDKCXQc6Z4kpDL5dfN3iO3Qo1mbw3m0yBeDRxUwbwayYsS8SpRTol6lahXgfJy1CeDeJmRUxg5mdFXDXJSkJZCTDUUlJvILYemx4qkzfNjs8KQU32jtP4LQgFRSoQDL6TjC84H2VwucuhWTz3mV6O8GmZqkKAC9StRnxLhVCijgjkF7JPDfhk6s1aBlMrIKkBOBnPVMCGHcBnMieGAzIT/fu/EQJGixHcCmU6mY18Tnjc/8UlNjBzGtacXT9nS6VRA/7lQh/jzAYTZGtSnxGaj51MgrBJmVDCvAHkZxOZvGcQoIE4GMTKQkUKkDKakICsBWSnk+XfzGB+Zj1SoP30ks9lccjIeHxqbCA7ELuGuPxy0qwFBinlqjL62juTC6+esE9N9o9TPWwUNxqtgrwZmNKhPiXIqmFNBXiXkl+fDSKkgSgVxcoiXQqwMJBUgKQcYqZGUQXQ1SIlBtwQga8CeUws+FLN9PQKZSaX7rnsin96M7O7sbb/Ru2dG2jt799zo2XMjtOd6uP1GeEaPtHcKLR3U347h/9HmWgsTMigoNVFqyPO7fZGrrsJ7WWjxH7jB12OCAvOpMK8GZtX5UcorYL8cZlWQT4GEqmFegfAK1C9F+GqYkUKE3EjIjaTUSEghRgKQEqNTCtLVoPuXbRPhxTbcj0DGRyZuv9DUr27pUVhCSrMwKwpTUIEFFJhPgfrlqE+e7zUgQwJyNCiDQ3KYUkLdmzD2/eO956zxYktiIeFgJ47/xBRSYYLCzOcDCHFqhFdgnBxhVIhPiQga1NMAEZvbiV/vczbCPhXileVvJS6DCClMSEFKrMfFgEsK0VUgWw1SfzkcH16wrvsIZCqe9B244dt2xvvBWXbbWe7D/Cf7wZl/yLYz3AdnmL+eZv6W//T+/byAXBHavgpfsA8w4eQCP4Q8RphJpKLnrNRPTUItPDPNmHgVzKtATplPX/yy/OyKN4KC+fKQ3T8eHhwPDw05A8G9Nxw/MfEyyCuGKAlESkBCosfzYiRFIC0ykAod/ucDD4jwY93NHj4CmZ/Zs9n45HRyKjEj8YfK7GH+MzGZNyYm46l4Ml8XLdrqo8Z0PDndPzrBRSLHbnN/PkyvwwIaU0AFsTOjlFdBPqXRq4AZJcKrIPxFeKADz6QfqTNkc7lRXMA372blICU2kmKjp1pHSJpokcFTBTjEeqcE4CSQewNG7jwz2OWdjI3Mn/Yeh3zUvZU56vvCQb7aTG5C+HqwtwYLqky+vCDcjPBK2KuAZiBhugHqPXFnoV6HPEHbJoiSQoTY6JEYcLGerDK4qwBnlcEtMuJlAF0BuKv1dxRNd9caGfOluXaeBWRk783BxrZgDeZTQ35V/gHjVSZ+JtfPr/sKeFYCSoT6ZVt8gQxp1mOm6Swtm4GsAjxVgLsKcIsMrkq9QwQ4Kg3OCp27XOcu1TOVmPM/D8xtOJ8J5KHbvY0t3nzils/dHmZtM5nNQ0KvHOpRYYLxYib9eKFkLiC5XG7gOkXIALIKzBOKDLOETpHOVqW3VepdZVr8eS2+RkeXQM7N+1MPK4DPAjJ24HZfrcWvhHg1ml8q1Pn5cy6AnDy/EuYh1aZw2/XFH/IRe9AlB4gq4zeElXpXhc5VrneW623lOmu5rrtU6y4zOn79aephvrXCkJl0JvFgMjk2NTdUcrlc7/6bsbrmkBz2KxBWhTBqxFsAycmhsBLzbj+TXHRnGDrTjUsBQpSHdFXqXZV6Z4XOVaHzlOrdpTpb6QxkyU6qVO98c/dcRftbQE6EBmLn7bGjd6PHuvqPdg0cvx893hU72hU90hU92hU7crfn086g6Qr11kFq56nE2De79cChm9EX9/QozYIM41QYq8rPNPzDgTobSU4O+aUw9equB9yCOVo6lfZsOUJJIM88QkeFzlGudZTr7KV61/M64nk9WaEnZUbPX7+pkn4LSKb1cmhjS6ymWahp6VE1h5XmgBLzy0y8FPVWI14JwophSgxRYvDaS7qRYGzuWRplI35LB/Wbff5GU1iF+eWIX54frqwC4uSgVw6y8nzWxsry+Q257fhCGUXg4E2nEqREsPthDO2VWleF1lauvV+hd5UCTgnQ9bMWGrpI7r82wn5zs5YKmc3mhl1B70dn+T8dY977jNlykv3TCeqPx8g/HsXfPuL5w2Fi6wnqo89Z8Ev/0Vu9XXRi4ptIztKOhQcGvvL43j/K1qN+pZlRILQSZJQGr9zIyGFWCuNymJGhXjVCvHtoyP5I5W6ciXC6cy4NNDtQHVVaR6XBVW7oFmldZVpnid5RDtyuN/L7b4yGipS2lgo562hyKp4Ym4yPTRVKPj1IpOYeg7kwPqYkxqeE43fsL+TLRV45RCqNrBxkZDArhUg5RElBr8TolUPOjSj+9iFWe57Rn3f/1wH3JhMlhzxiwCbWW6u0tiqts0JPlBrs5frusiayxGB72dRv5R/ra+7w20HOXbZMJXDqNlUPB6QYoYQZOcRJQUYKstVGXgwQUiMuBXgJHKjGOJmJk2JcNUqJYY8IcIv0riq9o1Jrr9Q7KvTuUsBRAtgq9PdqDP13F/utYXUg06k0t+2kT2UiFRidDyNAS42kFCSkoEcC4NVGUgKQYoAQA3iVwS4xWKsNeIWeKdXnl4pKwF1msFforeUGa6nRLQLY5suLLzyrA5mvdDn9Dg3AykyMFKJkejIfQMgpB4lqIykGcInBIzEQVTq3WOcS6zwiLV6h9ZTrnOWAq8zoKtPbKprul+ttJYCtDhp0LDhQZ0fcqkEmx6aIN3f7pSZOAuJyLS4FaDFESAykGCDFRlwMeMRGjwh0iYx4hYEs1zkrdVaR1lGhd5YZbOVaW9kOe0kTUQJ2v9E2Fn1C3X3VINPJFK89K8hMrAQmZEa82kiIIVwC5YdrPoZ6j8jorDK6RABeYfBUaG2VWmulzlVmsJcZ7lXoHCV/d65pIkpg21sHJ0eLvK4wf9ZYNchUKsWAn3NKmKyGKQlIigF3tZGQzDyTVXq8yuARGZwio1NksIsMtkqdo1LvKNfay7T2Up3jeb1rzY77JU3OMsi6uX1y4V8WVnm4ZuJJ9r0jjGx2B2wgJDqiWseIDEQV4BQbHWLILYKocogoB93lkLMMcpQZ7eV6a36U7nT9m667ZMe9kibXcwZ7AzhKPuGlxFWL5CQbpRpBWgrjEogUA3SVHpcYcBFAVEG0CKarIKdEd1+20yppcot0nkqjqwK0lxisJU33ynfcK/v7/dKdXWu093+oxUt1gf2d8wdnob5qkP4L3YRaz0lgogp2V4NUFUjkBcGloOMVS9B8dbADH3UFHriFvg4P2XSmax3krjC41hhsz2u7Sj7qXrOj+zlt1w+1nuf197Ycnl701f5Vg4yPTfo+6XA3IgEp6qk2usVGVgxb1QCLXJiKDD+WOaXT6fFAv2vbCVuVgfihvnvNjvvPaV3P6awVO++80RLp4hZ/EW3VIGcHVeRrnPjdXlYOBKSwYwMaOnlv/h7tsYGXSWe8u7++I9fZy4y2CrDrRxbCcmF64Mn/JrXKkLlcbmpgNLjvGvM/x2OdxGNURQ8D56yuLUfpXR0j3m/2GUXPnDOuPuSsK/Gppb5Dlsvl4gVbnDmeoso/C2RR51bK+D3kSt3J1W7n+0iudgRWqv//Bcc7ZPAg2LBCAAAAAElFTkSuQmCC;strokeColor=default;align=center;fontFamily=Helvetica;fontSize=10;fontColor=default;fillColor=default;textOpacity=10;opacity=10;" parent="1" vertex="1">
                        <mxGeometry x="3329.25" y="2035" width="33.5" height="32.68" as="geometry"/>
                    </mxCell>
                </UserObject>
                <UserObject label="" tags="Arrows" id="141">
                    <mxCell style="edgeStyle=none;html=1;" edge="1" parent="1" source="134" target="109">
                        <mxGeometry relative="1" as="geometry"/>
                    </mxCell>
                </UserObject>
                <UserObject label="Data Factory" tags="Icons" id="134">
                    <mxCell style="shape=image;verticalLabelPosition=bottom;labelBackgroundColor=default;verticalAlign=top;aspect=fixed;imageAspect=0;image=data:image/png,iVBORw0KGgoAAAANSUhEUgAAAEYAAABGCAIAAAD+THXTAAAXDUlEQVRoBd2aeVBTWb7H55/3NOSee+2pmXmvpmZ06s3rejUz3S2KAiEEspAEAqjshCw3LEnYVxHc0dZuF2Tfw76jrSIq+yKruLMGRFlcutveprune7rttiWvzrlJwKXRDkzVq0d9y0olN3A+fr+/7zk38Cvd/7uvX5lG9PjJ3+98mqL9SDn6IHD4fuCte0E355Q35pTX55RX55RXZlWDs6rLs6qBGVXfjLp3Rt09rb40re66q+6YDu6cCbn+0fGvv79n2o9+5btMRJr9ovjDH/zHPvIb+dBv+KFk6KHk5kPJjYeSaw+kV+5LB+9LL9+XDdyT9d2T987Ju+dkl2blnbPyjhmybYZsmVH0fa66NLP7ydPvX7k+Ey4wEWny0XtTX0ivz/penRFfnREPzogHpv36p/1670J135VcuiPpvCNpvyNpm5K0Tkmab0ubJmUXJ2UXJmUNk7Jzk/LG2YBH34yasOJXvsVEpOnPCqa+VFydEV+ZEV+eEfdP+/VN+/UYYLruSDruSNunpG1Tkpbb0ubb0sYFGNlZrey0Vn7xQdCtR5WvXJ8JF5iI9ODLi2OfkYOz0Jw+ZE7PXUn3XclimMXmnJ+UNUzI6idkZ7TyD7Tyk1r5udnAxjs7f5r/0YRFL/0WE5G++G5scE4yOCdZMOcuTFoHdEbWOiVtmZI23ZY1TsovTMrPT8rrJ+RnJ+SnDTy14/K6CfLkVMAn/5xcen0mvGoi0uOfvuqfVQ3ekxrNgZMzJW1FPFTS0OTIz01CmDNayHNKK6/TymvG5dXj8sox+el7yv6HRSYseum3mIg0r5sf+uj9648UXc+YI2u+LWu6LadgGibl5ybkZ7WQhwpbrR6GrBgjy0YVFZMBVdrQrx9/svQSf+mrJiLpdLrpv5+5/llAJ6wBWeuUrHkKwhiT1oDCtmDOODSnaoysHCPLx8jSUbJ4RFE4QlbNqS7dX2GjTEf64rvbHdOKzhk54pEjc+Dk6M2ZgLX2gZY8qZUbzSmH5pAlo2TRCKkZURSMKDTj/kWTygf/GPulVixxvelIT+ef9M7u6nno3zy1UAMNk2T9JAzbaQhD1o2T0JxxOZW0EmgO5CkYIfOHydxhMnuI1EwFlU8kfvfkH0us8he9ZDqSTqe7/fnZvkfKi7dhpyEYkqq1U1qyTkvWjpPV48akKUpGFEUjZCE0B8LkDJFZQ2TGLTLtFpl3V3luOvWnpytT6MtC+vrxh013VI3T/ucmyfoJ8vQEiZIGeWq0ZNU4qoExsmRUUYx4CkYURnMyb5HptxSpN8mUG/ITN2XZU/5Ns/lP53/6RYa89OJlIel0usEHmW0fKs9qSdTR5EmtolarqB5XVI4p9GGDMIpCCKPIHVbkDBvMuUlCnpvyEzekydckyTckGZPkuemMx0/++dKFvv6Ty0X6+Nuxc3cDzkwqTmrJWq2iRquoGocwqNagOShpijwIo8geJhfMgTCy5OuS49clx675Hb0qPnpNnDohq5jY+/G3M68P8OKVy0Wa1813zR678EBZi2Coji4bpSZHoRlR5I1Q5iiyhhQZt8hUKmyUOdclx6/5IR7f96/4vAflnTwqTh0K6P+w3mS7louk0+k++mb85J3Amkn/8jFF2aiidFSftIIRRe4IMgfCKNIWYGTJ16XHEc/Rq+IjV30pmMODXu9e9jw44Hn4uteRYZ+84eirHzd9++NXL/qw9DMrgKTT6TrnMk7fV5WOLJgDeYYV2UOKzCF/VAOoCX7OnEHvQ5cpHo8DAx5J/W5J/W6HbngeuuFx4nrQ2anM0c96v3r86Y8/vdb91cogffHd/ZrbYeWTAfrJGVHkDEGejFv+i805cUN6/Lrf8WuSo9eM5vgcHvQ6BM2BMAf63ZP63fb3bdvbu3VP75Y9vVv2X9l68KbbngHXfX2eqddCS0eTTk2mNtzJvTitaZwpapsrv/6o9avvP13s28og6XS6Gx/XV82pC0b9oTnD/plDivQhRerN58xBTXBN/D4K2+Er3nqey54HBtyTBtz397vt69u2tw/y7O513dXjsrPbOfGSKLHHeWev884B591XXA7c3HZoyOvIiPjYmDxFG5A+pioY3X7rUYeRasWQnjz94ez04dIZNUzaEGWOIsVY04YmOHLV9/2r+iY4pB8eD8jT76bn6d26p2fL7h7XXd0uid3OCZdECZdEO7qc4jsd4zqEcR2ChEtOu7q37O1xT+rzfrff78ggmT4cnD8ZOfyJnmrFkHQ63eP5r6vv7szWBlFhS71JopqGYYO1hsJGNRtlzrvQHI+kfvf9/dv2922D/qC87e5x3dnjknhJtAPxxHc6bu8UxnUIYzv4Me38+E7HxEuuu7vd9vd6HewXvzcgPzYYkD0aphnb/uXjRzqdTo80/fntc5PVp8dLzmhLKZ2dKDWqfqJUL21pPaXxkvoxpNHiekojxRdGa9IHorO1QelDCrSHom0H1TQyR99shwY9UbPpm+A5GCpsi8yhYIQx7fzodofodoe4DmFCl8uuS257ezwP9PkeHpAdHfRPuaYquht745MWPVL/vQ5W8Z82lq7ZWLLGonTNptI1m8rWWFZAWVWssa5cY1MFxahcY1OxhllG2JZCsYoJVhFhq8FtC6BYebhtDrBMpoWcY2aNBMIzAbWHLjQBmpxBz4PIHCps+4zmUGHr0YcNJq3LaI4gBsFEtfGi2nixHfz4TlFi17Y93R77e73f7ZccGVSkXFNqbkc1z8D7FOiS/xnnDcVr3ski1mcT5jnEhlwoi3yoTQXE5gLCsoCw1BBWhYSVhrDKJ6zzcOscKEY2zsjCrTOAdTpgpEFZJdMZySC2hZs2pNDvoVQTDHrrJ4dqAhg21ASGpL1gDuSJ7YDmQB4EE9HKiWjlxLTzt3c6JXS57u5239/rfbDf7/3LZPLVoPzJyDOTOXokUbn5+lxiAQlR6ZHyF5CsCwkoDWGdj0OqXNwaIS1QpQJGKrA8Zmabuia+XZByU041weLJ0TeB0ZzeLcZa09fAc+YgmMhWbkQrJ6yVHd7CRkYJd3QuZO+9AfnxK4H5E5GnJ7L1SK4VFi9BynveJQqJUUgwNAQjH2fk4YxcnJGD21BgmcAmHdikAUYK2HyUZpf+Rny74PgN6eFB72cmp/+ZGnipOXEGc6LaeJGtvIhWTjiCCW22D222j2zlxrQLtnc4J3Zt3dPtkYTG6diVgNyJiNNa05CKCIrKRoMz83FmLhRFZZMJmOkYMxWzSQGbj9Hs0tbEtHCPXBMfvOyZZNxDF9XaLlRrsAm6RItqTQCbwGAOhGllhzWzQ5vtg5tZwU2s8BZOdCs/rl2U0LVl9yWYvUP90qOD/jna8FPjWUu69MIs6V0qImyKCUYRYVNIMAsISJWHwHJwmyycmYlBqjQIZnWcxkrFQ84zD1/xOTDgbujorXDPofZQtO1Qe46hplETGCYnvJUT1gJhQprtgptY6kZbdZNtWAs7qtUhtt1pR6frri63fb1eVENka8M+0Gb+DNLienhhliBMsUGFhE0B8gpR2ebgtlmAmYFBITBGMo2ZbEaeXJ8EN1N3uIeiM0EiOhPs6NLvoQYeVNMwbHByoDkt7JBm+5AmyBPcyFJdZKoamSHNdhEt3Jg2x/gOl8SurXu7vQ6ghsgaCz05nvEaSIsab7FLNsUEs4RgFhM2hTizAAlRsXKAbRYUMxOzTYN22SSbWR9b5V7yXwldjvv73RbCBs8Ei2uaH90OO9rYBPqwNbHUTbbqRlvVRWbQRRvlRRtD9gRx7c4JXVv2dHsc6PN977I8cyzk1Gu5tDRSKWFbQtgW4axCnKXBbfNxVi5g5QBWNqRiZQLbdIwFQ0i3PrqKn/0b9Xnr3b1bdva4LA7bczVNmWMMGzSnkalEMIEXGIEXrNWNtqFNVPZECZ1wnJL6fA5flmWMBdeNLdsl2xKCVUrYlRB2xbhdIbDTALt8YJcH7AxgrCxgl45BpWHM46ttk2meZf8d3cpL7HGO73KM7VjYQxfCRjVBE2wCdaMtBRN0wSbwAsP/vJX/eSvlRWZIk31ECy+mzSm+A1Y5bIgBafqoum4s/ZcFzwrtS8ZZYpZAiyASpRL858DsMhBVOmaXYmZzbBUv4w1Z3dvR7Q7buxxj2vlRbfqafq4J9OZAGJuA89b+563Ihs2KBsugC4zgRlZ4Mye6Vbi93Xln17Z9PbAh0kZVdWNpSyFtXLLxqFnSI5URdmUGMKNdBdAxe+SYfTbGycLsMzD7dMw+DWOdoNkeWyXM/q2s7p3wFnZ0Bz+yjUvxBKMmoCZHedEmyACjOG9JNmyWN2yWn9sUcMFadZEV2sSJauXHtYnQ7uR5sN8vdURZuzTSz50eXuJSGWFfjlRG2JcS7GLAKQLsIsDWAPsCwM4H7FzAyYFUnCyMnYmx0+nsVDrr+GrW8dWCrN/4VP2P6jwjDB0OQprtqLBRSUPmWCoaLCkYab2FtN7CmL3IFofYNqeETqohxCkjQTWjqUu59OIZ78XGM7pEIbErCHY5wS4j2CU4pxhwigG7EHA0gFMA2HmAk4txspEyMU4GxkFgdidorOOruWm4q+YPfnVvBTZYqRqZ6iZW4EWbADQ8yJxNsnObpPUWkrMbJWc3kg2bAy8w1I324c28mFbH+A542Evq8z0xHFi9gkh2yCV2BcFBYpcRnBKcWwK4xYBbiKQB3HyMm4dxczHoGIoiB7LR2Wl0doqZXfJq+xM0fgbhqvm9Z8Wbkg/elp+zIBs2k+et5OctZQ2bpfWbpOfMZQ3v+F/cqGyyDG1hRrax4zr4CZec0b2TT/K/CqmS4FbiUBU4rxx3KAW8YihuEeBqAE8DeAUYD4FxczBuNsbNwjiZGDeDzkunc1Pp3BQzdvJqzgkaL5UuyCREeb/bUvSHbaV/cq/4s2f1m66lFs5Ftu6Vtt7Vdn61PFmdQHFKFHbBdU/v1kODXseHAqpGU1YgeLDuyogFlxASrwqHqsQdKgC/DIpXgtiKAK8Q8DSYQz7Gy4dsvByMlw3ZHLLoDhl0h3Q6Px3+y0sz46WacVNpnBOruSmreak0QcaqN6PYwCv0DbHyDXHwG74hv/YN+7VP2O8kYeY7goJPi9O18uqxf8EscSqgS7wq3KEa51fjDlW4QyXgVwB+OXAoBQ4lgF8M+EWAX4jxNRi/AMohD3PIxfg5GD8bKYsuyKTzM6CoBw4Q0kyY+e9/juCs3hZB9wimu4fR3cIxtwjMLZK+LfrfnOJ+7RMR1hB4ajJZ75JL+cZnbi6oMx51c/HzZ7yFfellLjlUQSRKgiogqAQCBMYvA4JSICgBgiIgKMIEhZhAgwkKMEE+lDAXE+RighwoYQ4myKLrlWnmmLPqzSiOmXs48FIDrxDgEYZ7hOMeEbhHJO4evco59s9hMQWDBqTnbwEXH1uXPBAZG+/F4BmRBDW4sBYX1gChAUxQDoTlQFgKhCVAWAwcizBhISbUYI4azLEAc8xHysMc8yAhVA4mzKY75a96M5pt5kYhBQOPMKBHisDdo3H3aOC5I6bMcCAKbvDYWLrmnRxifQ5hnktsyIOyKIDapCE2a+BdumUhYV0ExSgmbEqgmOgTCDtqU6ogYN1VEtwq2A364NXg/BpcUIs71UE51gKoauBYhTlVYk4VmKgcE5VholJMVEoXldBFxXRREV1UaJCG7qShOxXQHfMxkWa1Uz7t98qtZu5hyKVg4BmKjIqARiEkwnuHzxHD/dLwx9dcqjeYFxAbCoiNGsKiEGpTMbG5mLAsgbIqIaxKCZsyKGY5YVsBxaok7CoJ+yqCXU1waqC4tQSvGneoBvwaIKgBwlogrMUc6zDRyRdUR3eupTvX0J2r6c5VdOdKM+cKpHIz5zIzl1KaXiU052Kac/FqYT7+lwQG3UuFeaoRkjF7CMkjCnePJrx3yJOL9bOk0+k+//bTvnttPXPNvXMtlPrutTyj+y3991sGFutBywDS5QctAw9bLj9sufVJ17stB/64e8MfE82RNv4xwWLtjk1rEzatTdi8dofV2h3WUPGMtfHMtduZa+Ns18bZrou1XxfDXhfNXhfNWRfFXRvFXRfJWxfpsC6CDxUuXBch/I9AT7qnCvMOAl4qAxI0avE4ET6JJ84YPvQyfvS6zAd///rbDXulZmqOWSCb5s+h+fNoCj6NFNBIIY10pMmdaTJXmtSVJt1Kk7jR/NxXiz1Wiz1pYh+aWEzz8aP5Smg+UpqPjOZN0rwVNK8AKE8lzUNF91IBn0Aob+VLkQjv+LXyndMfw783WLFPW396+tQjKwaPYgG1LVCzgMoOKO1BEAcE8UCgA1SAAPg7IYmAwgWQWwC5FZNvw+TuQOYJZF5A6g2kPkDiCyRi4CcBYikQy4AvCXwVwNf/JUheobAhPCMJnzjcK668Y4CyZMWQ8rtO4pE2IIQB1EyExAJKO6DkgCCungoiOeqpnkFyw+QeBiTvBSQ/CkkOkcQBQKzCpSG4NAyXRuGSSFwShUuicb9Y3DtmfcTB2u5BY8RWBmn60/vr4vl4OAMEWyMkW6BajMRFLvFBgNBA5QwUroDcglxyQ0Z5IJeeRfKT47IAXKYCYv83g2Nc3z0Wmleyq6xub9XpPZUf7K44daC6/mTv1S++eeYPDFYGSVmyF49hgBCrBSQ1hcTWGwWzh5ACKKOM2aOo3IHMA0gXZ0+CkwogJRmJu/fXnOzVTnz29dfzunmjFUs8WAGkgbu31kRYgjArEGIJkYJt0DjZ6seJyh41ToECEOAIApyAP0JaMAohyTwRlQ+QS3BS5pCU9MHlgW++/26J1b/0peUizc/Pe2SF41FWIGSzAYkBgpmQSmUHVPZAyQZKLghCDREoAIEIKUAE/J2pksDkWzG5G3QJlQTuL30zPKSwvfWHJ09euuJXPrlcpJ7b1/AICxBmYUCyAsEMvVEqFkRScRaQgvgIiTJqMRLqPbknHujnkfz+7Kfw10Qmfy0XSa7ZgcdsAiEbQcgm5BIap2AbEIyqXG0HVJRLPBDEB0GUSwYkf2dAuuqrnPQAgT6RxXnf//iDyTDUG5eFNPVo9j9jGCBiIwg1IFENAY1CVf4MkgNEChLqx0mfPdR75DYQ5L29QrNMmBVAOtKUj8duBKEboEIsoEv6hjCMk5oF1Ch7QTygdEBGCV8cJxDkpchJfjr/WoX2SmzTXfrxyY/Wh91BNOLRI1ENsWicIJKdfpyUDkDJB4EICZaEviHwIHfmvuiv/vntK9f6mheYjjRw9yYRYQ7C14NQc+TSxpc0hB6JDVRcoKTGSWigQkgBrr9VeV2e0r7mcl/nMtORDl/IwuPMQdg7i5B+viFUXESFGoIqiUARCHDG1du2V+S+zkJf/xoTkZ7OPxWlKfCY9RApbD0ap59rCGqcKCSqIVDvBToBpeufIsQPPv+/8ee6H375ye/jLEHk24uQXtUQVPZgSQhQ9pzwkK2xFfAXxiv7ZaJLjSNdIOKvIPwthPTOotJDDQGr3LDhGhsCZg/1npIPqzxI9IZ6y5W7KzlF1H+NiUjHmvPw2LdA2N8MSMaGQOP0EiTUENAo1HtBQjzYhXkg/MefTDz1LGGsiUhBpfF4HIW0OHvPjZONYcNdPE7UBiXAQ1z2nCpcYmUmv2Qikihdgcf+DYT9FYRR2aMaghqnF86vxg13IXsCXC3qmRgyed1LvNFEpB0fvE8kvg2i3wJRb4MocxC1AURaQEVsBhFWIMIahDNAOBOEs0CYHQizB2EcEMoDoQ4glA9ChHiki/BI7Pc/LPc491IwE5E+++aL8Kp9G94VrU8SmSe5IG0xT9pqvn+b+X438/0e5vs8zfd6me/1Nt/jiyQ23yMx3yNbv1u2YQ+pLj4299nHL13Q8p80EWn5P/hf9x3+F+q7L2wkuaBeAAAAAElFTkSuQmCC;strokeColor=default;align=center;fontFamily=Helvetica;fontSize=10;fontColor=default;fillColor=default;" parent="1" vertex="1">
                        <mxGeometry x="3333.5" y="2089.6200000000003" width="30" height="29.27" as="geometry"/>
                    </mxCell>
                </UserObject>
                <UserObject label="" tags="Arrows" id="142">
                    <mxCell style="edgeStyle=none;html=1;" edge="1" parent="1" source="135" target="109">
                        <mxGeometry relative="1" as="geometry"/>
                    </mxCell>
                </UserObject>
                <UserObject label="Data Flow Gen 2" tags="Icons" id="135">
                    <mxCell style="shape=image;verticalLabelPosition=bottom;labelBackgroundColor=default;verticalAlign=top;aspect=fixed;imageAspect=0;image=https://debruyn.dev/2023/all-microsoft-fabric-icons-for-diagramming-old-version/Dataflow.png;fontSize=10;" parent="1" vertex="1">
                        <mxGeometry x="3331.0036693366933" y="2151.24" width="30" height="30.94" as="geometry"/>
                    </mxCell>
                </UserObject>
                <mxCell id="136" value="&lt;b&gt;&lt;font color=&quot;#3f497b&quot;&gt;Enrich&lt;/font&gt;&lt;/b&gt;" style="text;html=1;align=center;verticalAlign=middle;resizable=0;points=[];autosize=1;strokeColor=none;fillColor=none;fontSize=12;opacity=10;textOpacity=10;" parent="1" vertex="1">
                    <mxGeometry x="4077" y="1970" width="55" height="26" as="geometry"/>
                </mxCell>
                <UserObject label="" tags="Arrows" id="137">
                    <mxCell style="edgeStyle=none;html=1;entryX=0;entryY=0.75;entryDx=0;entryDy=0;" edge="1" parent="1" source="82" target="134">
                        <mxGeometry relative="1" as="geometry"/>
                    </mxCell>
                </UserObject>
                <UserObject label="" tags="Arrows" id="138">
                    <mxCell style="edgeStyle=none;html=1;entryX=0;entryY=0.75;entryDx=0;entryDy=0;" edge="1" parent="1" source="83" target="135">
                        <mxGeometry relative="1" as="geometry"/>
                    </mxCell>
                </UserObject>
                <UserObject label="" tags="Arrows" id="139">
                    <mxCell style="edgeStyle=none;html=1;dashed=1;" edge="1" parent="1" source="84" target="131">
                        <mxGeometry relative="1" as="geometry"/>
                    </mxCell>
                </UserObject>
                <UserObject label="" tags="Arrows" id="140">
                    <mxCell style="edgeStyle=none;html=1;" edge="1" parent="1" source="85" target="132">
                        <mxGeometry relative="1" as="geometry"/>
                    </mxCell>
                </UserObject>
            </root>
        </mxGraphModel>
    </diagram>
</mxfile>